{
.appVersion = "3151";
.formatVersion = 3;
DisplayStrings = (
"G̦̦GĢ",
"̦̦́NŅ",
"̦̦GĢ",
"Ħ",
"̦KĶ",
"Ļ",
"Ŗ",
"Ș",
"Ț",
"̦kķ",
"ł",
"ħ",
"ņ",
"ŗ",
"ș",
"ț",
"ť",
"Ł",
"İ",
"Ċ",
"Ė",
"Ġ",
"Ů",
"",
"g,̒g̒ģ",
"ģ",
"ġ",
"ï",
"ö",
"ō",
"ś",
"š",
"ū",
"ž",
"ř",
"ŭ",
"ü",
"ñ",
"å",
"ļ",
_,
"",
"æ",
"œ",
"æœ/parenleft.001/parenright.001/braceleft.001/braceright.001/bracketleft.001/bracketright.001",
"/braceleft.001",
Caesar,
T,
s
);
axes = (
{
name = Weight;
tag = wght;
}
);
customParameters = (
{
name = panose;
value = (
0,
0,
0,
0,
0,
0,
0,
0,
0,
0
);
},
{
name = unicodeRanges;
value = (
0,
1,
2,
5,
31,
35,
38,
60
);
},
{
name = codePageRanges;
value = (
"1252"
);
},
{
name = blueShift;
value = 18;
},
{
disabled = 1;
name = glyphOrder;
value = (
.notdef,
NULL,
nonmarkingreturn,
space,
exclam,
quotedbl,
numbersign,
dollar,
percent,
ampersand,
quotesingle,
parenleft,
parenright,
asterisk,
plus,
comma,
hyphen,
period,
slash,
zero,
one,
two,
three,
four,
five,
six,
seven,
eight,
nine,
colon,
semicolon,
less,
equal,
greater,
question,
at,
A,
B,
C,
D,
E,
F,
G,
H,
I,
J,
K,
L,
M,
N,
O,
P,
Q,
R,
S,
T,
U,
V,
W,
X,
Y,
Z,
bracketleft,
backslash,
bracketright,
asciicircum,
underscore,
grave,
a,
b,
c,
d,
e,
f,
g,
h,
i,
j,
k,
l,
m,
n,
o,
p,
q,
r,
s,
t,
u,
v,
w,
x,
y,
z,
braceleft,
bar,
braceright,
asciitilde,
Adieresis,
Aring,
Ccedilla,
Eacute,
Ntilde,
Odieresis,
Udieresis,
aacute,
agrave,
acircumflex,
adieresis,
atilde,
aring,
ccedilla,
eacute,
egrave,
ecircumflex,
edieresis,
iacute,
igrave,
icircumflex,
idieresis,
ntilde,
oacute,
ograve,
ocircumflex,
odieresis,
otilde,
uacute,
ugrave,
ucircumflex,
udieresis,
degree,
bullet,
paragraph,
germandbls,
registered,
copyright,
trademark,
acute,
dieresis,
AE,
Oslash,
ae,
oslash,
ellipsis,
uni00A0,
Agrave,
Atilde,
Otilde,
OE,
oe,
endash,
emdash,
quotedblleft,
quotedblright,
quoteleft,
quoteright,
divide,
ydieresis,
fraction,
Acircumflex,
Ecircumflex,
Aacute,
Edieresis,
Egrave,
Iacute,
Icircumflex,
Idieresis,
Igrave,
Oacute,
Ocircumflex,

glyphs = (
{
glyphname = A;
kernLeft = A;
kernRight = A;
lastChange = "2023-12-15 17:48:45 +0000";
layers = (
{
anchors = (
{
name = bottom;
pos = (330,0);
},
{
name = ogonek;
pos = (611,-1);
},
{
name = top;
pos = (470,680);
}
);
hints = (
{
horizontal = 1;
origin = (0,7);
target = up;
type = BottomGhost;
},
{
horizontal = 1;
origin = (0,1);
target = (1,2);
type = Stem;
},
{
horizontal = 1;
origin = (0,6);
target = down;
type = TopGhost;
}
);
layerId = m01;
shapes = (
{
closed = 1;
nodes = (
(116,0,l),
(225,185,l),
(524,185,l),
(561,0,l),
(637,0,l),
(490,680,l),
(452,680,l),
(40,0,l)
);
},
{
closed = 1;
nodes = (
(448,563,l),
(511,250,l),
(264,250,l)
);
}
);
width = 617;
},
{
anchors = (
{
name = bottom;
pos = (373,0);
},
{
name = ogonek;
pos = (647,0);
},
{
name = top;
pos = (501,679);
}
);
hints = (
{
horizontal = 1;
origin = (0,7);
target = up;
type = BottomGhost;
},
{
horizontal = 1;
origin = (0,1);
target = (1,2);
type = Stem;
},
{
horizontal = 1;
origin = (0,6);
target = down;
type = TopGhost;
}
);
layerId = "B86D9C3C-D3FC-40C7-BC9B-EF4509240B31";
shapes = (
{
closed = 1;
nodes = (
(196,0,l),
(272,137,l),
(531,137,l),
(553,0,l),
(714,0,l),
(570,680,l),
(443,680,l),
(35,0,l)
);
},
{
closed = 1;
nodes = (
(472,502,l),
(511,260,l),
(339,260,l)
);
}
);
width = 689;
},
{
anchors = (
{
name = bottom;
pos = (387,0);
},
{
name = ogonek;
pos = (659,0);
},
{
name = top;
pos = (511,679);
}
);
hints = (
{
horizontal = 1;
origin = (0,7);
target = up;
type = BottomGhost;
},
{
horizontal = 1;
origin = (0,1);
target = (1,2);
type = Stem;
},
{
horizontal = 1;
origin = (0,6);
target = down;
type = TopGhost;
}
);
layerId = "20FD933E-5CCA-4ADC-839D-1BAE82A4B007";
shapes = (
{
closed = 1;
nodes = (
(223,0,l),
(288,121,l),
(533,121,l),
(550,0,l),
(740,0,l),
(597,680,l),
(440,680,l),
(33,0,l)
);
},
{
closed = 1;
nodes = (
(480,482,l),
(510,263,l),
(363,263,l)
);
}
);
width = 713;
}
);
note = A;
unicode = 65;
},
{
glyphname = AE;
kernLeft = A;
lastChange = "2023-12-15 17:48:45 +0000";
layers = (
{
hints = (
{
horizontal = 1;
place = (0, 66);
place = (0, 66);
type = Stem;
},
{
horizontal = 1;
origin = (0,1);
target = (1,3);
type = Stem;
},
{
horizontal = 1;
place = (307, 65);
place = (307, 65);
type = Stem;
},
{
horizontal = 1;
place = (615, 65);
place = (615, 65);
type = Stem;
}
);
layerId = m01;
shapes = (
{
closed = 1;
nodes = (
(120,0,l),
(247,175,l),
(445,175,l),
(411,0,l),
(796,0,l),
(809,67,l),
(494,65,l),
(540,306,l),
(846,308,l),
(859,373,l),
(553,371,l),
(600,614,l),
(916,616,l),
(928,680,l),
(531,680,l),
(40,0,l)
);
},
{
closed = 1;
nodes = (
(509,541,l),
(524,582,l),
(458,240,l),
(294,240,l)
);
}
);
width = 826;
},
{
hints = (
{
horizontal = 1;
origin = (0,15);
target = (0,6);
type = Stem;
},
{
horizontal = 1;
origin = (0,7);
target = (0,10);
type = Stem;
},
{
horizontal = 1;
origin = (0,14);
target = (0,11);
type = Stem;
},
{
horizontal = 1;
origin = (0,1);
target = (1,3);
type = Stem;
}
);
layerId = "B86D9C3C-D3FC-40C7-BC9B-EF4509240B31";
shapes = (
{
closed = 1;
nodes = (
(196,0,l),
(272,137,l),
(421,137,l),
(394,0,l),
(833,0,l),
(859,136,l),
(570,136,l),
(597,273,l),
(876,273,l),
(903,409,l),
(624,409,l),
(650,544,l),
(939,544,l),
(965,680,l),
(443,680,l),
(35,0,l)
);
},
{
closed = 1;
nodes = (
(475,495,l),
(500,546,l),
(445,260,l),
(339,260,l)
);
}
);
width = 838;
},
{
hints = (
{
horizontal = 1;
place = (261.5, 160);
place = (261.5, 160);
type = Stem;
},
{
horizontal = 1;
place = (520.5, 159.5);
place = (520.5, 159.5);
type = Stem;
},
{
horizontal = 1;
origin = (0,1);
target = (1,3);
type = Stem;
},
{
horizontal = 1;
origin = (0,14);
target = (1,1);
type = Stem;
}
);
layerId = "20FD933E-5CCA-4ADC-839D-1BAE82A4B007";
shapes = (
{
closed = 1;
nodes = (
(221,0,l),
(280,124,l),
(412,124,l),
(388,0,l),
(845,0,l),
(876,159,l),
(596,160,l),
(616,262,l),
(886,261,l),
(917,421,l),
(647,422,l),
(666,521,l),
(946,520,l),
(977,680,l),
(414,680,l),
(33,0,l)
);
},
{
closed = 1;
nodes = (
(464,480,l),
(492,534,l),
(440,267,l),
(354,267,l)
);
}
);
width = 842;
}
);
note = AE;
unicode = 198;
},
{
glyphname = B;
lastChange = "2023-12-15 17:48:45 +0000";
layers = (
{
hints = (
{
horizontal = 1;
origin = (0,14);
target = (1,8);
type = Stem;
},
{
horizontal = 1;
origin = (1,0);
target = (2,8);
type = Stem;
},
{
horizontal = 1;
origin = (0,13);
target = (2,0);
type = Stem;
},
{
place = (521, 69);
place = (521, 69);
type = Stem;
}
);
layerId = m01;
shapes = (
{
closed = 1;
nodes = (
(313,0,ls),
(453,0,o),
(564,76,o),
(586,190,cs),
(603,280,o),
(572,352,o),
(492,375,c),
(556,401,o),
(589,461,o),
(600,521,cs),
(619,618,o),
(550,680,o),
(421,680,cs),
(237,680,l),
(105,0,l)
);
},
{
closed = 1;
nodes = (
(239,331,l),
(408,331,ls),
(481,331,o),
(533,276,o),
(518,203,cs),
(503,122,o),
(433,67,o),
(346,67,cs),
(188,67,l)
);
},
{
closed = 1;
nodes = (
(294,613,l),
(408,613,ls),
(501,613,o),
(541,579,o),
(528,510,cs),
(513,432,o),
(455,401,o),
(387,401,cs),
(253,401,l)
);
}
);
width = 539;
},
{
hints = (
{
horizontal = 1;
origin = (0,14);
target = (1,8);
type = Stem;
},
{
horizontal = 1;
origin = (1,0);
target = (2,8);
type = Stem;
},
{
horizontal = 1;
origin = (0,13);
target = (2,0);
type = Stem;
},
{
place = (485, 151);
place = (485, 151);
type = Stem;
},
{
origin = (1,4);
target = (0,9);
type = Stem;
}
);
layerId = "B86D9C3C-D3FC-40C7-BC9B-EF4509240B31";
shapes = (
{
closed = 1;
nodes = (
(385,0,ls),
(515,0,o),
(606,78,o),
(629,195,cs),
(647,287,o),
(597,348,o),
(524,366,c),
(580,389,o),
(620,441,o),
(633,510,cs),
(651,603,o),
(592,680,o),
(476,680,cs),
(222,680,l),
(90,0,l)
);
},
{
closed = 1;
nodes = (
(295,281,l),
(410,281,ls),
(455,281,o),
(485,243,o),
(477,199,cs),
(468,154,o),
(423,117,o),
(378,117,cs),
(263,117,l)
);
},
{
closed = 1;
nodes = (
(349,562,l),
(421,562,ls),
(464,562,o),
(493,527,o),
(485,483,cs),
(477,440,o),
(434,404,o),
(391,404,cs),
(319,404,l)
);
}
);
width = 581;
},
{
hints = (
{
horizontal = 1;
origin = (0,14);
target = (1,8);
type = Stem;
},
{
horizontal = 1;
origin = (1,0);
target = (2,8);
type = Stem;
},
{
horizontal = 1;
origin = (0,13);
target = (2,0);
type = Stem;
},
{
place = (470, 177);
place = (470, 177);
type = Stem;
},
{
place = (462, 184);
place = (462, 184);
type = Stem;
}
);
layerId = "20FD933E-5CCA-4ADC-839D-1BAE82A4B007";
shapes = (
{
closed = 1;
nodes = (
(409,0,ls),
(536,0,o),
(620,79,o),
(643,197,cs),
(661,289,o),
(604,347,o),
(535,363,c),
(588,385,o),
(630,434,o),
(644,506,cs),
(662,598,o),
(606,680,o),
(494,680,cs),
(217,680,l),
(85,0,l)
);
},
{
closed = 1;
nodes = (
(313,264,l),
(410,264,ls),
(445,264,o),
(469,232,o),
(462,198,cs),
(456,165,o),
(419,134,o),
(388,134,cs),
(288,134,l)
);
},
{
closed = 1;
nodes = (
(368,545,l),
(426,545,ls),
(452,545,o),
(477,510,o),
(470,474,cs),
(464,443,o),
(427,405,o),
(392,405,cs),
(341,405,l)
);
}
);
width = 595;
}
);
note = B;
unicode = 66;
},
{
glyphname = C;
kernLeft = COG;
kernRight = DOC;
lastChange = "2023-12-15 17:48:45 +0000";
layers = (
{
anchors = (
{
name = top;
pos = (546,687);
}
);
hints = (
{
horizontal = 1;
origin = (0,25);
target = (0,6);
type = Stem;
},
{
horizontal = 1;
origin = (0,19);
target = (0,12);
type = Stem;
},
{
place = (134, 72);
place = (134, 72);
type = Stem;
}
);
layerId = m01;
shapes = (
{
closed = 1;
nodes = (
(552,-10,o),
(694,78,o),
(769,208,c),
(692,208,l),
(631,122,o),
(530,62,o),
(426,62,cs),
(277,62,o),
(181,186,o),
(211,339,cs),
(245,515,o),
(412,617,o),
(524,617,cs),
(627,617,o),
(709,571,o),
(743,473,c),
(820,473,l),
(794,602,o),
(689,689,o),
(548,689,cs),
(352,689,o),
(177,525,o),
(141,339,cs),
(104,149,o),
(222,-10,o),
(412,-10,cs)
);
}
);
width = 739;
},
{
anchors = (
{
name = top;
pos = (550,689);
}
);
hints = (
{
horizontal = 1;
origin = (0,25);
target = (0,6);
type = Stem;
},
{
horizontal = 1;
origin = (0,19);
target = (0,12);
type = Stem;
},
{
place = (125, 154);
place = (125, 154);
type = Stem;
}
);
layerId = "B86D9C3C-D3FC-40C7-BC9B-EF4509240B31";
shapes = (
{
closed = 1;
nodes = (
(568,-10,o),
(720,91,o),
(793,231,c),
(626,231,l),
(586,171,o),
(510,130,o),
(440,130,cs),
(330,130,o),
(261,224,o),
(283,340,cs),
(305,455,o),
(412,550,o),
(522,550,cs),
(591,550,o),
(652,512,o),
(668,451,c),
(835,451,l),
(816,590,o),
(704,690,o),
(549,690,cs),
(356,690,o),
(169,533,o),
(131,340,cs),
(94,147,o),
(220,-10,o),
(413,-10,cs)
);
}
);
width = 753;
},
{
anchors = (
{
name = top;
pos = (551,690);
}
);
hints = (
{
horizontal = 1;
origin = (0,25);
target = (0,6);
type = Stem;
},
{
horizontal = 1;
origin = (0,12);
target = (0,19);
type = Stem;
},
{
place = (121, 182);
place = (121, 182);
type = Stem;
}
);
layerId = "20FD933E-5CCA-4ADC-839D-1BAE82A4B007";
shapes = (
{
closed = 1;
nodes = (
(573,-10,o),
(728,95,o),
(800,239,c),
(603,239,l),
(571,187,o),
(504,153,o),
(445,153,cs),
(348,153,o),
(287,237,o),
(307,340,cs),
(326,435,o),
(412,528,o),
(522,528,cs),
(579,528,o),
(633,492,o),
(642,444,c),
(839,444,l),
(823,586,o),
(709,690,o),
(549,690,cs),
(357,690,o),
(166,536,o),
(128,340,cs),
(90,146,o),
(219,-10,o),
(413,-10,cs)
);
}
);
width = 758;
}
);
note = C;
unicode = 67;
},
{
glyphname = D;
kernRight = DOC;
lastChange = "2023-12-15 17:48:45 +0000";
layers = (
{
anchors = (
{
name = top;
pos = (435,680);
}
);
hints = (
{
horizontal = 1;
origin = (0,8);
target = (1,8);
type = Stem;
},
{
horizontal = 1;
origin = (0,7);
target = (1,0);
type = Stem;
},
{
place = (637, 69);
place = (637, 69);
type = Stem;
}
);
layerId = m01;
shapes = (
{
closed = 1;
nodes = (
(283,0,ls),
(479,0,o),
(661,144,o),
(699,340,cs),
(739,547,o),
(601,680,o),
(415,680,cs),
(237,680,l),
(105,0,l)
);
},
{
closed = 1;
nodes = (
(294,610,l),
(404,610,ls),
(561,610,o),
(662,497,o),
(631,340,cs),
(601,183,o),
(456,70,o),
(299,70,cs),
(189,70,l)
);
}
);
width = 648;
},
{
anchors = (
{
name = top;
pos = (455,678);
}
);
hints = (
{
horizontal = 1;
origin = (0,8);
target = (1,8);
type = Stem;
},
{
horizontal = 1;
origin = (0,7);
target = (1,0);
type = Stem;
},
{
place = (577, 156);
place = (577, 156);
type = Stem;
}
);
layerId = "B86D9C3C-D3FC-40C7-BC9B-EF4509240B31";
shapes = (
{
closed = 1;
nodes = (
(322,0,ls),
(515,0,o),
(689,148,o),
(726,340,cs),
(763,532,o),
(646,680,o),
(454,680,cs),
(222,680,l),
(90,0,l)
);
},
{
closed = 1;
nodes = (
(343,541,l),
(418,541,ls),
(534,541,o),
(595,453,o),
(573,340,cs),
(551,227,o),
(455,138,o),
(340,138,cs),
(265,138,l)
);
}
);
width = 665;
},
{
anchors = (
{
name = top;
pos = (462,677);
}
);
hints = (
{
horizontal = 1;
origin = (0,8);
target = (1,8);
type = Stem;
},
{
horizontal = 1;
origin = (0,7);
target = (1,0);
type = Stem;
},
{
place = (558, 184);
place = (558, 184);
type = Stem;
}
);
layerId = "20FD933E-5CCA-4ADC-839D-1BAE82A4B007";
shapes = (
{
closed = 1;
nodes = (
(335,0,ls),
(527,0,o),
(698,149,o),
(735,340,cs),
(771,527,o),
(661,680,o),
(467,680,cs),
(217,680,l),
(85,0,l)
);
},
{
closed = 1;
nodes = (
(360,518,l),
(423,518,ls),
(526,518,o),
(573,438,o),
(554,340,cs),
(535,242,o),
(454,161,o),
(353,161,cs),
(290,161,l)
);
}
);
width = 671;
}
);
note = D;
unicode = 68;
},
{
glyphname = Eth;
kernRight = COD;
lastChange = "2023-12-15 17:48:45 +0000";
layers = (
{
hints = (
{
horizontal = 1;
origin = (0,12);
target = (1,12);
type = Stem;
},
{
horizontal = 1;
origin = (0,10);
target = (0,9);
type = Stem;
},
{
horizontal = 1;
origin = (0,7);
target = (1,4);
type = Stem;
},
{
place = (637, 69);
place = (637, 69);
type = Stem;
}
);
layerId = m01;
shapes = (
{
closed = 1;
nodes = (
(283,0,ls),
(479,0,o),
(661,144,o),
(699,340,cs),
(738,540,o),
(607,680,o),
(415,680,cs),
(237,680,l),
(173,352,l),
(106,352,l),
(95,295,l),
(162,295,l),
(105,0,l)
);
},
{
closed = 1;
nodes = (
(232,295,l),
(410,295,l),
(421,352,l),
(243,352,l),
(294,610,l),
(404,610,ls),
(561,610,o),
(662,497,o),
(631,340,cs),
(601,183,o),
(456,70,o),
(299,70,cs),
(189,70,l)
);
}
);
width = 648;
},
{
hints = (
{
horizontal = 1;
origin = (0,12);
target = (1,12);
type = Stem;
},
{
horizontal = 1;
origin = (0,10);
target = (0,9);
type = Stem;
},
{
horizontal = 1;
origin = (0,7);
target = (1,4);
type = Stem;
},
{
place = (577, 156);
place = (577, 156);
type = Stem;
}
);
layerId = "B86D9C3C-D3FC-40C7-BC9B-EF4509240B31";
shapes = (
{
closed = 1;
nodes = (
(322,0,ls),
(515,0,o),
(689,148,o),
(726,340,cs),
(763,532,o),
(646,680,o),
(454,680,cs),
(222,680,l),
(163,376,l),
(103,376,l),
(87,293,l),
(147,293,l),
(90,0,l)
);
},
{
closed = 1;
nodes = (
(295,293,l),
(437,293,l),
(453,376,l),
(311,376,l),
(343,541,l),
(418,541,ls),
(534,541,o),
(595,453,o),
(573,340,cs),
(551,227,o),
(455,138,o),
(340,138,cs),
(265,138,l)
);
}
);
width = 665;
},
{
hints = (
{
horizontal = 1;
origin = (0,12);
target = (1,12);
type = Stem;
},
{
horizontal = 1;
origin = (0,10);
target = (0,9);
type = Stem;
},
{
horizontal = 1;
origin = (0,7);
target = (1,4);
type = Stem;
},
{
place = (558, 184);
place = (558, 184);
type = Stem;
}
);
layerId = "20FD933E-5CCA-4ADC-839D-1BAE82A4B007";
shapes = (
{
closed = 1;
nodes = (
(335,0,ls),
(527,0,o),
(698,149,o),
(735,340,cs),
(772,529,o),
(659,680,o),
(467,680,cs),
(217,680,l),
(160,384,l),
(102,384,l),
(84,292,l),
(142,292,l),
(85,0,l)
);
},
{
closed = 1;
nodes = (
(316,292,l),
(446,292,l),
(464,384,l),
(334,384,l),
(360,518,l),
(423,518,ls),
(526,518,o),
(573,438,o),
(554,340,cs),
(535,242,o),
(454,161,o),
(353,161,cs),
(290,161,l)
);
}
);
width = 671;
}
);
note = Eth;
unicode = 208;
},
{
glyphname = Dcroat;
lastChange = "2023-12-15 17:48:45 +0000";
layers = (
{
hints = (
{
horizontal = 1;
origin = (0,12);
target = (1,12);
type = Stem;
},
{
horizontal = 1;
origin = (0,10);
target = (0,9);
type = Stem;
},
{
horizontal = 1;
origin = (0,7);
target = (1,4);
type = Stem;
},
{
place = (637, 69);
place = (637, 69);
type = Stem;
}
);
layerId = m01;
shapes = (
{
closed = 1;
nodes = (
(283,0,ls),
(479,0,o),
(661,144,o),
(699,340,cs),
(738,540,o),
(607,680,o),
(415,680,cs),
(237,680,l),
(173,352,l),
(106,352,l),
(95,295,l),
(162,295,l),
(105,0,l)
);
},
{
closed = 1;
nodes = (
(232,295,l),
(410,295,l),
(421,352,l),
(243,352,l),
(294,610,l),
(404,610,ls),
(561,610,o),
(662,497,o),
(631,340,cs),
(601,183,o),
(456,70,o),
(299,70,cs),
(189,70,l)
);
}
);
width = 648;
},
{
hints = (
{
horizontal = 1;
origin = (0,12);
target = (1,12);
type = Stem;
},
{
horizontal = 1;
origin = (0,10);
target = (0,9);
type = Stem;
},
{
horizontal = 1;
origin = (0,7);
target = (1,4);
type = Stem;
},
{
place = (577, 156);
place = (577, 156);
type = Stem;
}
);
layerId = "B86D9C3C-D3FC-40C7-BC9B-EF4509240B31";
shapes = (
{
closed = 1;
nodes = (
(322,0,ls),
(515,0,o),
(689,148,o),
(726,340,cs),
(763,532,o),
(646,680,o),
(454,680,cs),
(222,680,l),
(163,376,l),
(103,376,l),
(87,293,l),
(147,293,l),
(90,0,l)
);
},
{
closed = 1;
nodes = (
(295,293,l),
(437,293,l),
(453,376,l),
(311,376,l),
(343,541,l),
(418,541,ls),
(534,541,o),
(595,453,o),
(573,340,cs),
(551,227,o),
(455,138,o),
(340,138,cs),
(265,138,l)
);
}
);
width = 665;
},
{
hints = (
{
horizontal = 1;
origin = (0,12);
target = (1,12);
type = Stem;
},
{
horizontal = 1;
origin = (0,10);
target = (0,9);
type = Stem;
},
{
horizontal = 1;
origin = (0,7);
target = (1,4);
type = Stem;
},
{
place = (558, 184);
place = (558, 184);
type = Stem;
}
);
layerId = "20FD933E-5CCA-4ADC-839D-1BAE82A4B007";
shapes = (
{
closed = 1;
nodes = (
(335,0,ls),
(527,0,o),
(698,149,o),
(735,340,cs),
(772,529,o),
(659,680,o),
(467,680,cs),
(217,680,l),
(160,384,l),
(102,384,l),
(84,292,l),
(142,292,l),
(85,0,l)
);
},
{
closed = 1;
nodes = (
(316,292,l),
(446,292,l),
(464,384,l),
(334,384,l),
(360,518,l),
(423,518,ls),
(526,518,o),
(573,438,o),
(554,340,cs),
(535,242,o),
(454,161,o),
(353,161,cs),
(290,161,l)
);
}
);
width = 671;
}
);
unicode = 272;
},
{
glyphname = E;
lastChange = "2023-12-15 17:48:45 +0000";
layers = (
{
anchors = (
{
name = bottom;
pos = (319,0);
},
{
name = ogonek;
pos = (466,0);
},
{
name = top;
pos = (440,680);
}
);
hints = (
{
horizontal = 1;
origin = (0,11);
target = (0,2);
type = Stem;
},
{
horizontal = 1;
origin = (0,3);
target = (0,6);
type = Stem;
},
{
horizontal = 1;
origin = (0,10);
target = (0,7);
type = Stem;
}
);
layerId = m01;
shapes = (
{
closed = 1;
nodes = (
(509,0,l),
(522,65,l),
(188,65,l),
(235,307,l),
(559,307,l),
(572,373,l),
(248,373,l),
(295,615,l),
(629,615,l),
(641,680,l),
(237,680,l),
(105,0,l)
);
}
);
width = 554;
},
{
anchors = (
{
name = bottom;
pos = (303,0);
},
{
name = ogonek;
pos = (467,0);
},
{
name = top;
pos = (440,680);
}
);
hints = (
{
horizontal = 1;
origin = (0,11);
target = (0,2);
type = Stem;
},
{
horizontal = 1;
origin = (0,3);
target = (0,6);
type = Stem;
},
{
horizontal = 1;
origin = (0,10);
target = (0,7);
type = Stem;
}
);
layerId = "B86D9C3C-D3FC-40C7-BC9B-EF4509240B31";
shapes = (
{
closed = 1;
nodes = (
(514,0,l),
(540,136,l),
(266,136,l),
(293,273,l),
(557,273,l),
(584,409,l),
(320,409,l),
(346,544,l),
(620,544,l),
(646,680,l),
(222,680,l),
(90,0,l)
);
}
);
width = 534;
},
{
anchors = (
{
name = bottom;
pos = (298,0);
},
{
name = ogonek;
pos = (467,0);
},
{
name = top;
pos = (440,680);
}
);
hints = (
{
horizontal = 1;
origin = (0,11);
target = (0,2);
type = Stem;
},
{
horizontal = 1;
origin = (0,3);
target = (0,6);
type = Stem;
},
{
horizontal = 1;
origin = (0,10);
target = (0,7);
type = Stem;
}
);
layerId = "20FD933E-5CCA-4ADC-839D-1BAE82A4B007";
shapes = (
{
closed = 1;
nodes = (
(516,0,l),
(547,160,l),
(293,160,l),
(313,262,l),
(557,262,l),
(588,421,l),
(344,421,l),
(363,520,l),
(617,520,l),
(648,680,l),
(217,680,l),
(85,0,l)
);
}
);
width = 527;
}
);
note = E;
unicode = 69;
},
{
glyphname = F;
lastChange = "2023-12-15 17:48:45 +0000";
layers = (
{
hints = (
{
horizontal = 1;
origin = (0,9);
target = up;
type = BottomGhost;
},
{
horizontal = 1;
origin = (0,1);
target = (0,4);
type = Stem;
},
{
horizontal = 1;
origin = (0,8);
target = (0,5);
type = Stem;
}
);
layerId = m01;
shapes = (
{
closed = 1;
nodes = (
(175,0,l),
(235,307,l),
(559,307,l),
(572,373,l),
(248,373,l),
(295,615,l),
(629,615,l),
(641,680,l),
(237,680,l),
(105,0,l)
);
}
);
width = 499;
},
{
hints = (
{
horizontal = 1;
origin = (0,9);
target = up;
type = BottomGhost;
},
{
horizontal = 1;
origin = (0,1);
target = (0,4);
type = Stem;
},
{
horizontal = 1;
origin = (0,8);
target = (0,5);
type = Stem;
}
);
layerId = "B86D9C3C-D3FC-40C7-BC9B-EF4509240B31";
shapes = (
{
closed = 1;
nodes = (
(240,0,l),
(293,273,l),
(547,273,l),
(574,409,l),
(320,409,l),
(346,544,l),
(610,544,l),
(636,680,l),
(222,680,l),
(90,0,l)
);
}
);
width = 514;
},
{
hints = (
{
horizontal = 1;
origin = (0,9);
target = up;
type = BottomGhost;
},
{
horizontal = 1;
origin = (0,1);
target = (0,4);
type = Stem;
},
{
horizontal = 1;
origin = (0,8);
target = (0,5);
type = Stem;
}
);
layerId = "20FD933E-5CCA-4ADC-839D-1BAE82A4B007";
shapes = (
{
closed = 1;
nodes = (
(262,0,l),
(313,262,l),
(543,262,l),
(574,421,l),
(344,421,l),
(363,520,l),
(603,520,l),
(634,680,l),
(217,680,l),
(85,0,l)
);
}
);
width = 519;
}
);
note = F;
unicode = 70;
},
{
glyphname = G;
kernLeft = COG;
kernRight = DOC;
lastChange = "2023-12-15 17:48:45 +0000";
layers = (
{
anchors = (
{
name = bottom;
pos = (424,-9);
},
{
name = top;
pos = (552,689);
}
);
hints = (
{
horizontal = 1;
origin = (0,28);
target = (0,9);
type = Stem;
},
{
horizontal = 1;
origin = (0,5);
target = (0,4);
type = Stem;
},
{
horizontal = 1;
origin = (0,22);
target = (0,15);
type = Stem;
},
{
place = (135, 72);
place = (135, 72);
type = Stem;
}
);
layerId = m01;
shapes = (
{
closed = 1;
nodes = (
(585,-8,o),
(760,106,o),
(823,276,cs),
(838,318,l),
(484,318,l),
(472,257,l),
(748,257,l),
(685,139,o),
(561,62,o),
(437,62,cs),
(279,62,o),
(182,189,o),
(212,343,cs),
(242,499,o),
(390,623,o),
(546,623,cs),
(664,623,o),
(751,552,o),
(773,442,c),
(847,442,l),
(831,591,o),
(718,693,o),
(553,693,cs),
(361,693,o),
(177,527,o),
(142,343,cs),
(104,147,o),
(232,-8,o),
(423,-8,cs)
);
}
);
width = 791;
},
{
anchors = (
{
name = bottom;
pos = (428,-10);
},
{
name = top;
pos = (561,674);
}
);
hints = (
{
horizontal = 1;
origin = (0,28);
target = (0,9);
type = Stem;
},
{
horizontal = 1;
origin = (0,5);
target = (0,4);
type = Stem;
},
{
horizontal = 1;
origin = (0,22);
target = (0,15);
type = Stem;
},
{
place = (140, 154);
place = (140, 154);
type = Stem;
}
);
layerId = "B86D9C3C-D3FC-40C7-BC9B-EF4509240B31";
shapes = (
{
closed = 1;
nodes = (
(622,-10,o),
(808,147,o),
(845,340,cs),
(850,363,l),
(515,363,l),
(493,250,l),
(666,250,l),
(609,147,o),
(520,126,o),
(454,126,cs),
(346,126,o),
(275,223,o),
(298,338,cs),
(320,453,o),
(429,550,o),
(537,550,cs),
(603,550,o),
(666,523,o),
(685,451,c),
(850,451,l),
(830,592,o),
(714,690,o),
(564,690,cs),
(372,690,o),
(183,532,o),
(146,340,cs),
(109,148,o),
(236,-10,o),
(428,-10,cs)
);
}
);
width = 784;
},
{
anchors = (
{
name = bottom;
pos = (429,-10);
},
{
name = top;
pos = (564,669);
}
);
hints = (
{
horizontal = 1;
origin = (0,28);
target = (0,9);
type = Stem;
},
{
horizontal = 1;
origin = (0,5);
target = (0,4);
type = Stem;
},
{
horizontal = 1;
origin = (0,22);
target = (0,15);
type = Stem;
},
{
place = (142, 180);
place = (142, 180);
type = Stem;
}
);
layerId = "20FD933E-5CCA-4ADC-839D-1BAE82A4B007";
shapes = (
{
closed = 1;
nodes = (
(634,-11,o),
(823,161,o),
(852,361,cs),
(853,378,l),
(524,378,l),
(499,248,l),
(638,248,l),
(583,150,o),
(507,147,o),
(461,147,cs),
(369,147,o),
(306,234,o),
(326,336,cs),
(346,438,o),
(442,526,o),
(534,526,cs),
(582,526,o),
(637,513,o),
(655,454,c),
(850,454,l),
(830,592,o),
(713,689,o),
(568,689,cs),
(376,689,o),
(186,534,o),
(148,339,cs),
(111,148,o),
(237,-11,o),
(430,-11,cs)
);
}
);
width = 782;
}
);
note = G;
unicode = 71;
},
{
glyphname = H;
lastChange = "2023-12-15 17:48:45 +0000";
layers = (
{
hints = (
{
horizontal = 1;
origin = (0,11);
target = up;
type = BottomGhost;
},
{
horizontal = 1;
origin = (0,1);
target = (0,8);
type = Stem;
},
{
horizontal = 1;
origin = (0,10);
target = down;
type = TopGhost;
}
);
layerId = m01;
shapes = (
{
closed = 1;
nodes = (
(175,0,l),
(234,304,l),
(543,304,l),
(484,0,l),
(554,0,l),
(686,680,l),
(616,680,l),
(557,374,l),
(248,374,l),
(307,680,l),
(237,680,l),
(105,0,l)
);
}
);
width = 599;
},
{
hints = (
{
horizontal = 1;
origin = (0,11);
target = up;
type = BottomGhost;
},
{
horizontal = 1;
origin = (0,1);
target = (0,8);
type = Stem;
},
{
horizontal = 1;
origin = (0,10);
target = down;
type = TopGhost;
}
);
layerId = "B86D9C3C-D3FC-40C7-BC9B-EF4509240B31";
shapes = (
{
closed = 1;
nodes = (
(240,0,l),
(293,273,l),
(537,273,l),
(484,0,l),
(634,0,l),
(766,680,l),
(616,680,l),
(564,409,l),
(320,409,l),
(372,680,l),
(222,680,l),
(90,0,l)
);
}
);
width = 664;
},
{
hints = (
{
horizontal = 1;
origin = (0,11);
target = up;
type = BottomGhost;
},
{
horizontal = 1;
origin = (0,1);
target = (0,8);
type = Stem;
},
{
horizontal = 1;
origin = (0,10);
target = down;
type = TopGhost;
}
);
layerId = "20FD933E-5CCA-4ADC-839D-1BAE82A4B007";
shapes = (
{
closed = 1;
nodes = (
(262,0,l),
(313,263,l),
(535,263,l),
(484,0,l),
(661,0,l),
(793,680,l),
(616,680,l),
(566,421,l),
(344,421,l),
(394,680,l),
(217,680,l),
(85,0,l)
);
}
);
width = 686;
}
);
note = H;
unicode = 72;
},
{
glyphname = I;
lastChange = "2023-12-15 17:48:45 +0000";
layers = (
{
anchors = (
{
name = ogonek;
pos = (264,0);
},
{
name = top;
pos = (307,680);
}
);
hints = (
{
horizontal = 1;
origin = (1,3);
target = (1,2);
type = Stem;
},
{
horizontal = 1;
origin = (2,2);
target = (2,3);
type = Stem;
}
);
layerId = m01;
shapes = (
{
closed = 1;
nodes = (
(219,20,l),
(343,660,l),
(273,660,l),
(149,20,l)
);
},
{
closed = 1;
nodes = (
(290,0,l),
(303,65,l),
(83,65,l),
(70,0,l)
);
},
{
closed = 1;
nodes = (
(410,615,l),
(422,680,l),
(202,680,l),
(190,615,l)
);
}
);
width = 300;
},
{
anchors = (
{
name = ogonek;
pos = (346,0);
},
{
name = top;
pos = (369,680);
}
);
hints = (
{
horizontal = 1;
origin = (1,3);
target = (1,2);
type = Stem;
},
{
horizontal = 1;
origin = (2,2);
target = (2,3);
type = Stem;
},
{
origin = (1,3);
target = (2,1);
type = Stem;
}
);
layerId = "B86D9C3C-D3FC-40C7-BC9B-EF4509240B31";
shapes = (
{
closed = 1;
nodes = (
(314,20,l),
(439,660,l),
(289,660,l),
(164,20,l)
);
},
{
closed = 1;
nodes = (
(390,0,l),
(417,136,l),
(107,136,l),
(80,0,l)
);
},
{
closed = 1;
nodes = (
(496,544,l),
(522,680,l),
(212,680,l),
(186,544,l)
);
}
);
width = 411;
},
{
anchors = (
{
name = ogonek;
pos = (373,0);
},
{
name = top;
pos = (390,680);
}
);
hints = (
{
horizontal = 1;
origin = (1,3);
target = (1,2);
type = Stem;
},
{
horizontal = 1;
origin = (2,2);
target = (2,3);
type = Stem;
},
{
origin = (1,3);
target = (2,1);
type = Stem;
}
);
layerId = "20FD933E-5CCA-4ADC-839D-1BAE82A4B007";
shapes = (
{
closed = 1;
nodes = (
(346,20,l),
(471,660,l),
(294,660,l),
(169,20,l)
);
},
{
closed = 1;
nodes = (
(423,0,l),
(456,160,l),
(116,160,l),
(83,0,l)
);
},
{
closed = 1;
nodes = (
(524,520,l),
(555,680,l),
(215,680,l),
(184,520,l)
);
}
);
width = 448;
}
);
note = I;
unicode = 73;
},
{
glyphname = J;
lastChange = "2023-12-15 17:48:45 +0000";
layers = (
{
hints = (
{
horizontal = 1;
origin = (0,15);
target = (0,12);
type = Stem;
},
{
horizontal = 1;
origin = (0,4);
target = down;
type = TopGhost;
}
);
layerId = m01;
shapes = (
{
closed = 1;
nodes = (
(273,-8,o),
(360,47,o),
(384,170,cs),
(483,680,l),
(413,680,l),
(314,170,ls),
(299,95,o),
(259,61,o),
(201,61,cs),
(171,61,o),
(137,96,o),
(124,119,c),
(72,61,l),
(96,26,o),
(134,-8,o),
(186,-8,cs)
);
}
);
width = 381;
},
{
hints = (
{
horizontal = 1;
origin = (0,15);
target = (0,8);
type = Stem;
},
{
horizontal = 1;
origin = (0,4);
target = down;
type = TopGhost;
}
);
layerId = "B86D9C3C-D3FC-40C7-BC9B-EF4509240B31";
shapes = (
{
closed = 1;
nodes = (
(409,-10,o),
(526,61,o),
(564,255,cs),
(646,680,l),
(496,680,l),
(416,267,ls),
(402,196,o),
(386,134,o),
(289,134,cs),
(249,134,o),
(215,180,o),
(198,240,c),
(85,111,l),
(93,71,o),
(156,-10,o),
(261,-10,cs)
);
}
);
width = 534;
},
{
hints = (
{
horizontal = 1;
origin = (0,15);
target = (0,8);
type = Stem;
},
{
horizontal = 1;
origin = (0,4);
target = down;
type = TopGhost;
}
);
layerId = "20FD933E-5CCA-4ADC-839D-1BAE82A4B007";
shapes = (
{
closed = 1;
nodes = (
(454,-11,o),
(581,66,o),
(623,283,cs),
(700,680,l),
(524,680,l),
(450,299,ls),
(437,230,o),
(429,158,o),
(319,158,cs),
(275,158,o),
(241,208,o),
(222,280,c),
(89,128,l),
(92,86,o),
(163,-11,o),
(286,-11,cs)
);
}
);
width = 585;
}
);
note = J;
unicode = 74;
},
{
glyphname = K;
lastChange = "2023-12-15 17:48:45 +0000";
layers = (
{
anchors = (
{
name = bottom;
pos = (262,0);
}
);
hints = (
{
horizontal = 1;
origin = (0,10);
target = up;
type = BottomGhost;
},
{
horizontal = 1;
origin = (0,9);
target = down;
type = TopGhost;
}
);
layerId = m01;
shapes = (
{
closed = 1;
nodes = (
(175,0,l),
(237,319,l),
(404,0,l),
(494,0,l),
(310,340,l),
(626,680,l),
(536,680,l),
(245,361,l),
(307,680,l),
(237,680,l),
(105,0,l)
);
}
);
width = 474;
},
{
anchors = (
{
name = bottom;
pos = (320,5);
}
);
hints = (
{
horizontal = 1;
origin = (0,10);
target = up;
type = BottomGhost;
},
{
horizontal = 1;
origin = (0,9);
target = down;
type = TopGhost;
}
);
layerId = "B86D9C3C-D3FC-40C7-BC9B-EF4509240B31";
shapes = (
{
closed = 1;
nodes = (
(240,0,l),
(299,304,l),
(455,0,l),
(657,0,l),
(452,340,l),
(779,680,l),
(587,680,l),
(313,376,l),
(372,680,l),
(222,680,l),
(90,0,l)
);
}
);
width = 632;
},
{
anchors = (
{
name = bottom;
pos = (334,5);
}
);
hints = (
{
horizontal = 1;
origin = (0,10);
target = up;
type = BottomGhost;
},
{
horizontal = 1;
origin = (0,9);
target = down;
type = TopGhost;
}
);
layerId = "20FD933E-5CCA-4ADC-839D-1BAE82A4B007";
shapes = (
{
closed = 1;
nodes = (
(262,0,l),
(320,299,l),
(472,0,l),
(711,0,l),
(499,340,l),
(830,680,l),
(604,680,l),
(336,381,l),
(394,680,l),
(217,680,l),
(85,0,l)
);
}
);
width = 685;
}
);
note = K;
unicode = 75;
},
{
glyphname = L;
lastChange = "2023-12-15 17:48:45 +0000";
layers = (
{
anchors = (
{
name = bottom;
pos = (250,0);
},
{
name = top;
pos = (269,681);
}
);
hints = (
{
horizontal = 1;
origin = (0,5);
target = (0,2);
type = Stem;
},
{
horizontal = 1;
origin = (0,4);
target = down;
type = TopGhost;
}
);
layerId = m01;
shapes = (
{
closed = 1;
nodes = (
(458,0,l),
(472,70,l),
(189,70,l),
(307,680,l),
(237,680,l),
(105,0,l)
);
}
);
width = 468;
},
{
anchors = (
{
name = bottom;
pos = (285,0);
},
{
name = top;
pos = (293,679);
}
);
hints = (
{
horizontal = 1;
origin = (0,5);
target = (0,2);
type = Stem;
},
{
horizontal = 1;
origin = (0,4);
target = down;
type = TopGhost;
}
);
layerId = "B86D9C3C-D3FC-40C7-BC9B-EF4509240B31";
shapes = (
{
closed = 1;
nodes = (
(534,0,l),
(560,136,l),
(266,136,l),
(372,680,l),
(222,680,l),
(90,0,l)
);
}
);
width = 544;
},
{
anchors = (
{
name = bottom;
pos = (297,0);
},
{
name = top;
pos = (301,678);
}
);
hints = (
{
horizontal = 1;
origin = (0,5);
target = (0,2);
type = Stem;
},
{
horizontal = 1;
origin = (0,4);
target = down;
type = TopGhost;
},
{
origin = (0,5);
target = (0,1);
type = Stem;
}
);
layerId = "20FD933E-5CCA-4ADC-839D-1BAE82A4B007";
shapes = (
{
closed = 1;
nodes = (
(559,0,l),
(590,158,l),
(293,158,l),
(394,680,l),
(217,680,l),
(85,0,l)
);
}
);
width = 569;
}
);
note = L;
unicode = 76;
},
{
glyphname = M;
lastChange = "2023-12-15 17:48:45 +0000";
layers = (
{
hints = (
{
horizontal = 1;
origin = (0,12);
target = up;
type = BottomGhost;
},
{
horizontal = 1;
origin = (0,11);
target = down;
type = TopGhost;
},
{
place = (726, 69);
place = (726, 69);
type = Stem;
}
);
layerId = m01;
shapes = (
{
closed = 1;
nodes = (
(112,0,l),
(311,484,l),
(406,4,l),
(440,4,l),
(720,484,l),
(732,0,l),
(803,0,l),
(787,682,l),
(761,682,l),
(450,143,l),
(349,682,l),
(322,682,l),
(40,0,l)
);
}
);
width = 783;
},
{
hints = (
{
horizontal = 1;
origin = (0,12);
target = up;
type = BottomGhost;
},
{
horizontal = 1;
origin = (0,11);
target = down;
type = TopGhost;
},
{
place = (788.5, 159.5);
place = (788.5, 159.5);
type = Stem;
}
);
layerId = "B86D9C3C-D3FC-40C7-BC9B-EF4509240B31";
shapes = (
{
closed = 1;
nodes = (
(210,0,l),
(381,469,l),
(423,0,l),
(570,0,l),
(794,469,l),
(783,0,l),
(948,0,l),
(948,680,l),
(770,680,l),
(536,203,l),
(487,680,l),
(309,680,l),
(45,0,l)
);
}
);
width = 933;
},
{
hints = (
{
horizontal = 1;
origin = (0,12);
target = up;
type = BottomGhost;
},
{
horizontal = 1;
origin = (0,11);
target = down;
type = TopGhost;
},
{
horizontal = 1;
origin = (0,2);
target = up;
type = BottomGhost;
},
{
place = (809.5, 189.5);
place = (809.5, 189.5);
type = Stem;
}
);
layerId = "20FD933E-5CCA-4ADC-839D-1BAE82A4B007";
shapes = (
{
closed = 1;
nodes = (
(243,0,l),
(404,464,l),
(429,-1,l),
(614,-1,l),
(819,464,l),
(800,0,l),
(996,0,l),
(1002,679,l),
(773,679,l),
(565,223,l),
(533,679,l),
(305,679,l),
(47,0,l)
);
}
);
width = 983;
}
);
note = M;
unicode = 77;
},
{
glyphname = N;
lastChange = "2023-12-15 17:48:45 +0000";
layers = (
{
anchors = (
{
name = bottom;
pos = (349,0);
},
{
name = top;
pos = (443,673);
}
);
hints = (
{
horizontal = 1;
origin = (0,9);
target = up;
type = BottomGhost;
},
{
horizontal = 1;
origin = (0,8);
target = down;
type = TopGhost;
},
{
horizontal = 1;
origin = (0,2);
target = up;
type = BottomGhost;
}
);
layerId = m01;
shapes = (
{
closed = 1;
nodes = (
(175,0,l),
(272,501,l),
(527,1,l),
(557,1,l),
(689,680,l),
(619,680,l),
(522,180,l),
(267,680,l),
(237,680,l),
(105,0,l)
);
}
);
width = 602;
},
{
anchors = (
{
name = bottom;
pos = (348,0);
},
{
name = top;
pos = (490,677);
}
);
hints = (
{
horizontal = 1;
origin = (0,9);
target = up;
type = BottomGhost;
},
{
horizontal = 1;
origin = (0,8);
target = down;
type = TopGhost;
}
);
layerId = "B86D9C3C-D3FC-40C7-BC9B-EF4509240B31";
shapes = (
{
closed = 1;
nodes = (
(240,0,l),
(322,424,l),
(474,0,l),
(624,0,l),
(756,680,l),
(606,680,l),
(524,256,l),
(372,680,l),
(222,680,l),
(90,0,l)
);
}
);
width = 654;
},
{
anchors = (
{
name = bottom;
pos = (348,0);
},
{
name = top;
pos = (505,678);
}
);
hints = (
{
horizontal = 1;
origin = (0,9);
target = up;
type = BottomGhost;
},
{
horizontal = 1;
origin = (0,8);
target = down;
type = TopGhost;
}
);
layerId = "20FD933E-5CCA-4ADC-839D-1BAE82A4B007";
shapes = (
{
closed = 1;
nodes = (
(262,0,l),
(339,398,l),
(456,0,l),
(646,0,l),
(778,680,l),
(602,680,l),
(525,281,l),
(407,680,l),
(217,680,l),
(85,0,l)
);
}
);
width = 671;
}
);
note = N;
unicode = 78;
},
{
glyphname = Eng;
lastChange = "2023-12-15 17:48:45 +0000";
layers = (
{
hints = (
{
horizontal = 1;
origin = (1,9);
target = (1,8);
type = Stem;
}
);
layerId = m01;
shapes = (
{
ref = N;
},
{
closed = 1;
nodes = (
(465,-175,o),
(537,-101,o),
(554,-16,cs),
(583,135,l),
(513,135,l),
(484,-17,ls),
(473,-71,o),
(435,-107,o),
(384,-107,c),
(371,-175,l),
(383,-175,l)
);
}
);
width = 602;
},
{
hints = (
{
horizontal = 1;
origin = (1,9);
target = (1,8);
type = Stem;
},
{
origin = (1,9);
target = (1,3);
type = Stem;
}
);
layerId = "B86D9C3C-D3FC-40C7-BC9B-EF4509240B31";
shapes = (
{
ref = N;
},
{
closed = 1;
nodes = (
(529,-230,o),
(597,-132,o),
(619,-23,cs),
(645,114,l),
(495,114,l),
(469,-19,ls),
(462,-56,o),
(442,-90,o),
(397,-90,c),
(369,-230,l),
(386,-230,l)
);
}
);
width = 654;
},
{
hints = (
{
horizontal = 1;
origin = (1,9);
target = (1,8);
type = Stem;
},
{
origin = (1,9);
target = (1,3);
type = Stem;
}
);
layerId = "20FD933E-5CCA-4ADC-839D-1BAE82A4B007";
shapes = (
{
alignment = -1;
ref = N;
},
{
closed = 1;
nodes = (
(551,-248,o),
(617,-142,o),
(640,-25,cs),
(666,107,l),
(489,107,l),
(464,-20,ls),
(458,-51,o),
(444,-84,o),
(401,-84,c),
(369,-248,l),
(388,-248,l)
);
}
);
width = 671;
}
);
unicode = 330;
},
{
glyphname = O;
kernLeft = COG;
kernRight = DOC;
lastChange = "2023-12-15 17:48:45 +0000";
layers = (
{
anchors = (
{
name = top;
pos = (561,692);
}
);
hints = (
{
horizontal = 1;
origin = (0,11);
target = (1,11);
type = Stem;
},
{
horizontal = 1;
origin = (0,5);
target = (1,5);
type = Stem;
},
{
place = (135, 71);
place = (135, 71);
type = Stem;
},
{
place = (776, 71);
place = (776, 71);
type = Stem;
}
);
layerId = m01;
shapes = (
{
closed = 1;
nodes = (
(609,-8,o),
(802,143,o),
(840,342,cs),
(878,536,o),
(752,691,o),
(558,691,cs),
(366,691,o),
(179,534,o),
(141,342,cs),
(104,151,o),
(231,-8,o),
(422,-8,cs)
);
},
{
closed = 1;
nodes = (
(281,62,o),
(181,187,o),
(211,342,cs),
(242,497,o),
(390,621,o),
(545,621,cs),
(700,621,o),
(801,497,o),
(770,342,cs),
(740,186,o),
(592,62,o),
(436,62,cs)
);
}
);
width = 789;
},
{
anchors = (
{
name = top;
pos = (548,689);
}
);
hints = (
{
horizontal = 1;
origin = (0,11);
target = (1,11);
type = Stem;
},
{
horizontal = 1;
origin = (0,5);
target = (1,5);
type = Stem;
},
{
place = (125, 153);
place = (125, 153);
type = Stem;
},
{
place = (684, 153);
place = (684, 153);
type = Stem;
}
);
layerId = "B86D9C3C-D3FC-40C7-BC9B-EF4509240B31";
shapes = (
{
closed = 1;
nodes = (
(601,-10,o),
(795,152,o),
(831,340,cs),
(868,528,o),
(737,690,o),
(549,690,cs),
(361,690,o),
(168,528,o),
(131,340,cs),
(95,152,o),
(225,-10,o),
(413,-10,cs)
);
},
{
closed = 1;
nodes = (
(337,140,o),
(261,236,o),
(281,341,cs),
(302,446,o),
(415,541,o),
(520,541,cs),
(625,541,o),
(702,446,o),
(681,341,cs),
(661,236,o),
(547,140,o),
(442,140,cs)
);
}
);
width = 770;
},
{
anchors = (
{
name = top;
pos = (544,688);
}
);
hints = (
{
horizontal = 1;
origin = (0,11);
target = (1,11);
type = Stem;
},
{
horizontal = 1;
origin = (1,5);
target = (0,5);
type = Stem;
},
{
place = (654, 180);
place = (654, 180);
type = Stem;
}
);
layerId = "20FD933E-5CCA-4ADC-839D-1BAE82A4B007";
shapes = (
{
closed = 1;
nodes = (
(598,-11,o),
(792,155,o),
(828,339,cs),
(864,525,o),
(732,690,o),
(546,690,cs),
(359,690,o),
(164,526,o),
(128,339,cs),
(92,152,o),
(223,-11,o),
(410,-11,cs)
);
},
{
closed = 1;
nodes = (
(356,166,o),
(287,252,o),
(304,341,cs),
(321,429,o),
(424,514,o),
(512,514,cs),
(600,514,o),
(668,429,o),
(651,341,cs),
(634,253,o),
(532,166,o),
(444,166,cs)
);
}
);
width = 764;
}
);
note = O;
unicode = 79;
},
{
glyphname = Oslash;
lastChange = "2023-12-15 17:48:45 +0000";
layers = (
{
hints = (
{
horizontal = 1;
origin = (0,23);
target = (1,9);
type = Stem;
},
{
horizontal = 1;
origin = (0,11);
target = (2,5);
type = Stem;
},
{
place = (135, 71);
place = (135, 71);
type = Stem;
},
{
place = (776, 71);
place = (776, 71);
type = Stem;
}
);
layerId = m01;
shapes = (
{
closed = 1;
nodes = (
(607,-8,o),
(801,140,o),
(840,342,cs),
(857,427,o),
(843,504,o),
(801,568,c),
(853,610,l),
(821,649,l),
(770,607,l),
(718,660,o),
(646,691,o),
(558,691,cs),
(358,691,o),
(177,527,o),
(141,342,cs),
(123,246,o),
(146,167,o),
(181,114,c),
(129,70,l),
(160,31,l),
(213,75,l),
(254,34,o),
(325,-8,o),
(422,-8,cs)
);
},
{
closed = 1;
nodes = (
(369,62,o),
(314,83,o),
(272,125,c),
(743,518,l),
(774,467,o),
(784,409,o),
(770,342,cs),
(740,186,o),
(592,62,o),
(436,62,cs)
);
},
{
closed = 1;
nodes = (
(208,214,o),
(198,274,o),
(211,342,cs),
(241,496,o),
(391,621,o),
(545,621,cs),
(613,621,o),
(669,600,o),
(711,557,c),
(241,164,l)
);
}
);
width = 789;
},
{
hints = (
{
horizontal = 1;
origin = (0,23);
target = (1,9);
type = Stem;
},
{
horizontal = 1;
origin = (0,11);
target = (2,5);
type = Stem;
},
{
horizontal = 1;
origin = (0,19);
target = up;
type = BottomGhost;
},
{
place = (125, 153);
place = (125, 153);
type = Stem;
},
{
place = (684, 153);
place = (684, 153);
type = Stem;
}
);
layerId = "B86D9C3C-D3FC-40C7-BC9B-EF4509240B31";
shapes = (
{
closed = 1;
nodes = (
(601,-10,o),
(795,152,o),
(831,340,cs),
(847,420,o),
(832,495,o),
(795,556,c),
(891,635,l),
(846,692,l),
(750,612,l),
(699,661,o),
(629,690,o),
(549,690,cs),
(361,690,o),
(168,528,o),
(131,340,cs),
(116,262,o),
(130,188,o),
(164,128,c),
(72,52,l),
(118,-4,l),
(209,71,l),
(260,21,o),
(331,-10,o),
(413,-10,cs)
);
},
{
closed = 1;
nodes = (
(402,140,o),
(366,154,o),
(338,177,c),
(667,450,l),
(683,418,o),
(689,380,o),
(681,341,cs),
(661,236,o),
(547,140,o),
(442,140,cs)
);
},
{
closed = 1;
nodes = (
(279,267,o),
(274,303,o),
(281,341,cs),
(302,446,o),
(415,541,o),
(520,541,cs),
(559,541,o),
(594,528,o),
(622,506,c),
(294,235,l)
);
}
);
width = 770;
},
{
hints = (
{
horizontal = 1;
origin = (0,23);
target = (1,9);
type = Stem;
},
{
horizontal = 1;
origin = (2,5);
target = (0,11);
type = Stem;
},
{
horizontal = 1;
origin = (0,19);
target = up;
type = BottomGhost;
},
{
place = (122, 182);
place = (122, 182);
type = Stem;
},
{
place = (654, 180);
place = (654, 180);
type = Stem;
}
);
layerId = "20FD933E-5CCA-4ADC-839D-1BAE82A4B007";
shapes = (
{
closed = 1;
nodes = (
(599,-11,o),
(792,156,o),
(828,339,cs),
(843,418,o),
(828,493,o),
(793,551,c),
(904,643,l),
(854,706,l),
(743,614,l),
(692,661,o),
(624,690,o),
(546,690,cs),
(362,690,o),
(165,528,o),
(128,339,cs),
(114,267,o),
(124,195,o),
(159,133,c),
(53,46,l),
(104,-16,l),
(208,70,l),
(262,16,o),
(333,-11,o),
(410,-11,cs)
);
},
{
closed = 1;
nodes = (
(413,166,o),
(384,178,o),
(360,195,c),
(642,427,l),
(653,401,o),
(657,370,o),
(651,341,cs),
(634,253,o),
(532,166,o),
(444,166,cs)
);
},
{
closed = 1;
nodes = (
(303,284,o),
(299,313,o),
(304,341,cs),
(321,429,o),
(423,514,o),
(512,514,cs),
(541,514,o),
(569,504,o),
(592,489,c),
(311,259,l)
);
}
);
width = 764;
}
);
note = Oslash;
unicode = 216;
},
{
glyphname = OE;
kernLeft = COG;
lastChange = "2023-12-15 17:48:45 +0000";
layers = (
{
hints = (
{
horizontal = 1;
origin = (0,16);
target = (0,2);
type = Stem;
},
{
horizontal = 1;
origin = (0,3);
target = (0,6);
type = Stem;
},
{
horizontal = 1;
origin = (0,10);
target = (0,7);
type = Stem;
},
{
horizontal = 1;
origin = (0,16);
target = (1,8);
type = Stem;
},
{
horizontal = 1;
origin = (0,10);
target = (1,5);
type = Stem;
},
{
place = (164, 70);
place = (164, 70);
type = Stem;
}
);
layerId = m01;
shapes = (
{
closed = 1;
nodes = (
(967,0,l),
(980,65,l),
(646,65,l),
(693,307,l),
(1017,307,l),
(1030,373,l),
(706,373,l),
(753,615,l),
(1087,615,l),
(1099,680,l),
(587,680,ls),
(391,680,o),
(209,536,o),
(171,340,cs),
(132,140,o),
(263,0,o),
(455,0,c)
);
},
{
closed = 1;
nodes = (
(310,70,o),
(209,183,o),
(239,340,cs),
(270,497,o),
(415,610,o),
(572,610,cs),
(682,610,l),
(577,70,l),
(467,70,ls)
);
}
);
width = 998;
},
{
hints = (
{
horizontal = 1;
origin = (0,16);
target = (0,2);
type = Stem;
},
{
horizontal = 1;
origin = (0,3);
target = (0,6);
type = Stem;
},
{
horizontal = 1;
origin = (0,10);
target = (0,7);
type = Stem;
},
{
horizontal = 1;
origin = (0,16);
target = (1,8);
type = Stem;
},
{
horizontal = 1;
origin = (0,10);
target = (1,5);
type = Stem;
},
{
place = (149, 156);
place = (149, 156);
type = Stem;
}
);
layerId = "B86D9C3C-D3FC-40C7-BC9B-EF4509240B31";
shapes = (
{
closed = 1;
nodes = (
(875,0,l),
(901,136,l),
(657,136,l),
(684,273,l),
(918,273,l),
(945,409,l),
(711,409,l),
(737,544,l),
(981,544,l),
(1007,680,l),
(560,680,l),
(368,680,o),
(193,532,o),
(156,340,cs),
(119,148,o),
(235,0,o),
(428,0,c)
);
},
{
closed = 1;
nodes = (
(349,138,o),
(287,227,o),
(309,340,cs),
(331,453,o),
(426,541,o),
(542,541,cs),
(587,541,l),
(509,138,l),
(464,138,ls)
);
}
);
width = 905;
},
{
hints = (
{
horizontal = 1;
origin = (0,16);
target = (0,2);
type = Stem;
},
{
horizontal = 1;
origin = (0,3);
target = (0,6);
type = Stem;
},
{
horizontal = 1;
origin = (0,10);
target = (0,7);
type = Stem;
},
{
horizontal = 1;
origin = (0,16);
target = (1,8);
type = Stem;
},
{
horizontal = 1;
origin = (0,10);
target = (1,5);
type = Stem;
},
{
place = (144, 184);
place = (144, 184);
type = Stem;
}
);
layerId = "20FD933E-5CCA-4ADC-839D-1BAE82A4B007";
shapes = (
{
closed = 1;
nodes = (
(844,0,l),
(875,160,l),
(661,160,l),
(681,262,l),
(885,262,l),
(916,421,l),
(712,421,l),
(731,520,l),
(945,520,l),
(976,680,l),
(551,680,ls),
(360,680,o),
(188,531,o),
(151,340,cs),
(114,151,o),
(226,0,o),
(419,0,c)
);
},
{
closed = 1;
nodes = (
(362,161,o),
(313,242,o),
(332,340,cs),
(351,438,o),
(430,518,o),
(533,518,cs),
(556,518,l),
(486,161,l),
(463,161,ls)
);
}
);
width = 874;
}
);
note = OE;
unicode = 338;
},
{
glyphname = P;
lastChange = "2023-12-15 17:48:45 +0000";
layers = (
{
hints = (
{
horizontal = 1;
origin = (0,10);
target = up;
type = BottomGhost;
},
{
horizontal = 1;
origin = (0,1);
target = (1,8);
type = Stem;
},
{
horizontal = 1;
origin = (0,9);
target = (1,0);
type = Stem;
},
{
place = (565, 70);
place = (565, 70);
type = Stem;
}
);
layerId = m01;
shapes = (
{
closed = 1;
nodes = (
(175,0,l),
(227,269,l),
(375,269,ls),
(496,269,o),
(608,355,o),
(631,475,cs),
(655,598,o),
(573,680,o),
(455,680,cs),
(237,680,l),
(105,0,l)
);
},
{
closed = 1;
nodes = (
(294,613,l),
(452,613,ls),
(535,613,o),
(577,558,o),
(562,477,cs),
(546,398,o),
(479,337,o),
(399,337,cs),
(241,337,l)
);
}
);
width = 529;
},
{
hints = (
{
horizontal = 1;
origin = (0,10);
target = up;
type = BottomGhost;
},
{
horizontal = 1;
origin = (0,1);
target = (1,8);
type = Stem;
},
{
horizontal = 1;
origin = (0,9);
target = (1,0);
type = Stem;
}
);
layerId = "B86D9C3C-D3FC-40C7-BC9B-EF4509240B31";
shapes = (
{
closed = 1;
nodes = (
(240,0,l),
(287,243,l),
(419,243,ls),
(529,243,o),
(643,324,o),
(670,462,cs),
(695,591,o),
(614,680,o),
(504,680,c),
(222,680,l),
(90,0,l)
);
},
{
closed = 1;
nodes = (
(349,562,l),
(449,562,ls),
(493,562,o),
(532,524,o),
(520,462,cs),
(507,397,o),
(454,361,o),
(410,361,cs),
(310,361,l)
);
}
);
width = 575;
},
{
hints = (
{
horizontal = 1;
origin = (0,10);
target = up;
type = BottomGhost;
},
{
horizontal = 1;
origin = (0,1);
target = (1,8);
type = Stem;
},
{
horizontal = 1;
origin = (0,9);
target = (1,0);
type = Stem;
}
);
layerId = "20FD933E-5CCA-4ADC-839D-1BAE82A4B007";
shapes = (
{
closed = 1;
nodes = (
(262,0,l),
(307,234,l),
(433,234,ls),
(540,234,o),
(655,314,o),
(683,458,cs),
(708,589,o),
(628,680,o),
(520,680,cs),
(217,680,l),
(85,0,l)
);
},
{
closed = 1;
nodes = (
(368,545,l),
(448,545,ls),
(479,545,o),
(517,513,o),
(506,457,cs),
(494,397,o),
(446,369,o),
(414,369,cs),
(334,369,l)
);
}
);
width = 590;
}
);
note = P;
unicode = 80;
},
{
glyphname = Thorn;
lastChange = "2023-12-15 17:48:45 +0000";
layers = (
{
hints = (
{
horizontal = 1;
origin = (0,12);
target = up;
type = BottomGhost;
},
{
horizontal = 1;
origin = (0,1);
target = (1,8);
type = Stem;
},
{
horizontal = 1;
origin = (0,11);
target = (1,0);
type = Stem;
},
{
horizontal = 1;
origin = (1,0);
target = (0,9);
type = Stem;
},
{
place = (545, 71);
place = (545, 71);
type = Stem;
}
);
layerId = m01;
shapes = (
{
closed = 1;
nodes = (
(175,0,l),
(208,169,l),
(356,169,ls),
(478,169,o),
(589,256,o),
(612,375,cs),
(636,499,o),
(553,580,o),
(436,580,cs),
(288,580,l),
(307,680,l),
(237,680,l),
(105,0,l)
);
},
{
closed = 1;
nodes = (
(275,513,l),
(433,513,ls),
(516,513,o),
(558,457,o),
(542,377,cs),
(527,299,o),
(461,237,o),
(379,237,cs),
(221,237,l)
);
}
);
width = 529;
},
{
hints = (
{
horizontal = 1;
origin = (0,12);
target = up;
type = BottomGhost;
},
{
horizontal = 1;
origin = (0,1);
target = (1,8);
type = Stem;
},
{
horizontal = 1;
origin = (1,0);
target = (0,9);
type = Stem;
}
);
layerId = "B86D9C3C-D3FC-40C7-BC9B-EF4509240B31";
shapes = (
{
closed = 1;
nodes = (
(240,0,l),
(274,173,l),
(379,173,ls),
(489,173,o),
(602,254,o),
(629,392,cs),
(654,521,o),
(574,610,o),
(464,610,cs),
(359,610,l),
(386,750,l),
(236,750,l),
(90,0,l)
);
},
{
closed = 1;
nodes = (
(336,492,l),
(416,492,ls),
(460,492,o),
(498,454,o),
(486,392,cs),
(474,327,o),
(421,291,o),
(377,291,cs),
(297,291,l)
);
}
);
width = 538;
},
{
hints = (
{
horizontal = 1;
origin = (0,12);
target = up;
type = BottomGhost;
},
{
horizontal = 1;
origin = (0,1);
target = (1,8);
type = Stem;
},
{
horizontal = 1;
origin = (1,0);
target = (0,9);
type = Stem;
}
);
layerId = "20FD933E-5CCA-4ADC-839D-1BAE82A4B007";
shapes = (
{
closed = 1;
nodes = (
(262,0,l),
(296,174,l),
(386,174,ls),
(492,174,o),
(607,253,o),
(635,398,cs),
(661,528,o),
(581,620,o),
(473,620,cs),
(383,620,l),
(412,773,l),
(235,773,l),
(85,0,l)
);
},
{
closed = 1;
nodes = (
(356,485,l),
(410,485,ls),
(441,485,o),
(478,453,o),
(467,397,cs),
(455,336,o),
(407,309,o),
(376,309,cs),
(322,309,l)
);
}
);
width = 541;
}
);
note = Thorn;
unicode = 222;
},
{
glyphname = Q;
kernLeft = COG;
lastChange = "2023-12-15 17:48:45 +0000";
layers = (
{
background = {
shapes = (
{
closed = 1;
nodes = (
(744,387,o),
(734.83,432.33,o),
(716.5,475,cs),
(698.17,517.67,o),
(673.17,554.83,o),
(641.5,586.5,cs),
(609.83,618.17,o),
(572.67,643.17,o),
(530,661.5,cs),
(487.33,679.83,o),
(442,689,o),
(394,689,cs),
(346,689,o),
(300.83,679.83,o),
(258.5,661.5,cs),
(216.17,643.17,o),
(179.17,618.17,o),
(147.5,586.5,cs),
(115.83,554.83,o),
(90.83,517.67,o),
(72.5,475,cs),
(54.17,432.33,o),
(45,387,o),
(45,339,cs),
(45,291,o),
(54.17,245.83,o),
(72.5,203.5,cs),
(90.83,161.17,o),
(115.83,124.17,o),
(147.5,92.5,cs),
(179.17,60.83,o),
(216.17,35.83,o),
(258.5,17.5,cs),
(300.83,-0.83,o),
(346,-10,o),
(394,-10,cs),
(422.95,-10,o),
(450.92,-6.67,o),
(477.93,0,c),
(754,0,l),
(754,57,l),
(652,57,l),
(627.5,51.51,o),
(601.28,45.7,o),
(573.36,39.55,c),
(598.36,54.43,o),
(621.07,72.08,o),
(641.5,92.5,cs),
(673.17,124.17,o),
(698.17,161.17,o),
(716.5,203.5,cs),
(734.83,245.83,o),
(744,291,o),
(744,339,cs)
);
},
{
closed = 1;
nodes = (
(674,262.33,o),
(646.67,196.67,o),
(592,142,cs),
(537.33,87.33,o),
(471.33,60,o),
(394,60,cs),
(317.33,60,o),
(251.67,87.33,o),
(197,142,cs),
(142.33,196.67,o),
(115,262.33,o),
(115,339,cs),
(115,416.33,o),
(142.33,482.33,o),
(197,537,cs),
(251.67,591.67,o),
(317.33,619,o),
(394,619,cs),
(471.33,619,o),
(537.33,591.67,o),
(592,537,cs),
(646.67,482.33,o),
(674,416.33,o),
(674,339,cs)
);
}
);
};
hints = (
{
horizontal = 1;
origin = (0,11);
target = (2,11);
type = Stem;
},
{
horizontal = 1;
origin = (0,5);
target = (2,5);
type = Stem;
},
{
horizontal = 1;
origin = (1,3);
target = up;
type = BottomGhost;
},
{
horizontal = 1;
place = (-3, 100);
place = (-3, 100);
type = Stem;
},
{
place = (135, 71);
place = (135, 71);
type = Stem;
},
{
place = (776, 71);
place = (776, 71);
type = Stem;
}
);
layerId = m01;
shapes = (
{
closed = 1;
nodes = (
(609,-8,o),
(802,143,o),
(840,342,cs),
(878,536,o),
(752,691,o),
(558,691,cs),
(366,691,o),
(179,534,o),
(141,342,cs),
(104,151,o),
(231,-8,o),
(422,-8,cs)
);
},
{
closed = 1;
nodes = (
(767,-3,l),
(566,265,l),
(471,265,l),
(674,-3,l)
);
},
{
closed = 1;
nodes = (
(281,62,o),
(181,187,o),
(211,342,cs),
(242,497,o),
(390,621,o),
(545,621,cs),
(700,621,o),
(801,497,o),
(770,342,cs),
(740,186,o),
(592,62,o),
(436,62,cs)
);
}
);
width = 784;
},
{
background = {
shapes = (
{
closed = 1;
nodes = (
(585,236,o),
(490,140,o),
(385,140,cs),
(280,140,o),
(185,236,o),
(185,341,cs),
(185,446,o),
(280,541,o),
(385,541,cs),
(490,541,o),
(585,446,o),
(585,341,cs)
);
},
{
closed = 1;
nodes = (
(620.99,85.33,l),
(690.46,150,o),
(735,241.43,o),
(735,340,cs),
(735,528,o),
(573,690,o),
(385,690,cs),
(197,690,o),
(35,528,o),
(35,340,cs),
(35,152,o),
(197,-10,o),
(385,-10,cs),
(412.54,-10,o),
(439.52,-6.52,o),
(465.51,0,c),
(775,0,l),
(775,119,l),
(694,119,l)
);
}
);
};
hints = (
{
horizontal = 1;
origin = (0,11);
target = (2,11);
type = Stem;
},
{
horizontal = 1;
origin = (0,5);
target = (2,5);
type = Stem;
},
{
horizontal = 1;
origin = (1,3);
target = up;
type = BottomGhost;
},
{
horizontal = 1;
place = (0, 130);
place = (0, 130);
type = Stem;
},
{
place = (125, 153);
place = (125, 153);
type = Stem;
},
{
place = (684, 153);
place = (684, 153);
type = Stem;
}
);
layerId = "B86D9C3C-D3FC-40C7-BC9B-EF4509240B31";
shapes = (
{
closed = 1;
nodes = (
(601,-10,o),
(795,152,o),
(831,340,cs),
(868,528,o),
(737,690,o),
(549,690,cs),
(361,690,o),
(168,528,o),
(131,340,cs),
(95,152,o),
(225,-10,o),
(413,-10,cs)
);
},
{
closed = 1;
nodes = (
(806,0,l),
(595,310,l),
(422,310,l),
(633,0,l)
);
},
{
closed = 1;
nodes = (
(337,140,o),
(261,236,o),
(281,341,cs),
(302,446,o),
(415,541,o),
(520,541,cs),
(625,541,o),
(702,446,o),
(681,341,cs),
(661,236,o),
(547,140,o),
(442,140,cs)
);
}
);
width = 786;
},
{
hints = (
{
horizontal = 1;
origin = (0,11);
target = (2,11);
type = Stem;
},
{
horizontal = 1;
origin = (2,5);
target = (0,5);
type = Stem;
},
{
horizontal = 1;
origin = (1,3);
target = up;
type = BottomGhost;
},
{
horizontal = 1;
place = (1, 142);
place = (1, 142);
type = Stem;
},
{
horizontal = 1;
origin = (1,3);
target = (1,2);
type = Stem;
},
{
place = (654, 180);
place = (654, 180);
type = Stem;
}
);
layerId = "20FD933E-5CCA-4ADC-839D-1BAE82A4B007";
shapes = (
{
closed = 1;
nodes = (
(598,-11,o),
(792,155,o),
(828,339,cs),
(864,525,o),
(732,690,o),
(546,690,cs),
(359,690,o),
(164,526,o),
(128,339,cs),
(92,152,o),
(223,-11,o),
(410,-11,cs)
);
},
{
closed = 1;
nodes = (
(819,1,l),
(605,325,l),
(406,325,l),
(619,1,l)
);
},
{
closed = 1;
nodes = (
(356,166,o),
(287,252,o),
(304,341,cs),
(321,429,o),
(424,514,o),
(512,514,cs),
(600,514,o),
(668,429,o),
(651,341,cs),
(634,253,o),
(532,166,o),
(444,166,cs)
);
}
);
width = 787;
}
);
note = Q;
unicode = 81;
},
{
glyphname = R;
lastChange = "2023-12-15 17:48:45 +0000";
layers = (
{
anchors = (
{
name = bottom;
pos = (293,10);
},
{
name = top;
pos = (408,680);
}
);
hints = (
{
horizontal = 1;
origin = (0,13);
target = up;
type = BottomGhost;
},
{
horizontal = 1;
origin = (0,1);
target = (1,8);
type = Stem;
},
{
horizontal = 1;
origin = (0,12);
target = (1,0);
type = Stem;
},
{
horizontal = 1;
origin = (0,5);
target = (1,8);
type = Stem;
},
{
place = (565, 70);
place = (565, 70);
type = Stem;
}
);
layerId = m01;
shapes = (
{
closed = 1;
nodes = (
(175,0,l),
(227,269,l),
(309,269,l),
(456,0,l),
(550,0,l),
(393,270,l),
(504,277,o),
(609,358,o),
(631,475,cs),
(654,593,o),
(577,680,o),
(455,680,cs),
(237,680,l),
(105,0,l)
);
},
{
closed = 1;
nodes = (
(294,613,l),
(452,613,ls),
(537,613,o),
(577,555,o),
(562,477,cs),
(547,401,o),
(481,336,o),
(398,336,cs),
(240,336,l)
);
}
);
width = 544;
},
{
anchors = (
{
name = bottom;
pos = (305,12);
},
{
name = top;
pos = (429,680);
}
);
hints = (
{
horizontal = 1;
origin = (0,13);
target = up;
type = BottomGhost;
},
{
horizontal = 1;
origin = (0,1);
target = (1,8);
type = Stem;
},
{
horizontal = 1;
origin = (0,12);
target = (1,0);
type = Stem;
}
);
layerId = "B86D9C3C-D3FC-40C7-BC9B-EF4509240B31";
shapes = (
{
closed = 1;
nodes = (
(240,0,l),
(287,243,l),
(308,243,l),
(436,0,l),
(603,0,l),
(469,250,l),
(567,275,o),
(647,347,o),
(670,462,cs),
(695,591,o),
(607,680,o),
(497,680,c),
(222,680,l),
(90,0,l)
);
},
{
closed = 1;
nodes = (
(349,562,l),
(449,562,ls),
(493,562,o),
(532,524,o),
(520,462,cs),
(507,397,o),
(454,361,o),
(410,361,cs),
(310,361,l)
);
}
);
width = 573;
},
{
anchors = (
{
name = bottom;
pos = (310,13);
},
{
name = top;
pos = (436,680);
}
);
hints = (
{
horizontal = 1;
origin = (0,13);
target = up;
type = BottomGhost;
},
{
horizontal = 1;
origin = (0,12);
target = (1,0);
type = Stem;
}
);
layerId = "20FD933E-5CCA-4ADC-839D-1BAE82A4B007";
shapes = (
{
closed = 1;
nodes = (
(262,0,l),
(307,234,l),
(307,234,l),
(429,0,l),
(621,0,l),
(493,243,l),
(588,274,o),
(661,343,o),
(683,458,cs),
(709,590,o),
(617,680,o),
(511,680,cs),
(217,680,l),
(85,0,l)
);
},
{
closed = 1;
nodes = (
(368,545,l),
(448,545,ls),
(479,545,o),
(517,514,o),
(506,457,cs),
(494,396,o),
(445,369,o),
(414,369,cs),
(334,369,l)
);
}
);
width = 583;
}
);
note = R;
unicode = 82;
},
{
glyphname = S;
lastChange = "2023-12-15 17:48:45 +0000";
layers = (
{
anchors = (
{
name = bottom;
pos = (326,-13);
},
{
name = top;
pos = (446,690);
}
);
hints = (
{
horizontal = 1;
origin = (0,37);
target = (0,30);
type = Stem;
},
{
horizontal = 1;
origin = (0,18);
target = (0,11);
type = Stem;
}
);
layerId = m01;
shapes = (
{
closed = 1;
nodes = (
(454,-13,o),
(587,46,o),
(614,187,cs),
(638,307,o),
(546,346,o),
(435,376,cs),
(356,397,o),
(240,423,o),
(259,517,cs),
(273,594,o),
(348,630,o),
(433,630,cs),
(526,630,o),
(574,601,o),
(576,542,c),
(651,542,l),
(646,641,o),
(577,690,o),
(445,690,cs),
(322,690,o),
(208,628,o),
(183,499,cs),
(166,412,o),
(224,353,o),
(356,321,cs),
(432,302,o),
(559,271,o),
(541,182,cs),
(523,85,o),
(434,51,o),
(339,51,cs),
(232,51,o),
(180,87,o),
(181,159,c),
(98,159,l),
(100,44,o),
(175,-13,o),
(326,-13,cs)
);
}
);
width = 574;
},
{
anchors = (
{
name = bottom;
pos = (345,-16);
},
{
name = top;
pos = (472,690);
}
);
hints = (
{
horizontal = 1;
origin = (0,37);
target = (0,30);
type = Stem;
},
{
horizontal = 1;
origin = (0,18);
target = (0,11);
type = Stem;
}
);
layerId = "B86D9C3C-D3FC-40C7-BC9B-EF4509240B31";
shapes = (
{
closed = 1;
nodes = (
(484,-16,o),
(638,43,o),
(669,203,cs),
(698,349,o),
(580,385,o),
(476,411,cs),
(395,430,o),
(323,443,o),
(333,496,cs),
(343,547,o),
(406,567,o),
(448,567,cs),
(523,567,o),
(560,544,o),
(554,473,c),
(699,473,l),
(724,628,o),
(610,690,o),
(470,690,cs),
(346,690,o),
(203,624,o),
(176,484,cs),
(150,350,o),
(255,312,o),
(353,285,cs),
(440,262,o),
(523,248,o),
(511,186,cs),
(499,125,o),
(422,106,o),
(375,106,cs),
(301,106,o),
(244,143,o),
(256,224,c),
(104,224,l),
(72,58,o),
(195,-16,o),
(345,-16,cs)
);
}
);
width = 630;
},
{
anchors = (
{
name = bottom;
pos = (351,-17);
},
{
name = top;
pos = (481,690);
}
);
hints = (
{
horizontal = 1;
origin = (0,37);
target = (0,30);
type = Stem;
},
{
horizontal = 1;
origin = (0,11);
target = (0,18);
type = Stem;
},
{
horizontal = 1;
origin = (0,37);
target = (0,34);
type = Stem;
},
{
place = (98, 180);
place = (98, 180);
type = Stem;
},
{
place = (546, 174);
place = (546, 174);
type = Stem;
},
{
place = (170, 108);
place = (170, 108);
type = Stem;
}
);
layerId = "20FD933E-5CCA-4ADC-839D-1BAE82A4B007";
shapes = (
{
closed = 1;
nodes = (
(494,-17,o),
(655,42,o),
(687,208,cs),
(718,363,o),
(591,398,o),
(489,423,cs),
(408,441,o),
(350,450,o),
(358,489,cs),
(366,531,o),
(425,546,o),
(453,546,cs),
(522,546,o),
(555,525,o),
(546,450,c),
(714,450,l),
(750,624,o),
(621,690,o),
(478,690,cs),
(354,690,o),
(202,623,o),
(174,479,cs),
(145,329,o),
(265,298,o),
(352,273,cs),
(442,249,o),
(512,240,o),
(501,187,cs),
(492,138,o),
(417,124,o),
(386,124,cs),
(323,124,o),
(265,162,o),
(281,246,c),
(106,246,l),
(63,63,o),
(202,-17,o),
(351,-17,cs)
);
}
);
width = 649;
}
);
note = S;
unicode = 83;
},
{
glyphname = Germandbls;
lastChange = "2023-12-15 17:48:45 +0000";
layers = (
{
hints = (
{
horizontal = 1;
origin = (0,33);
target = (0,16);
type = Stem;
},
{
horizontal = 1;
origin = (0,32);
target = (0,1);
type = Stem;
}
);
layerId = m01;
shapes = (
{
closed = 1;
nodes = (
(170,0,l),
(289,614,l),
(527,614,l),
(365,406,l),
(362,403,o),
(356,392,o),
(354,383,c),
(350,358,o),
(371,347,o),
(392,344,cs),
(477,330,o),
(522,279,o),
(509,212,cs),
(492,123,o),
(426,67,o),
(338,67,cs),
(219,67,l),
(206,0,l),
(325,0,ls),
(457,0,o),
(554,78,o),
(579,205,cs),
(599,310,o),
(556,387,o),
(446,406,c),
(566,560,l),
(584,582,o),
(602,612,o),
(606,633,cs),
(611,658,o),
(593,680,o),
(563,680,c),
(232,680,l),
(100,0,l)
);
}
);
width = 569;
},
{
hints = (
{
horizontal = 1;
origin = (0,33);
target = (0,16);
type = Stem;
},
{
horizontal = 1;
origin = (0,32);
target = (0,1);
type = Stem;
},
{
place = (502, 151);
place = (502, 151);
type = Stem;
}
);
layerId = "B86D9C3C-D3FC-40C7-BC9B-EF4509240B31";
shapes = (
{
closed = 1;
nodes = (
(240,0,l),
(346,547,l),
(491,547,l),
(391,426,l),
(375,410,o),
(362,383,o),
(356,351,cs),
(350,320,o),
(368,288,o),
(410,281,cs),
(456,274,o),
(510,243,o),
(502,199,cs),
(492,149,o),
(441,135,o),
(401,135,cs),
(301,135,l),
(275,0,l),
(405,0,ls),
(527,0,o),
(626,78,o),
(649,195,cs),
(667,287,o),
(630,375,o),
(510,402,c),
(594,505,l),
(613,524,o),
(647,572,o),
(654,607,cs),
(663,654,o),
(636,680,o),
(580,680,c),
(222,680,l),
(90,0,l)
);
}
);
width = 631;
},
{
hints = (
{
horizontal = 1;
origin = (0,33);
target = (0,16);
type = Stem;
},
{
horizontal = 1;
origin = (0,32);
target = (0,1);
type = Stem;
},
{
place = (499, 177);
place = (499, 177);
type = Stem;
}
);
layerId = "20FD933E-5CCA-4ADC-839D-1BAE82A4B007";
shapes = (
{
closed = 1;
nodes = (
(263,0,l),
(365,525,l),
(479,525,l),
(399,433,l),
(379,412,o),
(365,380,o),
(357,340,c),
(351,307,o),
(367,268,o),
(416,260,cs),
(450,255,o),
(506,231,o),
(499,195,cs),
(492,158,o),
(447,158,o),
(423,158,cs),
(329,158,l),
(298,0,l),
(432,0,ls),
(550,0,o),
(650,78,o),
(672,192,cs),
(689,279,o),
(654,371,o),
(532,401,c),
(604,487,l),
(622,505,o),
(663,559,o),
(670,598,cs),
(681,653,o),
(650,680,o),
(586,680,c),
(219,680,l),
(87,0,l)
);
}
);
width = 652;
}
);
unicode = 7838;
},
{
glyphname = T;
lastChange = "2023-12-15 17:48:45 +0000";
layers = (
{
anchors = (
{
name = bottom;
pos = (291,5);
},
{
name = top;
pos = (423,680);
}
);
hints = (
{
horizontal = 1;
origin = (0,4);
target = (0,5);
type = Stem;
}
);
layerId = m01;
shapes = (
{
closed = 1;
nodes = (
(325,2,l),
(445,617,l),
(650,617,l),
(663,682,l),
(183,682,l),
(170,617,l),
(375,617,l),
(255,2,l)
);
}
);
width = 520;
},
{
anchors = (
{
name = bottom;
pos = (333,0);
},
{
name = top;
pos = (461,678);
}
);
hints = (
{
horizontal = 1;
origin = (0,7);
target = up;
type = BottomGhost;
},
{
horizontal = 1;
origin = (0,4);
target = (0,5);
type = Stem;
}
);
layerId = "B86D9C3C-D3FC-40C7-BC9B-EF4509240B31";
shapes = (
{
closed = 1;
nodes = (
(404,0,l),
(510,544,l),
(714,544,l),
(740,680,l),
(182,680,l),
(156,544,l),
(360,544,l),
(254,0,l)
);
}
);
width = 598;
},
{
anchors = (
{
name = bottom;
pos = (347,-2);
},
{
name = top;
pos = (474,677);
}
);
hints = (
{
horizontal = 1;
origin = (0,7);
target = up;
type = BottomGhost;
},
{
horizontal = 1;
origin = (0,5);
target = (0,4);
type = Stem;
}
);
layerId = "20FD933E-5CCA-4ADC-839D-1BAE82A4B007";
shapes = (
{
closed = 1;
nodes = (
(430,-1,l),
(531,520,l),
(735,520,l),
(766,679,l),
(182,679,l),
(151,520,l),
(355,520,l),
(254,-1,l)
);
}
);
width = 624;
}
);
note = T;
unicode = 84;
},
{
glyphname = U;
lastChange = "2023-12-15 17:48:45 +0000";
layers = (
{
anchors = (
{
name = ogonek;
pos = (406,1);
},
{
name = top;
pos = (472,666);
}
);
hints = (
{
horizontal = 1;
origin = (0,17);
target = (0,8);
type = Stem;
},
{
horizontal = 1;
origin = (0,13);
target = down;
type = TopGhost;
},
{
place = (128, 70);
place = (128, 70);
type = Stem;
}
);
layerId = m01;
shapes = (
{
closed = 1;
nodes = (
(493,-9,o),
(612,77,o),
(641,225,cs),
(729,680,l),
(659,680,l),
(569,215,ls),
(549,114,o),
(465,61,o),
(356,61,cs),
(251,61,o),
(181,110,o),
(202,215,cs),
(292,680,l),
(222,680,l),
(134,225,ls),
(105,77,o),
(190,-9,o),
(342,-9,cs)
);
}
);
width = 627;
},
{
anchors = (
{
name = ogonek;
pos = (423,2);
},
{
name = top;
pos = (485,666);
}
);
hints = (
{
horizontal = 1;
origin = (0,17);
target = (0,8);
type = Stem;
},
{
horizontal = 1;
origin = (0,13);
target = down;
type = TopGhost;
},
{
place = (119, 156);
place = (119, 156);
type = Stem;
}
);
layerId = "B86D9C3C-D3FC-40C7-BC9B-EF4509240B31";
shapes = (
{
closed = 1;
nodes = (
(531,-10,o),
(653,84,o),
(689,265,cs),
(769,680,l),
(619,680,l),
(543,287,ls),
(525,193,o),
(486,140,o),
(383,140,cs),
(281,140,o),
(263,193,o),
(281,287,cs),
(357,680,l),
(207,680,l),
(127,265,ls),
(91,84,o),
(177,-10,o),
(354,-10,cs)
);
}
);
width = 652;
},
{
anchors = (
{
name = ogonek;
pos = (429,2);
},
{
name = top;
pos = (489,666);
}
);
hints = (
{
horizontal = 1;
origin = (0,17);
target = (0,8);
type = Stem;
},
{
horizontal = 1;
origin = (0,13);
target = down;
type = TopGhost;
},
{
place = (116, 183);
place = (116, 183);
type = Stem;
}
);
layerId = "20FD933E-5CCA-4ADC-839D-1BAE82A4B007";
shapes = (
{
closed = 1;
nodes = (
(544,-10,o),
(667,86,o),
(704,278,cs),
(782,680,l),
(606,680,l),
(534,311,ls),
(517,219,o),
(493,166,o),
(392,166,cs),
(291,166,o),
(290,221,o),
(307,311,cs),
(379,680,l),
(202,680,l),
(124,278,ls),
(87,86,o),
(173,-10,o),
(358,-10,cs)
);
}
);
width = 660;
}
);
note = U;
unicode = 85;
},
{
glyphname = V;
kernLeft = VWY;
kernRight = VWY;
lastChange = "2023-12-15 17:48:45 +0000";
layers = (
{
hints = (
{
horizontal = 1;
origin = (0,6);
target = down;
type = TopGhost;
}
);
layerId = m01;
shapes = (
{
closed = 1;
nodes = (
(369,3,l),
(789,680,l),
(713,680,l),
(357,103,l),
(381,103,l),
(248,680,l),
(172,680,l),
(331,3,l)
);
}
);
width = 637;
},
{
hints = (
{
horizontal = 1;
origin = (0,7);
target = up;
type = BottomGhost;
},
{
horizontal = 1;
origin = (0,6);
target = down;
type = TopGhost;
}
);
layerId = "B86D9C3C-D3FC-40C7-BC9B-EF4509240B31";
shapes = (
{
closed = 1;
nodes = (
(439,0,l),
(846,680,l),
(684,680,l),
(376,128,l),
(422,128,l),
(329,680,l),
(167,680,l),
(310,0,l)
);
}
);
width = 689;
},
{
hints = (
{
horizontal = 1;
origin = (0,7);
target = up;
type = BottomGhost;
},
{
horizontal = 1;
origin = (0,6);
target = down;
type = TopGhost;
}
);
layerId = "20FD933E-5CCA-4ADC-839D-1BAE82A4B007";
shapes = (
{
closed = 1;
nodes = (
(463,-1,l),
(865,680,l),
(674,680,l),
(382,136,l),
(435,136,l),
(356,680,l),
(165,680,l),
(303,-1,l)
);
}
);
width = 706;
}
);
note = V;
unicode = 86;
},
{
glyphname = W;
kernLeft = VWY;
kernRight = VWY;
lastChange = "2023-12-15 17:48:45 +0000";
layers = (
{
anchors = (
{
name = top;
pos = (572,682);
}
);
hints = (
{
horizontal = 1;
origin = (0,15);
target = up;
type = BottomGhost;
},
{
horizontal = 1;
origin = (0,14);
target = down;
type = TopGhost;
},
{
place = (194.5, 69);
place = (194.5, 69);
type = Stem;
}
);
layerId = m01;
shapes = (
{
closed = 1;
nodes = (
(236,0,l),
(558,566,l),
(536,566,l),
(638,0,l),
(672,0,l),
(950,680,l),
(879,680,l),
(664,155,l),
(683,157,l),
(585,677,l),
(553,677,l),
(252,157,l),
(269,155,l),
(259,680,l),
(187,680,l),
(202,0,l)
);
}
);
width = 813;
},
{
anchors = (
{
name = top;
pos = (637,683);
}
);
hints = (
{
horizontal = 1;
origin = (0,15);
target = up;
type = BottomGhost;
},
{
horizontal = 1;
origin = (0,14);
target = down;
type = TopGhost;
}
);
layerId = "B86D9C3C-D3FC-40C7-BC9B-EF4509240B31";
shapes = (
{
closed = 1;
nodes = (
(360,0,l),
(626,542,l),
(588,542,l),
(643,0,l),
(821,0,l),
(1085,680,l),
(920,680,l),
(725,144,l),
(754,146,l),
(707,680,l),
(560,680,l),
(305,146,l),
(334,144,l),
(347,680,l),
(182,680,l),
(182,0,l)
);
}
);
width = 943;
},
{
anchors = (
{
name = top;
pos = (659,683);
}
);
hints = (
{
horizontal = 1;
origin = (0,15);
target = up;
type = BottomGhost;
},
{
horizontal = 1;
origin = (0,10);
target = down;
type = TopGhost;
},
{
horizontal = 1;
origin = (0,14);
target = down;
type = TopGhost;
},
{
place = (177.5, 189.5);
place = (177.5, 189.5);
type = Stem;
}
);
layerId = "20FD933E-5CCA-4ADC-839D-1BAE82A4B007";
shapes = (
{
closed = 1;
nodes = (
(401,0,l),
(649,534,l),
(606,534,l),
(645,0,l),
(871,0,l),
(1130,680,l),
(934,680,l),
(745,140,l),
(779,142,l),
(748,681,l),
(562,681,l),
(324,142,l),
(355,140,l),
(376,680,l),
(180,680,l),
(175,0,l)
);
}
);
width = 986;
}
);
note = W;
unicode = 87;
},
{
glyphname = X;
lastChange = "2023-12-15 17:48:45 +0000";
layers = (
{
hints = (
{
horizontal = 1;
origin = (0,11);
target = up;
type = BottomGhost;
},
{
horizontal = 1;
origin = (0,9);
target = down;
type = TopGhost;
}
);
layerId = m01;
shapes = (
{
closed = 1;
nodes = (
(137,0,l),
(389,290,l),
(529,0,l),
(615,0,l),
(442,340,l),
(747,680,l),
(661,680,l),
(409,390,l),
(269,680,l),
(182,680,l),
(356,339,l),
(51,0,l)
);
}
);
width = 606;
},
{
hints = (
{
horizontal = 1;
origin = (0,11);
target = up;
type = BottomGhost;
},
{
horizontal = 1;
origin = (0,7);
target = down;
type = TopGhost;
},
{
horizontal = 1;
origin = (0,9);
target = down;
type = TopGhost;
}
);
layerId = "B86D9C3C-D3FC-40C7-BC9B-EF4509240B31";
shapes = (
{
closed = 1;
nodes = (
(219,0,l),
(410,236,l),
(509,0,l),
(692,0,l),
(522,340,l),
(824,680,l),
(641,680,l),
(450,444,l),
(351,680,l),
(168,680,l),
(338,340,l),
(36,0,l)
);
}
);
width = 668;
},
{
hints = (
{
horizontal = 1;
origin = (0,11);
target = up;
type = BottomGhost;
},
{
horizontal = 1;
origin = (0,9);
target = down;
type = TopGhost;
}
);
layerId = "20FD933E-5CCA-4ADC-839D-1BAE82A4B007";
shapes = (
{
closed = 1;
nodes = (
(246,0,l),
(416,218,l),
(502,0,l),
(718,0,l),
(549,340,l),
(850,680,l),
(634,680,l),
(464,462,l),
(378,680,l),
(163,680,l),
(332,340,l),
(31,0,l)
);
}
);
width = 689;
}
);
note = X;
unicode = 88;
},
{
glyphname = Y;
kernLeft = VWY;
kernRight = VWY;
lastChange = "2023-12-15 17:48:45 +0000";
layers = (
{
anchors = (
{
name = top;
pos = (465,672);
}
);
hints = (
{
horizontal = 1;
origin = (0,8);
target = up;
type = BottomGhost;
},
{
horizontal = 1;
origin = (0,6);
target = down;
type = TopGhost;
}
);
layerId = m01;
shapes = (
{
closed = 1;
nodes = (
(368,0,l),
(430,320,l),
(757,680,l),
(668,680,l),
(409,389,l),
(262,680,l),
(172,680,l),
(360,320,l),
(298,0,l)
);
}
);
width = 605;
},
{
anchors = (
{
name = top;
pos = (499,677);
}
);
hints = (
{
horizontal = 1;
origin = (0,8);
target = up;
type = BottomGhost;
},
{
horizontal = 1;
origin = (0,4);
target = down;
type = TopGhost;
},
{
horizontal = 1;
origin = (0,6);
target = down;
type = TopGhost;
}
);
layerId = "B86D9C3C-D3FC-40C7-BC9B-EF4509240B31";
shapes = (
{
closed = 1;
nodes = (
(439,0,l),
(502,325,l),
(822,680,l),
(643,680,l),
(450,445,l),
(349,680,l),
(170,680,l),
(352,325,l),
(289,0,l)
);
}
);
width = 668;
},
{
anchors = (
{
name = top;
pos = (510,679);
}
);
hints = (
{
horizontal = 1;
origin = (0,8);
target = up;
type = BottomGhost;
},
{
horizontal = 1;
origin = (0,6);
target = down;
type = TopGhost;
}
);
layerId = "20FD933E-5CCA-4ADC-839D-1BAE82A4B007";
shapes = (
{
closed = 1;
nodes = (
(463,0,l),
(527,327,l),
(844,680,l),
(635,680,l),
(464,464,l),
(378,680,l),
(169,680,l),
(350,327,l),
(286,0,l)
);
}
);
width = 689;
}
);
note = Y;
unicode = 89;
},
{
glyphname = Z;
lastChange = "2023-12-15 17:48:45 +0000";
layers = (
{
anchors = (
{
name = top;
pos = (439,681);
}
);
hints = (
{
horizontal = 1;
origin = (0,7);
target = (0,2);
type = Stem;
},
{
horizontal = 1;
origin = (0,4);
target = (0,5);
type = Stem;
}
);
layerId = m01;
shapes = (
{
closed = 1;
nodes = (
(568,0,l),
(581,65,l),
(195,65,l),
(717,680,l),
(208,680,l),
(196,615,l),
(578,615,l),
(55,0,l)
);
}
);
width = 580;
},
{
anchors = (
{
name = top;
pos = (439,680);
}
);
hints = (
{
horizontal = 1;
origin = (0,7);
target = (0,2);
type = Stem;
},
{
horizontal = 1;
origin = (0,4);
target = (0,5);
type = Stem;
}
);
layerId = "B86D9C3C-D3FC-40C7-BC9B-EF4509240B31";
shapes = (
{
closed = 1;
nodes = (
(562,0,l),
(588,136,l),
(318,136,l),
(710,680,l),
(202,680,l),
(176,544,l),
(442,544,l),
(50,0,l)
);
}
);
width = 568;
},
{
anchors = (
{
name = top;
pos = (439,680);
}
);
hints = (
{
horizontal = 1;
origin = (0,7);
target = (0,2);
type = Stem;
},
{
horizontal = 1;
origin = (0,4);
target = (0,5);
type = Stem;
}
);
layerId = "20FD933E-5CCA-4ADC-839D-1BAE82A4B007";
shapes = (
{
closed = 1;
nodes = (
(560,0,l),
(591,160,l),
(360,160,l),
(708,680,l),
(200,680,l),
(169,520,l),
(396,520,l),
(48,0,l)
);
}
);
width = 564;
}
);
note = Z;
unicode = 90;
},
{
glyphname = a;
kernLeft = cod;
lastChange = "2023-12-15 17:48:45 +0000";
layers = (
{
anchors = (
{
name = ogonek;
pos = (510,0);
},
{
name = top;
pos = (377,451);
}
);
hints = (
{
horizontal = 1;
origin = (0,16);
target = (1,11);
type = Stem;
},
{
horizontal = 1;
origin = (0,10);
target = (1,5);
type = Stem;
},
{
horizontal = 1;
origin = (0,3);
target = up;
type = BottomGhost;
},
{
horizontal = 1;
origin = (0,6);
target = down;
type = TopGhost;
},
{
place = (113, 72);
place = (113, 72);
type = Stem;
}
);
layerId = m01;
shapes = (
{
closed = 1;
nodes = (
(359,-10,o),
(421,24,o),
(470,75,c),
(455,0,l),
(525,0,l),
(611,440,l),
(541,440,l),
(526,365,l),
(497,416,o),
(448,450,o),
(376,450,cs),
(252,450,o),
(141,341,o),
(118,220,cs),
(94,99,o),
(163,-10,o),
(287,-10,cs)
);
},
{
closed = 1;
nodes = (
(222,60,o),
(171,135,o),
(188,220,cs),
(204,305,o),
(284,380,o),
(374,380,cs),
(464,380,o),
(514,305,o),
(498,220,cs),
(481,135,o),
(402,60,o),
(312,60,cs)
);
}
);
width = 565;
},
{
anchors = (
{
name = ogonek;
pos = (539,1);
},
{
name = top;
pos = (386,450);
}
);
hints = (
{
horizontal = 1;
origin = (0,16);
target = (1,11);
type = Stem;
},
{
horizontal = 1;
origin = (0,10);
target = (1,5);
type = Stem;
},
{
horizontal = 1;
origin = (0,3);
target = (1,11);
type = Stem;
},
{
horizontal = 1;
origin = (0,6);
target = down;
type = TopGhost;
}
);
layerId = "B86D9C3C-D3FC-40C7-BC9B-EF4509240B31";
shapes = (
{
closed = 1;
nodes = (
(338,-10,o),
(407,8,o),
(445,53,c),
(435,0,l),
(585,0,l),
(671,440,l),
(521,440,l),
(510,387,l),
(481,435,o),
(428,451,o),
(372,451,cs),
(247,451,o),
(131,342,o),
(108,220,cs),
(84,98,o),
(157,-10,o),
(282,-10,cs)
);
},
{
closed = 1;
nodes = (
(291,110,o),
(256,162,o),
(268,220,cs),
(279,278,o),
(334,330,o),
(394,330,cs),
(454,330,o),
(489,278,o),
(478,220,cs),
(466,162,o),
(411,110,o),
(351,110,cs)
);
}
);
width = 615;
},
{
associatedMasterId = m01;
layerId = "89EEE211-8437-42B1-A783-907AC904CBB6";
width = 600;
},
{
anchors = (
{
name = ogonek;
pos = (549,1);
},
{
name = top;
pos = (389,450);
}
);
hints = (
{
horizontal = 1;
origin = (0,16);
target = (1,11);
type = Stem;
},
{
horizontal = 1;
origin = (0,10);
target = (1,5);
type = Stem;
},
{
horizontal = 1;
origin = (0,3);
target = (1,11);
type = Stem;
},
{
horizontal = 1;
origin = (0,6);
target = (1,5);
type = Stem;
}
);
layerId = "20FD933E-5CCA-4ADC-839D-1BAE82A4B007";
shapes = (
{
closed = 1;
nodes = (
(331,-10,o),
(402,3,o),
(437,46,c),
(428,0,l),
(605,0,l),
(691,440,l),
(514,440,l),
(505,394,l),
(475,441,o),
(421,451,o),
(370,451,cs),
(245,451,o),
(128,342,o),
(105,220,cs),
(81,98,o),
(155,-10,o),
(280,-10,cs)
);
},
{
closed = 1;
nodes = (
(315,127,o),
(285,171,o),
(295,220,cs),
(304,269,o),
(351,313,o),
(401,313,cs),
(451,313,o),
(480,269,o),
(471,220,cs),
(461,171,o),
(415,127,o),
(365,127,cs)
);
}
);
width = 632;
}
);
note = a;
unicode = 97;
},
{
glyphname = adieresis;
lastChange = "2023-12-15 17:48:45 +0000";
layers = (
{
background = {
shapes = (
{
closed = 1;
nodes = (
(177.67,517,o),
(188.33,521.33,o),
(197,530,cs),
(205.67,538.67,o),
(210,549.17,o),
(210,561.5,cs),
(210,573.83,o),
(205.67,584.33,o),
(197,593,cs),
(188.33,601.67,o),
(177.67,606,o),
(165,606,cs),
(152.33,606,o),
(141.83,601.67,o),
(133.5,593,cs),
(125.17,584.33,o),
(121,573.83,o),
(121,561.5,cs),
(121,549.17,o),
(125.17,538.67,o),
(133.5,530,cs),
(141.83,521.33,o),
(152.33,517,o),
(165,517,cs)
);
},
{
closed = 1;
nodes = (
(359.67,517,o),
(370.33,521.33,o),
(379,530,cs),
(387.67,538.67,o),
(392,549.17,o),
(392,561.5,cs),
(392,573.83,o),
(387.67,584.33,o),
(379,593,cs),
(370.33,601.67,o),
(359.67,606,o),
(347,606,cs),
(334.33,606,o),
(323.83,601.67,o),
(315.5,593,cs),
(307.17,584.33,o),
(303,573.83,o),
(303,561.5,cs),
(303,549.17,o),
(307.17,538.67,o),
(315.5,530,cs),
(323.83,521.33,o),
(334.33,517,o),
(347,517,cs)
);
}
);
};
layerId = m01;
shapes = (
{
ref = a;
},
{
pos = (-23,-246);
ref = dieresiscomb;
}
);
width = 565;
},
{
layerId = "B86D9C3C-D3FC-40C7-BC9B-EF4509240B31";
shapes = (
{
ref = a;
},
{
pos = (-63,-265);
ref = dieresiscomb;
}
);
width = 615;
},
{
layerId = "20FD933E-5CCA-4ADC-839D-1BAE82A4B007";
shapes = (
{
alignment = -1;
ref = a;
},
{
alignment = -1;
pos = (-23,-271);
ref = dieresiscomb;
}
);
width = 632;
}
);
note = adieresis;
unicode = 228;
},
{
glyphname = ae;
lastChange = "2023-12-15 17:48:45 +0000";
layers = (
{
hints = (
{
horizontal = 1;
origin = (0,44);
target = (1,13);
type = Stem;
},
{
horizontal = 1;
origin = (0,15);
target = (2,6);
type = Stem;
},
{
horizontal = 1;
origin = (0,20);
target = (2,2);
type = Stem;
},
{
horizontal = 1;
origin = (0,5);
target = (0,12);
type = Stem;
},
{
horizontal = 1;
origin = (1,5);
target = (0,38);
type = Stem;
},
{
horizontal = 1;
origin = (0,26);
target = (0,33);
type = Stem;
},
{
place = (98, 74);
place = (98, 74);
type = Stem;
},
{
origin = (1,7);
target = (0,15);
type = Stem;
},
{
place = (828, 73);
place = (828, 73);
type = Stem;
}
);
layerId = m01;
shapes = (
{
closed = 1;
nodes = (
(284,-10,o),
(386,18,o),
(460,74,c),
(496,20,o),
(552,-7,o),
(630,-7,cs),
(705,-7,o),
(800,39,o),
(857,129,c),
(777,129,l),
(739,88,o),
(685,63,o),
(634,63,cs),
(561,63,o),
(501,114,o),
(503,193,c),
(890,193,l),
(897,230,ls),
(921,356,o),
(830,452,o),
(706,452,cs),
(640,452,o),
(569,420,o),
(516,368,c),
(494,431,o),
(427,450,o),
(362,450,cs),
(290,450,o),
(214,420,o),
(168,347,c),
(227,320,l),
(258,371,o),
(317,388,o),
(348,388,cs),
(410,388,o),
(463,365,o),
(449,295,cs),
(444,270,l),
(222,270,l),
(163,247,o),
(113,198,o),
(101,132,cs),
(82,34,o),
(145,-10,o),
(219,-10,cs)
);
},
{
closed = 1;
nodes = (
(195,57,o),
(160,77,o),
(172,141,cs),
(178,172,o),
(200,197,o),
(237,214,c),
(434,214,l),
(433,213,ls),
(429,177,o),
(431,145,o),
(440,119,c),
(386,81,o),
(311,57,o),
(251,57,cs)
);
},
{
closed = 1;
nodes = (
(548,332,o),
(621,382,o),
(697,382,cs),
(772,382,o),
(826,332,o),
(828,258,c),
(516,258,l)
);
}
);
width = 867;
},
{
hints = (
{
horizontal = 1;
origin = (0,44);
target = (0,12);
type = Stem;
},
{
horizontal = 1;
origin = (0,15);
target = (2,6);
type = Stem;
},
{
horizontal = 1;
origin = (0,26);
target = (2,2);
type = Stem;
},
{
horizontal = 1;
origin = (1,5);
target = (0,38);
type = Stem;
},
{
horizontal = 1;
origin = (0,26);
target = (0,33);
type = Stem;
},
{
horizontal = 1;
origin = (0,44);
target = (1,13);
type = Stem;
},
{
place = (93, 161);
place = (93, 161);
type = Stem;
},
{
place = (799, 141);
place = (799, 141);
type = Stem;
}
);
layerId = "B86D9C3C-D3FC-40C7-BC9B-EF4509240B31";
shapes = (
{
closed = 1;
nodes = (
(333,-10,o),
(406,20,o),
(461,63,c),
(497,16,o),
(561,-10,o),
(643,-10,cs),
(760,-10,o),
(865,48,o),
(914,164,c),
(761,164,l),
(754,132,o),
(714,97,o),
(661,97,cs),
(602,97,o),
(576,151,o),
(586,202,c),
(928,202,l),
(935,230,l),
(962,371,o),
(867,451,o),
(733,451,cs),
(661,451,o),
(594,429,o),
(541,391,c),
(508,431,o),
(453,451,o),
(387,451,cs),
(309,451,o),
(217,419,o),
(161,354,c),
(271,306,l),
(294,330,o),
(327,347,o),
(356,347,cs),
(396,347,o),
(451,329,o),
(442,282,cs),
(441,276,l),
(219,276,l),
(157,252,o),
(108,194,o),
(96,132,cs),
(78,39,o),
(135,-10,o),
(223,-10,cs)
);
},
{
closed = 1;
nodes = (
(265,87,o),
(247,106,o),
(254,144,cs),
(258,166,o),
(276,185,o),
(296,196,c),
(425,196,l),
(427,193,l),
(425,172,o),
(426,153,o),
(429,135,c),
(402,113,o),
(354,87,o),
(302,87,cs)
);
},
{
closed = 1;
nodes = (
(606,296,o),
(626,355,o),
(717,355,cs),
(808,355,o),
(802,290,o),
(799,273,c),
(602,273,l)
);
}
);
width = 898;
},
{
hints = (
{
horizontal = 1;
origin = (0,44);
target = (1,13);
type = Stem;
},
{
horizontal = 1;
origin = (0,15);
target = (0,38);
type = Stem;
},
{
horizontal = 1;
origin = (0,26);
target = (2,2);
type = Stem;
},
{
horizontal = 1;
origin = (0,5);
target = (0,12);
type = Stem;
},
{
horizontal = 1;
origin = (0,26);
target = (0,33);
type = Stem;
},
{
horizontal = 1;
origin = (1,5);
target = (0,38);
type = Stem;
},
{
place = (91, 190);
place = (91, 190);
type = Stem;
},
{
place = (425, 185);
place = (425, 185);
type = Stem;
},
{
place = (789, 167);
place = (789, 167);
type = Stem;
}
);
layerId = "20FD933E-5CCA-4ADC-839D-1BAE82A4B007";
shapes = (
{
closed = 1;
nodes = (
(349,-10,o),
(413,21,o),
(460,59,c),
(498,15,o),
(564,-11,o),
(648,-11,cs),
(779,-11,o),
(887,51,o),
(933,176,c),
(755,176,l),
(759,147,o),
(723,108,o),
(670,108,cs),
(615,108,o),
(602,163,o),
(614,205,c),
(941,205,l),
(948,230,ls),
(988,376,o),
(879,451,o),
(742,451,cs),
(668,451,o),
(602,432,o),
(549,398,c),
(513,430,o),
(462,451,o),
(395,451,cs),
(315,451,o),
(218,419,o),
(158,356,c),
(287,301,l),
(306,316,o),
(331,333,o),
(360,333,cs),
(392,333,o),
(443,328,o),
(440,294,cs),
(439,278,l),
(217,278,l),
(155,254,o),
(106,193,o),
(94,132,cs),
(76,41,o),
(132,-10,o),
(225,-10,cs)
);
},
{
closed = 1;
nodes = (
(288,97,o),
(276,116,o),
(281,145,cs),
(285,164,o),
(301,181,o),
(316,190,c),
(422,190,l),
(424,186,ls),
(431,174,o),
(424,155,o),
(425,140,c),
(407,123,o),
(369,97,o),
(319,97,cs)
);
},
{
closed = 1;
nodes = (
(634,296,o),
(650,346,o),
(724,346,cs),
(791,346,o),
(793,297,o),
(789,278,c),
(631,278,l)
);
}
);
width = 908;
}
);
note = ae;
unicode = 230;
},
{
glyphname = b;
kernRight = bop;
lastChange = "2023-12-15 17:48:45 +0000";
layers = (
{
hints = (
{
horizontal = 1;
origin = (0,16);
target = (1,11);
type = Stem;
},
{
horizontal = 1;
origin = (0,5);
target = (1,5);
type = Stem;
},
{
horizontal = 1;
origin = (0,11);
target = up;
type = BottomGhost;
},
{
place = (526, 71);
place = (526, 71);
type = Stem;
}
);
layerId = m01;
shapes = (
{
closed = 1;
nodes = (
(458,-10,o),
(569,99,o),
(593,220,cs),
(616,341,o),
(547,450,o),
(423,450,cs),
(351,450,o),
(290,416,o),
(241,365,c),
(316,750,l),
(246,750,l),
(100,0,l),
(170,0,l),
(185,75,l),
(214,24,o),
(262,-10,o),
(334,-10,cs)
);
},
{
closed = 1;
nodes = (
(247,60,o),
(196,135,o),
(213,220,cs),
(229,305,o),
(309,380,o),
(399,380,cs),
(489,380,o),
(539,305,o),
(523,220,cs),
(506,135,o),
(427,60,o),
(337,60,cs)
);
}
);
width = 560;
},
{
hints = (
{
horizontal = 1;
origin = (0,16);
target = (1,11);
type = Stem;
},
{
horizontal = 1;
origin = (0,5);
target = (1,5);
type = Stem;
},
{
horizontal = 1;
origin = (0,11);
target = up;
type = BottomGhost;
}
);
layerId = "B86D9C3C-D3FC-40C7-BC9B-EF4509240B31";
shapes = (
{
closed = 1;
nodes = (
(514,-10,o),
(629,98,o),
(653,220,cs),
(676,342,o),
(604,451,o),
(479,451,cs),
(422,451,o),
(364,435,o),
(315,387,c),
(386,750,l),
(236,750,l),
(90,0,l),
(240,0,l),
(250,53,l),
(272,8,o),
(332,-10,o),
(389,-10,cs)
);
},
{
closed = 1;
nodes = (
(306,110,o),
(271,162,o),
(283,220,cs),
(294,278,o),
(349,330,o),
(409,330,cs),
(469,330,o),
(504,278,o),
(493,220,cs),
(481,162,o),
(426,110,o),
(366,110,cs)
);
}
);
width = 615;
},
{
hints = (
{
horizontal = 1;
origin = (0,16);
target = (1,11);
type = Stem;
},
{
horizontal = 1;
origin = (0,5);
target = (1,5);
type = Stem;
},
{
horizontal = 1;
origin = (0,11);
target = up;
type = BottomGhost;
}
);
layerId = "20FD933E-5CCA-4ADC-839D-1BAE82A4B007";
shapes = (
{
closed = 1;
nodes = (
(533,-10,o),
(649,98,o),
(673,220,cs),
(696,342,o),
(623,451,o),
(497,451,cs),
(445,451,o),
(388,441,o),
(340,394,c),
(409,750,l),
(233,750,l),
(87,0,l),
(263,0,l),
(272,46,l),
(291,3,o),
(355,-10,o),
(407,-10,cs)
);
},
{
closed = 1;
nodes = (
(327,127,o),
(296,171,o),
(306,220,cs),
(315,269,o),
(363,313,o),
(413,313,cs),
(463,313,o),
(492,269,o),
(483,220,cs),
(473,171,o),
(427,127,o),
(377,127,cs)
);
}
);
width = 633;
}
);
note = b;
unicode = 98;
},
{
glyphname = c;
kernLeft = cod;
kernRight = bop;
lastChange = "2023-12-15 17:48:45 +0000";
layers = (
{
anchors = (
{
name = bottom;
pos = (287,-10);
},
{
name = top;
pos = (383,450);
}
);
hints = (
{
horizontal = 1;
origin = (0,25);
target = (0,6);
type = Stem;
},
{
horizontal = 1;
origin = (0,19);
target = (0,12);
type = Stem;
},
{
place = (109, 73);
place = (109, 73);
type = Stem;
}
);
layerId = m01;
shapes = (
{
closed = 1;
nodes = (
(385,-10,o),
(481,45,o),
(535,144,c),
(456,144,l),
(419,95,o),
(363,63,o),
(307,63,cs),
(220,63,o),
(168,135,o),
(185,220,cs),
(203,314,o),
(289,376,o),
(375,376,cs),
(427,376,o),
(477,339,o),
(490,282,c),
(566,282,l),
(557,386,o),
(479,449,o),
(382,449,cs),
(256,449,o),
(137,346,o),
(113,220,cs),
(87,85,o),
(180,-10,o),
(287,-10,cs)
);
}
);
width = 521;
},
{
anchors = (
{
name = bottom;
pos = (312,0);
},
{
name = top;
pos = (401,448);
}
);
hints = (
{
horizontal = 1;
origin = (0,25);
target = (0,6);
type = Stem;
},
{
horizontal = 1;
origin = (0,19);
target = (0,12);
type = Stem;
},
{
place = (103, 161);
place = (103, 161);
type = Stem;
}
);
layerId = "B86D9C3C-D3FC-40C7-BC9B-EF4509240B31";
shapes = (
{
closed = 1;
nodes = (
(442,-10,o),
(546,66,o),
(580,164,c),
(434,164,l),
(421,124,o),
(381,104,o),
(335,104,cs),
(265,104,o),
(258,168,o),
(268,219,cs),
(277,269,o),
(312,334,o),
(380,334,cs),
(432,334,o),
(460,307,o),
(453,264,c),
(602,264,l),
(615,366,o),
(541,451,o),
(398,451,cs),
(251,451,o),
(132,346,o),
(108,220,cs),
(83,94,o),
(155,-10,o),
(308,-10,cs)
);
}
);
width = 552;
},
{
anchors = (
{
name = bottom;
pos = (321,3);
},
{
name = top;
pos = (407,447);
}
);
hints = (
{
horizontal = 1;
origin = (0,25);
target = (0,6);
type = Stem;
},
{
horizontal = 1;
origin = (0,12);
target = (0,19);
type = Stem;
},
{
horizontal = 1;
origin = (0,25);
target = (0,3);
type = Stem;
},
{
horizontal = 1;
origin = (0,15);
target = (0,19);
type = Stem;
},
{
place = (101, 190);
place = (101, 190);
type = Stem;
},
{
place = (444, 173);
place = (444, 173);
type = Stem;
}
);
layerId = "20FD933E-5CCA-4ADC-839D-1BAE82A4B007";
shapes = (
{
closed = 1;
nodes = (
(461,-10,o),
(567,73,o),
(595,171,c),
(426,171,l),
(422,134,o),
(387,118,o),
(345,118,cs),
(280,118,o),
(288,179,o),
(296,219,cs),
(302,254,o),
(319,320,o),
(381,320,cs),
(433,320,o),
(454,296,o),
(441,258,c),
(614,258,l),
(635,359,o),
(561,452,o),
(403,452,cs),
(249,452,o),
(130,346,o),
(106,220,cs),
(82,97,o),
(147,-10,o),
(315,-10,cs)
);
}
);
width = 562;
}
);
note = c;
unicode = 99;
},
{
glyphname = ccedilla;
lastChange = "2023-12-15 17:48:45 +0000";
layers = (
{
layerId = m01;
shapes = (
{
ref = c;
},
{
pos = (-3,-11);
ref = cedillacomb;
}
);
width = 521;
},
{
background = {
shapes = (
{
closed = 1;
nodes = (
(222.06,-259.86,o),
(323.31,-259.59,o),
(352.5,-189.03,cs),
(373.31,-138.71,o),
(353.65,-80.94,o),
(311.23,-71.24,cs),
(299.48,-68.55,o),
(288.44,-68.15,o),
(273.05,-71.54,c),
(302.5,-9.27,l),
(423.92,-1.26,o),
(503.86,71.59,o),
(518,164,c),
(372,164,l),
(367,124,o),
(331,104,o),
(285,104,cs),
(215,104,o),
(195,168,o),
(195,219,cs),
(195,269,o),
(217,334,o),
(285,334,cs),
(337,334,o),
(370,307,o),
(372,264,c),
(521,264,l),
(514,366,o),
(423,451,o),
(280,451,cs),
(133,451,o),
(35,346,o),
(35,220,cs),
(35,105.38,o),
(111.13,8.97,o),
(240.04,-7.51,c),
(184.65,-130.55,l),
(199.25,-128.44,ls),
(220.54,-125.36,o),
(246.55,-118.52,o),
(267.04,-122.49,cs),
(313.48,-131.49,o),
(295.91,-197.38,o),
(218.14,-185.3,cs),
(204.61,-183.2,o),
(190.55,-179.77,o),
(176.96,-174.89,cs),
(170.09,-172.42,l),
(142.89,-229,l),
(151.04,-232.18,ls)
);
}
);
};
layerId = "B86D9C3C-D3FC-40C7-BC9B-EF4509240B31";
shapes = (
{
ref = c;
},
{
pos = (10,2);
ref = cedillacomb;
}
);
width = 552;
},
{
layerId = "20FD933E-5CCA-4ADC-839D-1BAE82A4B007";
shapes = (
{
alignment = -1;
ref = c;
},
{
alignment = -1;
pos = (14,6);
ref = cedillacomb;
}
);
width = 562;
}
);
note = ccedilla;
unicode = 231;
},
{
glyphname = d;
kernLeft = cod;
lastChange = "2023-12-15 17:48:45 +0000";
layers = (
{
hints = (
{
horizontal = 1;
origin = (0,16);
target = (1,11);
type = Stem;
},
{
horizontal = 1;
origin = (0,10);
target = (1,5);
type = Stem;
},
{
horizontal = 1;
origin = (0,3);
target = up;
type = BottomGhost;
},
{
place = (108, 72);
place = (108, 72);
type = Stem;
}
);
layerId = m01;
shapes = (
{
closed = 1;
nodes = (
(354,-10,o),
(416,24,o),
(465,75,c),
(450,0,l),
(520,0,l),
(666,750,l),
(596,750,l),
(521,365,l),
(496,419,o),
(443,450,o),
(371,450,cs),
(247,450,o),
(136,341,o),
(113,220,cs),
(89,99,o),
(158,-10,o),
(282,-10,cs)
);
},
{
closed = 1;
nodes = (
(217,60,o),
(166,135,o),
(183,220,cs),
(199,305,o),
(279,380,o),
(369,380,cs),
(459,380,o),
(509,305,o),
(493,220,cs),
(476,135,o),
(397,60,o),
(307,60,cs)
);
}
);
width = 560;
},
{
hints = (
{
horizontal = 1;
origin = (0,16);
target = (1,11);
type = Stem;
},
{
horizontal = 1;
origin = (0,10);
target = (1,5);
type = Stem;
},
{
horizontal = 1;
origin = (0,3);
target = (1,11);
type = Stem;
}
);
layerId = "B86D9C3C-D3FC-40C7-BC9B-EF4509240B31";
shapes = (
{
closed = 1;
nodes = (
(338,-10,o),
(407,8,o),
(445,53,c),
(435,0,l),
(585,0,l),
(731,750,l),
(581,750,l),
(510,387,l),
(481,435,o),
(428,451,o),
(372,451,cs),
(247,451,o),
(131,342,o),
(108,220,cs),
(84,98,o),
(157,-10,o),
(282,-10,cs)
);
},
{
closed = 1;
nodes = (
(291,110,o),
(256,162,o),
(268,220,cs),
(279,278,o),
(334,330,o),
(394,330,cs),
(454,330,o),
(489,278,o),
(478,220,cs),
(466,162,o),
(411,110,o),
(351,110,cs)
);
}
);
width = 615;
},
{
hints = (
{
horizontal = 1;
origin = (0,16);
target = (1,11);
type = Stem;
},
{
horizontal = 1;
origin = (0,10);
target = (1,5);
type = Stem;
},
{
horizontal = 1;
origin = (0,3);
target = (1,11);
type = Stem;
}
);
layerId = "20FD933E-5CCA-4ADC-839D-1BAE82A4B007";
shapes = (
{
closed = 1;
nodes = (
(333,-10,o),
(404,3,o),
(439,46,c),
(430,0,l),
(607,0,l),
(753,750,l),
(576,750,l),
(507,394,l),
(476,440,o),
(423,451,o),
(372,451,cs),
(247,451,o),
(129,342,o),
(106,220,cs),
(82,98,o),
(157,-10,o),
(282,-10,cs)
);
},
{
closed = 1;
nodes = (
(317,127,o),
(286,171,o),
(296,220,cs),
(305,269,o),
(353,313,o),
(403,313,cs),
(453,313,o),
(482,269,o),
(473,220,cs),
(463,171,o),
(417,127,o),
(367,127,cs)
);
}
);
width = 633;
}
);
note = d;
unicode = 100;
},
{
glyphname = eth;
lastChange = "2023-12-15 17:48:45 +0000";
layers = (
{
anchors = (
{
name = top;
pos = (388,453);
}
);
hints = (
{
horizontal = 1;
origin = (0,11);
target = (1,11);
type = Stem;
},
{
horizontal = 1;
origin = (1,5);
target = (0,5);
type = Stem;
},
{
horizontal = 1;
origin = (3,7);
target = (3,6);
type = Stem;
},
{
place = (106, 71);
place = (106, 71);
type = Stem;
},
{
place = (518, 76);
place = (518, 76);
type = Stem;
}
);
layerId = m01;
shapes = (
{
closed = 1;
nodes = (
(425,-7,o),
(546,83,o),
(570,207,cs),
(594,330,o),
(510,422,o),
(382,422,cs),
(254,422,o),
(134,330,o),
(110,207,cs),
(86,83,o),
(173,-7,o),
(299,-7,cs)
);
},
{
closed = 1;
nodes = (
(224,63,o),
(164,124,o),
(180,207,cs),
(197,291,o),
(279,352,o),
(368,352,cs),
(457,352,o),
(517,291,o),
(500,207,cs),
(484,124,o),
(400,63,o),
(312,63,cs)
);
},
{
closed = 1;
nodes = (
(637,696,l),
(605,736,l),
(347,520,l),
(379,480,l)
);
},
{
closed = 1;
nodes = (
(515,649,o),
(544,464,o),
(500,207,c),
(570,207,l),
(643,560,o),
(547,720,o),
(317,736,c),
(303,666,l)
);
}
);
width = 570;
},
{
anchors = (
{
name = top;
pos = (409,450);
}
);
hints = (
{
horizontal = 1;
origin = (0,11);
target = (1,11);
type = Stem;
},
{
horizontal = 1;
origin = (0,5);
target = (1,5);
type = Stem;
},
{
horizontal = 1;
origin = (2,0);
target = down;
type = TopGhost;
},
{
place = (103, 150);
place = (103, 150);
type = Stem;
},
{
place = (465, 169);
place = (465, 169);
type = Stem;
},
{
place = (490, 144);
place = (490, 144);
type = Stem;
}
);
layerId = "B86D9C3C-D3FC-40C7-BC9B-EF4509240B31";
shapes = (
{
closed = 1;
nodes = (
(455,-9,o),
(583,79,o),
(611,220,cs),
(638,358,o),
(541,450,o),
(404,450,cs),
(266,450,o),
(135,358,o),
(108,220,cs),
(80,79,o),
(174,-9,o),
(315,-9,cs)
);
},
{
closed = 1;
nodes = (
(256,104,o),
(246,163,o),
(257,219,cs),
(267,274,o),
(303,333,o),
(382,333,cs),
(460,333,o),
(472,274,o),
(462,219,cs),
(451,163,o),
(417,104,o),
(337,104,cs)
);
},
{
closed = 1;
nodes = (
(642,690,l),
(569,760,l),
(311,544,l),
(384,474,l)
);
},
{
closed = 1;
nodes = (
(477,613,o),
(530,499,o),
(462,219,c),
(611,220,l),
(683,573,o),
(590,731,o),
(328,749,c),
(304,629,l)
);
}
);
width = 573;
},
{
anchors = (
{
name = top;
pos = (416,449);
}
);
hints = (
{
horizontal = 1;
origin = (0,11);
target = (1,11);
type = Stem;
},
{
horizontal = 1;
origin = (2,0);
target = down;
type = TopGhost;
},
{
horizontal = 1;
origin = (1,5);
target = (0,5);
type = Stem;
},
{
place = (102, 175);
place = (102, 175);
type = Stem;
},
{
place = (453, 195);
place = (453, 195);
type = Stem;
},
{
place = (481, 167);
place = (481, 167);
type = Stem;
}
);
layerId = "20FD933E-5CCA-4ADC-839D-1BAE82A4B007";
shapes = (
{
closed = 1;
nodes = (
(465,-10,o),
(596,78,o),
(625,224,cs),
(652,367,o),
(552,459,o),
(412,459,cs),
(270,459,o),
(134,367,o),
(107,224,cs),
(78,78,o),
(175,-10,o),
(321,-10,cs)
);
},
{
closed = 1;
nodes = (
(267,118,o),
(273,176,o),
(282,223,cs),
(291,268,o),
(311,327,o),
(387,327,cs),
(461,327,o),
(457,268,o),
(448,223,cs),
(439,176,o),
(423,118,o),
(346,118,cs)
);
},
{
closed = 1;
nodes = (
(644,688,l),
(556,768,l),
(298,552,l),
(386,472,l)
);
},
{
closed = 1;
nodes = (
(465,601,o),
(525,511,o),
(448,223,c),
(625,224,l),
(697,577,o),
(605,735,o),
(331,753,c),
(305,617,l)
);
}
);
width = 574;
}
);
note = eth;
unicode = 240;
},
{
glyphname = dcaron;
lastChange = "2023-12-15 17:48:45 +0000";
layers = (
{
hints = (
{
horizontal = 1;
origin = (0,16);
target = (1,11);
type = Stem;
},
{
horizontal = 1;
origin = (0,10);
target = (1,5);
type = Stem;
},
{
horizontal = 1;
origin = (0,3);
target = up;
type = BottomGhost;
},
{
place = (108, 72);
place = (108, 72);
type = Stem;
}
);
layerId = m01;
shapes = (
{
closed = 1;
nodes = (
(354,-10,o),
(416,24,o),
(465,75,c),
(450,0,l),
(520,0,l),
(666,750,l),
(596,750,l),
(521,365,l),
(496,419,o),
(443,450,o),
(371,450,cs),
(247,450,o),
(136,341,o),
(113,220,cs),
(89,99,o),
(158,-10,o),
(282,-10,cs)
);
},
{
closed = 1;
nodes = (
(217,60,o),
(166,135,o),
(183,220,cs),
(199,305,o),
(279,380,o),
(369,380,cs),
(459,380,o),
(509,305,o),
(493,220,cs),
(476,135,o),
(397,60,o),
(307,60,cs)
);
},
{
pos = (465,0);
ref = caroncomb.alt;
}
);
width = 683;
},
{
hints = (
{
horizontal = 1;
origin = (0,16);
target = (1,11);
type = Stem;
},
{
horizontal = 1;
origin = (0,10);
target = (1,5);
type = Stem;
},
{
horizontal = 1;
origin = (0,3);
target = (1,11);
type = Stem;
}
);
layerId = "B86D9C3C-D3FC-40C7-BC9B-EF4509240B31";
shapes = (
{
closed = 1;
nodes = (
(338,-10,o),
(407,8,o),
(445,53,c),
(435,0,l),
(585,0,l),
(731,750,l),
(581,750,l),
(510,387,l),
(481,435,o),
(428,451,o),
(372,451,cs),
(247,451,o),
(131,342,o),
(108,220,cs),
(84,98,o),
(157,-10,o),
(282,-10,cs)
);
},
{
closed = 1;
nodes = (
(291,110,o),
(256,162,o),
(268,220,cs),
(279,278,o),
(334,330,o),
(394,330,cs),
(454,330,o),
(489,278,o),
(478,220,cs),
(466,162,o),
(411,110,o),
(351,110,cs)
);
},
{
pos = (549,0);
ref = caroncomb.alt;
}
);
width = 768;
},
{
hints = (
{
horizontal = 1;
origin = (0,16);
target = (1,11);
type = Stem;
},
{
horizontal = 1;
origin = (0,10);
target = (1,5);
type = Stem;
},
{
horizontal = 1;
origin = (0,3);
target = (1,11);
type = Stem;
}
);
layerId = "20FD933E-5CCA-4ADC-839D-1BAE82A4B007";
shapes = (
{
closed = 1;
nodes = (
(333,-10,o),
(404,3,o),
(439,46,c),
(430,0,l),
(607,0,l),
(753,750,l),
(576,750,l),
(507,394,l),
(476,440,o),
(423,451,o),
(372,451,cs),
(247,451,o),
(129,342,o),
(106,220,cs),
(82,98,o),
(157,-10,o),
(282,-10,cs)
);
},
{
closed = 1;
nodes = (
(317,127,o),
(286,171,o),
(296,220,cs),
(305,269,o),
(353,313,o),
(403,313,cs),
(453,313,o),
(482,269,o),
(473,220,cs),
(463,171,o),
(417,127,o),
(367,127,cs)
);
},
{
alignment = -1;
pos = (577,0);
ref = caroncomb.alt;
}
);
width = 796;
}
);
unicode = 271;
},
{
glyphname = e;
kernLeft = cod;
kernRight = bop;
lastChange = "2023-12-15 17:48:45 +0000";
layers = (
{
anchors = (
{
name = ogonek;
pos = (472,49);
},
{
name = top;
pos = (390,454);
}
);
hints = (
{
horizontal = 1;
origin = (0,28);
target = (0,6);
type = Stem;
},
{
horizontal = 1;
origin = (0,17);
target = (0,16);
type = Stem;
},
{
horizontal = 1;
origin = (0,22);
target = (0,12);
type = Stem;
},
{
place = (108, 74);
place = (108, 74);
type = Stem;
},
{
place = (507, 72);
place = (507, 72);
type = Stem;
}
);
layerId = m01;
shapes = (
{
closed = 1;
nodes = (
(377,-7,o),
(460,26,o),
(516,83,c),
(472,127,l),
(427,83,o),
(374,63,o),
(312,63,cs),
(232,63,o),
(166,123,o),
(184,216,cs),
(202,310,o),
(280,382,o),
(374,382,cs),
(450,382,o),
(504,330,o),
(507,263,c),
(165,263,l),
(151,203,l),
(569,203,l),
(575,230,ls),
(599,353,o),
(511,452,o),
(388,452,cs),
(260,452,o),
(138,350,o),
(113,222,cs),
(86,83,o),
(178,-7,o),
(310,-7,cs)
);
}
);
width = 540;
},
{
anchors = (
{
name = ogonek;
pos = (482,31);
},
{
name = top;
pos = (413,451);
}
);
background = {
shapes = (
{
closed = 1;
nodes = (
(196,273,l),
(196,273,o),
(201,355,o),
(295,355,cs),
(386,355,o),
(393,273,o),
(393,273,c)
);
},
{
closed = 1;
nodes = (
(537,371,o),
(426,451,o),
(292,451,cs),
(144,451,o),
(35,358,o),
(35,220,cs),
(35,80,o),
(140,-10,o),
(292,-10,cs),
(409,-10,o),
(503,48,o),
(529,164,c),
(376,164,l),
(375,132,o),
(342,97,o),
(289,97,cs),
(230,97,o),
(194,151,o),
(194,202,c),
(536,202,l),
(536,211,o),
(537,221,o),
(537,230,cs)
);
}
);
};
hints = (
{
horizontal = 1;
origin = (0,28);
target = (0,6);
type = Stem;
},
{
horizontal = 1;
origin = (0,17);
target = (0,16);
type = Stem;
},
{
horizontal = 1;
origin = (0,22);
target = (0,12);
type = Stem;
},
{
place = (103, 159);
place = (103, 159);
type = Stem;
},
{
place = (476, 141);
place = (476, 141);
type = Stem;
}
);
layerId = "B86D9C3C-D3FC-40C7-BC9B-EF4509240B31";
shapes = (
{
closed = 1;
nodes = (
(412,-10,o),
(502,28,o),
(550,72,c),
(477,148,l),
(453,124,o),
(398,94,o),
(337,94,cs),
(278,94,o),
(250,151,o),
(267,239,c),
(281,307,o),
(322,355,o),
(394,355,cs),
(485,355,o),
(476,273,o),
(476,273,c),
(247,273,l),
(233,202,l),
(606,202,l),
(612,230,l),
(639,371,o),
(544,451,o),
(410,451,cs),
(262,451,o),
(135,358,o),
(108,220,cs),
(81,80,o),
(168,-10,o),
(320,-10,cs)
);
}
);
width = 572;
},
{
anchors = (
{
name = ogonek;
pos = (486,25);
},
{
name = top;
pos = (420,450);
}
);
hints = (
{
horizontal = 1;
origin = (0,28);
target = (0,6);
type = Stem;
},
{
horizontal = 1;
origin = (0,17);
target = (0,16);
type = Stem;
},
{
horizontal = 1;
origin = (0,22);
target = (0,12);
type = Stem;
},
{
place = (101, 188);
place = (101, 188);
type = Stem;
},
{
place = (470, 159);
place = (470, 159);
type = Stem;
}
);
layerId = "20FD933E-5CCA-4ADC-839D-1BAE82A4B007";
shapes = (
{
closed = 1;
nodes = (
(424,-11,o),
(517,29,o),
(561,68,c),
(478,155,l),
(462,138,o),
(406,104,o),
(345,104,cs),
(293,104,o),
(278,160,o),
(295,247,cs),
(306,306,o),
(336,346,o),
(400,346,cs),
(496,346,o),
(466,254,o),
(466,276,c),
(275,276,l),
(260,202,l),
(618,202,l),
(624,230,ls),
(652,377,o),
(555,451,o),
(417,451,cs),
(263,451,o),
(133,361,o),
(106,219,cs),
(78,79,o),
(165,-11,o),
(324,-11,cs)
);
}
);
width = 583;
}
);
note = e;
unicode = 101;
},
{
glyphname = f;
kernLeft = t;
lastChange = "2023-12-15 17:48:45 +0000";
layers = (
{
hints = (
{
horizontal = 1;
origin = (0,19);
target = up;
type = BottomGhost;
},
{
horizontal = 1;
origin = (0,16);
target = (0,17);
type = Stem;
},
{
horizontal = 1;
origin = (0,11);
target = (0,8);
type = Stem;
}
);
layerId = m01;
shapes = (
{
closed = 1;
nodes = (
(219,0,l),
(292,375,l),
(399,375,l),
(412,440,l),
(305,440,l),
(341,630,ls),
(349,669,o),
(370,685,o),
(409,685,cs),
(449,685,l),
(462,750,l),
(432,750,ls),
(338,750,o),
(287,710,o),
(269,617,cs),
(235,440,l),
(136,440,l),
(123,375,l),
(222,375,l),
(149,0,l)
);
}
);
width = 326;
},
{
hints = (
{
horizontal = 1;
origin = (0,19);
target = up;
type = BottomGhost;
},
{
horizontal = 1;
origin = (0,16);
target = (0,17);
type = Stem;
},
{
horizontal = 1;
origin = (0,11);
target = (0,8);
type = Stem;
},
{
origin = (0,17);
target = (0,10);
type = Stem;
}
);
layerId = "B86D9C3C-D3FC-40C7-BC9B-EF4509240B31";
shapes = (
{
closed = 1;
nodes = (
(283,0,l),
(346,325,l),
(449,325,l),
(472,441,l),
(369,441,l),
(390,553,ls),
(401,606,o),
(424,633,o),
(455,633,cs),
(489,633,l),
(512,750,l),
(431,750,ls),
(351,750,o),
(267,690,o),
(244,571,cs),
(219,441,l),
(136,441,l),
(113,325,l),
(196,325,l),
(133,0,l)
);
}
);
width = 386;
},
{
hints = (
{
horizontal = 1;
origin = (0,19);
target = up;
type = BottomGhost;
},
{
horizontal = 1;
origin = (0,16);
target = (0,17);
type = Stem;
},
{
horizontal = 1;
origin = (0,11);
target = (0,8);
type = Stem;
},
{
origin = (0,17);
target = (0,10);
type = Stem;
}
);
layerId = "20FD933E-5CCA-4ADC-839D-1BAE82A4B007";
shapes = (
{
closed = 1;
nodes = (
(304,0,l),
(364,308,l),
(466,308,l),
(492,441,l),
(390,441,l),
(406,527,ls),
(418,585,o),
(442,616,o),
(471,616,cs),
(503,616,l),
(529,750,l),
(431,750,ls),
(355,750,o),
(261,683,o),
(236,556,cs),
(214,441,l),
(136,441,l),
(110,308,l),
(188,308,l),
(128,0,l)
);
}
);
width = 406;
}
);
note = f;
unicode = 102;
},
{
glyphname = g;
kernLeft = cod;
lastChange = "2023-12-15 17:48:45 +0000";
layers = (
{
anchors = (
{
name = top;
pos = (380,453);
}
);
hints = (
{
horizontal = 1;
origin = (0,28);
target = (0,21);
type = Stem;
},
{
horizontal = 1;
origin = (0,14);
target = (1,11);
type = Stem;
},
{
horizontal = 1;
origin = (0,4);
target = down;
type = TopGhost;
},
{
horizontal = 1;
origin = (0,8);
target = (1,5);
type = Stem;
},
{
origin = (0,25);
target = (0,24);
type = Stem;
},
{
place = (113, 72);
place = (113, 72);
type = Stem;
}
);
layerId = m01;
shapes = (
{
closed = 1;
nodes = (
(377,-250,o),
(496,-148,o),
(521,-22,cs),
(611,440,l),
(541,440,l),
(526,366,l),
(507,402,o),
(459,450,o),
(377,450,cs),
(252,450,o),
(141,342,o),
(118,220,cs),
(94,98,o),
(163,-10,o),
(288,-10,cs),
(369,-10,o),
(433,34,o),
(469,74,c),
(451,-22,ls),
(434,-109,o),
(352,-180,o),
(265,-180,cs),
(203,-180,o),
(152,-134,o),
(149,-65,c),
(79,-65,l),
(75,-163,o),
(139,-250,o),
(251,-250,cs)
);
},
{
closed = 1;
nodes = (
(225,60,o),
(171,133,o),
(188,220,cs),
(205,307,o),
(287,380,o),
(374,380,cs),
(464,380,o),
(514,305,o),
(498,220,cs),
(481,135,o),
(402,60,o),
(312,60,cs)
);
}
);
width = 565;
},
{
anchors = (
{
name = top;
pos = (380,450);
}
);
hints = (
{
horizontal = 1;
origin = (0,28);
target = (0,21);
type = Stem;
},
{
horizontal = 1;
origin = (0,14);
target = (1,11);
type = Stem;
},
{
horizontal = 1;
origin = (0,8);
target = (1,5);
type = Stem;
},
{
horizontal = 1;
origin = (0,4);
target = down;
type = TopGhost;
}
);
layerId = "B86D9C3C-D3FC-40C7-BC9B-EF4509240B31";
shapes = (
{
closed = 1;
nodes = (
(421,-250,o),
(557,-144,o),
(585,1,cs),
(671,441,l),
(521,441,l),
(510,387,l),
(477,437,o),
(428,451,o),
(372,451,cs),
(247,451,o),
(132,343,o),
(108,221,cs),
(84,99,o),
(157,-10,o),
(282,-10,cs),
(338,-10,o),
(407,8,o),
(445,54,c),
(432,-16,ls),
(420,-79,o),
(361,-139,o),
(295,-139,cs),
(247,-139,o),
(212,-108,o),
(211,-56,c),
(61,-56,l),
(42,-190,o),
(161,-250,o),
(281,-250,cs)
);
},
{
closed = 1;
nodes = (
(291,110,o),
(256,162,o),
(268,221,cs),
(279,279,o),
(334,331,o),
(394,331,cs),
(454,331,o),
(489,279,o),
(478,221,cs),
(466,162,o),
(411,110,o),
(351,110,cs)
);
}
);
width = 615;
},
{
anchors = (
{
name = top;
pos = (380,449);
}
);
hints = (
{
horizontal = 1;
origin = (0,28);
target = (0,21);
type = Stem;
},
{
horizontal = 1;
origin = (0,14);
target = (1,11);
type = Stem;
},
{
horizontal = 1;
origin = (0,8);
target = (1,5);
type = Stem;
},
{
horizontal = 1;
origin = (0,4);
target = (1,5);
type = Stem;
},
{
horizontal = 1;
origin = (0,28);
target = (0,25);
type = Stem;
},
{
place = (52, 180);
place = (52, 180);
type = Stem;
},
{
place = (101, 131);
place = (101, 131);
type = Stem;
}
);
layerId = "20FD933E-5CCA-4ADC-839D-1BAE82A4B007";
shapes = (
{
closed = 1;
nodes = (
(436,-250,o),
(577,-143,o),
(607,9,cs),
(691,441,l),
(514,441,l),
(505,394,l),
(467,449,o),
(417,451,o),
(370,451,cs),
(245,451,o),
(129,343,o),
(105,221,cs),
(81,99,o),
(155,-10,o),
(280,-10,cs),
(328,-10,o),
(398,-1,o),
(437,47,c),
(425,-14,ls),
(415,-69,o),
(364,-125,o),
(305,-125,cs),
(262,-125,o),
(232,-99,o),
(232,-53,c),
(55,-53,l),
(31,-199,o),
(168,-250,o),
(291,-250,cs)
);
},
{
closed = 1;
nodes = (
(314,127,o),
(285,172,o),
(295,221,cs),
(304,270,o),
(350,315,o),
(401,315,cs),
(451,315,o),
(480,270,o),
(471,221,cs),
(461,171,o),
(415,127,o),
(365,127,cs)
);
}
);
width = 632;
}
);
note = g;
unicode = 103;
},
{
glyphname = h;
kernRight = hmn;
lastChange = "2023-12-15 17:48:45 +0000";
layers = (
{
hints = (
{
horizontal = 1;
origin = (0,19);
target = up;
type = BottomGhost;
},
{
horizontal = 1;
origin = (0,13);
target = (0,4);
type = Stem;
},
{
place = (461, 71);
place = (461, 71);
type = Stem;
}
);
layerId = m01;
shapes = (
{
closed = 1;
nodes = (
(170,0,l),
(206,184,ls),
(230,308,o),
(286,379,o),
(394,379,cs),
(458,379,o),
(468,327,o),
(457,275,cs),
(404,0,l),
(474,0,l),
(527,275,ls),
(548,380,o),
(505,449,o),
(396,449,cs),
(331,449,o),
(278,412,o),
(241,364,c),
(316,750,l),
(246,750,l),
(100,0,l)
);
}
);
width = 504;
},
{
hints = (
{
horizontal = 1;
origin = (0,19);
target = up;
type = BottomGhost;
},
{
horizontal = 1;
origin = (0,13);
target = (0,4);
type = Stem;
},
{
place = (443, 153);
place = (443, 153);
type = Stem;
}
);
layerId = "B86D9C3C-D3FC-40C7-BC9B-EF4509240B31";
shapes = (
{
closed = 1;
nodes = (
(240,0,l),
(283,220,ls),
(294,280,o),
(341,330,o),
(388,330,cs),
(435,330,o),
(450,302,o),
(440,250,cs),
(391,0,l),
(541,0,l),
(590,250,ls),
(613,370,o),
(581,451,o),
(463,451,cs),
(405,451,o),
(353,425,o),
(315,387,c),
(386,750,l),
(236,750,l),
(90,0,l)
);
}
);
width = 561;
},
{
hints = (
{
horizontal = 1;
origin = (0,19);
target = up;
type = BottomGhost;
},
{
horizontal = 1;
origin = (0,13);
target = down;
type = TopGhost;
},
{
horizontal = 1;
origin = (0,4);
target = (0,13);
type = Stem;
},
{
place = (437, 181);
place = (437, 181);
type = Stem;
}
);
layerId = "20FD933E-5CCA-4ADC-839D-1BAE82A4B007";
shapes = (
{
closed = 1;
nodes = (
(263,0,l),
(308,232,ls),
(316,271,o),
(360,314,o),
(386,314,cs),
(428,314,o),
(444,294,o),
(434,242,cs),
(387,0,l),
(563,0,l),
(610,242,ls),
(634,367,o),
(606,452,o),
(485,452,cs),
(429,452,o),
(377,429,o),
(340,395,c),
(409,750,l),
(233,750,l),
(87,0,l)
);
}
);
width = 580;
}
);
note = h;
unicode = 104;
},
{
glyphname = i;
lastChange = "2023-12-15 17:48:45 +0000";
layers = (
{
anchors = (
{
name = ogonek;
pos = (161,3);
}
);
hints = (
{
horizontal = 1;
origin = (0,3);
target = up;
type = BottomGhost;
},
{
horizontal = 1;
origin = (0,2);
target = down;
type = TopGhost;
},
{
horizontal = 1;
origin = (1,11);
target = (1,5);
type = Stem;
},
{
place = (110, 189);
place = (110, 189);
type = Stem;
}
);
layerId = m01;
shapes = (
{
closed = 1;
nodes = (
(180,0,l),
(266,440,l),
(196,440,l),
(110,0,l)
);
},
{
closed = 1;
nodes = (
(269,516,o),
(293,536,o),
(298,561,cs),
(303,585,o),
(287,605,o),
(262,605,cs),
(238,605,o),
(214,585,o),
(209,561,cs),
(204,536,o),
(220,516,o),
(245,516,cs)
);
}
);
width = 229;
},
{
anchors = (
{
name = ogonek;
pos = (200,3);
}
);
hints = (
{
horizontal = 1;
origin = (0,3);
target = up;
type = BottomGhost;
},
{
horizontal = 1;
origin = (0,2);
target = down;
type = TopGhost;
},
{
horizontal = 1;
origin = (1,5);
target = down;
type = TopGhost;
},
{
horizontal = 1;
origin = (1,11);
target = (1,5);
type = Stem;
},
{
place = (103, 280);
place = (103, 280);
type = Stem;
}
);
layerId = "B86D9C3C-D3FC-40C7-BC9B-EF4509240B31";
shapes = (
{
closed = 1;
nodes = (
(253,0,l),
(339,441,l),
(189,441,l),
(103,0,l)
);
},
{
closed = 1;
nodes = (
(324,504,o),
(372,544,o),
(381,592,cs),
(391,641,o),
(358,680,o),
(310,680,cs),
(261,680,o),
(215,641,o),
(205,592,cs),
(196,544,o),
(227,504,o),
(276,504,cs)
);
}
);
width = 296;
},
{
anchors = (
{
name = ogonek;
pos = (213,3);
}
);
hints = (
{
horizontal = 1;
origin = (0,3);
target = up;
type = BottomGhost;
},
{
horizontal = 1;
origin = (0,2);
target = down;
type = TopGhost;
},
{
horizontal = 1;
origin = (1,11);
target = (1,5);
type = Stem;
},
{
place = (101, 310);
place = (101, 310);
type = Stem;
}
);
layerId = "20FD933E-5CCA-4ADC-839D-1BAE82A4B007";
shapes = (
{
closed = 1;
nodes = (
(277,0,l),
(363,441,l),
(187,441,l),
(101,0,l)
);
},
{
closed = 1;
nodes = (
(342,500,o),
(398,547,o),
(409,603,cs),
(420,660,o),
(382,705,o),
(326,705,cs),
(269,705,o),
(215,660,o),
(204,603,cs),
(193,547,o),
(229,500,o),
(286,500,cs)
);
}
);
width = 318;
}
);
note = i;
unicode = 105;
},
{
glyphname = dotlessi;
lastChange = "2023-12-15 17:48:45 +0000";
layers = (
{
anchors = (
{
name = ogonek;
pos = (165,0);
},
{
name = top;
pos = (231,443);
}
);
hints = (
{
horizontal = 1;
origin = (0,3);
target = up;
type = BottomGhost;
},
{
horizontal = 1;
origin = (0,2);
target = down;
type = TopGhost;
},
{
origin = (0,3);
target = (0,1);
type = Stem;
}
);
layerId = m01;
shapes = (
{
closed = 1;
nodes = (
(180,0,l),
(266,440,l),
(196,440,l),
(110,0,l)
);
}
);
width = 229;
},
{
anchors = (
{
name = ogonek;
pos = (193,3);
},
{
name = top;
pos = (257,442);
}
);
hints = (
{
horizontal = 1;
origin = (0,3);
target = up;
type = BottomGhost;
},
{
horizontal = 1;
origin = (0,2);
target = down;
type = TopGhost;
},
{
origin = (0,3);
target = (0,1);
type = Stem;
}
);
layerId = "B86D9C3C-D3FC-40C7-BC9B-EF4509240B31";
shapes = (
{
closed = 1;
nodes = (
(245,0,l),
(331,441,l),
(181,441,l),
(95,0,l)
);
}
);
width = 280;
},
{
anchors = (
{
name = ogonek;
pos = (202,4);
},
{
name = top;
pos = (266,442);
}
);
hints = (
{
horizontal = 1;
origin = (0,3);
target = up;
type = BottomGhost;
},
{
horizontal = 1;
origin = (0,2);
target = down;
type = TopGhost;
},
{
origin = (0,3);
target = (0,1);
type = Stem;
}
);
layerId = "20FD933E-5CCA-4ADC-839D-1BAE82A4B007";
shapes = (
{
closed = 1;
nodes = (
(267,0,l),
(353,441,l),
(176,441,l),
(90,0,l)
);
}
);
width = 297;
}
);
note = dotlessi;
unicode = 305;
},
{
glyphname = j;
lastChange = "2023-12-15 17:48:45 +0000";
layers = (
{
hints = (
{
horizontal = 1;
origin = (0,15);
target = (0,8);
type = Stem;
},
{
horizontal = 1;
origin = (0,4);
target = down;
type = TopGhost;
},
{
horizontal = 1;
origin = (1,11);
target = (1,5);
type = Stem;
}
);
layerId = m01;
shapes = (
{
closed = 1;
nodes = (
(80,-243,o),
(152,-169,o),
(169,-84,cs),
(271,440,l),
(201,440,l),
(99,-83,ls),
(88,-137,o),
(50,-173,o),
(-1,-173,cs),
(-26,-173,o),
(-53,-155,o),
(-65,-133,c),
(-121,-185,l),
(-92,-228,o),
(-46,-243,o),
(-2,-243,cs)
);
},
{
closed = 1;
nodes = (
(275,515,o),
(299,535,o),
(304,560,cs),
(309,585,o),
(293,605,o),
(268,605,cs),
(243,605,o),
(219,585,o),
(214,560,cs),
(209,535,o),
(225,515,o),
(250,515,cs)
);
}
);
width = 235;
},
{
hints = (
{
horizontal = 1;
origin = (0,15);
target = (0,8);
type = Stem;
},
{
horizontal = 1;
origin = (0,4);
target = down;
type = TopGhost;
},
{
horizontal = 1;
origin = (1,5);
target = down;
type = TopGhost;
},
{
horizontal = 1;
origin = (1,11);
target = (1,5);
type = Stem;
}
);
layerId = "B86D9C3C-D3FC-40C7-BC9B-EF4509240B31";
shapes = (
{
closed = 1;
nodes = (
(168,-250,o),
(236,-152,o),
(258,-43,cs),
(352,441,l),
(202,441,l),
(107,-44,ls),
(100,-81,o),
(80,-115,o),
(35,-115,cs),
(4,-115,o),
(-18,-92,o),
(-31,-73,c),
(-124,-176,l),
(-88,-232,o),
(-27,-250,o),
(25,-250,cs)
);
},
{
closed = 1;
nodes = (
(337,504,o),
(385,544,o),
(394,592,cs),
(404,641,o),
(371,680,o),
(323,680,cs),
(275,680,o),
(228,641,o),
(218,592,cs),
(209,544,o),
(241,504,o),
(289,504,cs)
);
}
);
width = 296;
},
{
hints = (
{
horizontal = 1;
origin = (0,15);
target = (0,8);
type = Stem;
},
{
horizontal = 1;
origin = (0,4);
target = down;
type = TopGhost;
},
{
horizontal = 1;
origin = (1,11);
target = (1,5);
type = Stem;
}
);
layerId = "20FD933E-5CCA-4ADC-839D-1BAE82A4B007";
shapes = (
{
closed = 1;
nodes = (
(198,-252,o),
(265,-146,o),
(287,-29,cs),
(379,441,l),
(202,441,l),
(110,-31,ls),
(104,-62,o),
(89,-96,o),
(46,-96,cs),
(13,-96,o),
(-6,-71,o),
(-20,-53,c),
(-126,-173,l),
(-86,-233,o),
(-20,-252,o),
(35,-252,cs)
);
},
{
closed = 1;
nodes = (
(357,500,o),
(413,547,o),
(424,603,cs),
(435,660,o),
(397,705,o),
(342,705,cs),
(286,705,o),
(230,660,o),
(219,603,cs),
(208,547,o),
(246,500,o),
(302,500,cs)
);
}
);
width = 316;
}
);
note = j;
unicode = 106;
},
{
glyphname = jdotless;
lastChange = "2023-12-15 17:48:45 +0000";
layers = (
{
hints = (
{
horizontal = 1;
origin = (0,15);
target = (0,8);
type = Stem;
},
{
horizontal = 1;
origin = (0,4);
target = down;
type = TopGhost;
}
);
layerId = m01;
shapes = (
{
closed = 1;
nodes = (
(80,-243,o),
(152,-169,o),
(169,-84,cs),
(271,440,l),
(201,440,l),
(98,-85,ls),
(88,-139,o),
(50,-175,o),
(-1,-175,cs),
(-26,-175,o),
(-54,-157,o),
(-65,-135,c),
(-121,-185,l),
(-92,-228,o),
(-46,-243,o),
(-2,-243,cs)
);
}
);
width = 235;
},
{
hints = (
{
horizontal = 1;
origin = (0,15);
target = (0,8);
type = Stem;
},
{
horizontal = 1;
origin = (0,4);
target = down;
type = TopGhost;
}
);
layerId = "B86D9C3C-D3FC-40C7-BC9B-EF4509240B31";
shapes = (
{
closed = 1;
nodes = (
(168,-250,o),
(236,-152,o),
(258,-43,cs),
(352,441,l),
(202,441,l),
(108,-39,ls),
(101,-76,o),
(81,-110,o),
(36,-110,cs),
(5,-110,o),
(-14,-87,o),
(-25,-66,c),
(-124,-176,l),
(-88,-232,o),
(-27,-250,o),
(25,-250,cs)
);
}
);
width = 296;
},
{
hints = (
{
horizontal = 1;
origin = (0,15);
target = (0,8);
type = Stem;
},
{
horizontal = 1;
origin = (0,4);
target = down;
type = TopGhost;
},
{
origin = (0,12);
target = (0,3);
type = Stem;
}
);
layerId = "20FD933E-5CCA-4ADC-839D-1BAE82A4B007";
shapes = (
{
closed = 1;
nodes = (
(198,-252,o),
(265,-146,o),
(287,-29,cs),
(379,441,l),
(202,441,l),
(111,-24,ls),
(105,-55,o),
(91,-88,o),
(48,-88,cs),
(15,-88,o),
(0,-64,o),
(-11,-43,c),
(-126,-173,l),
(-86,-233,o),
(-20,-252,o),
(35,-252,cs)
);
}
);
width = 316;
}
);
unicode = 567;
},
{
glyphname = k;
lastChange = "2023-12-15 17:48:45 +0000";
layers = (
{
anchors = (
{
name = bottom;
pos = (242,5);
}
);
hints = (
{
horizontal = 1;
origin = (0,10);
target = up;
type = BottomGhost;
},
{
horizontal = 1;
origin = (0,6);
target = down;
type = TopGhost;
}
);
layerId = m01;
shapes = (
{
closed = 1;
nodes = (
(170,0,l),
(211,211,l),
(343,0,l),
(436,0,l),
(287,227,l),
(510,441,l),
(417,441,l),
(217,243,l),
(316,750,l),
(246,750,l),
(100,0,l)
);
}
);
width = 416;
},
{
anchors = (
{
name = bottom;
pos = (293,3);
}
);
hints = (
{
horizontal = 1;
origin = (0,10);
target = up;
type = BottomGhost;
},
{
horizontal = 1;
origin = (0,6);
target = down;
type = TopGhost;
}
);
layerId = "B86D9C3C-D3FC-40C7-BC9B-EF4509240B31";
shapes = (
{
closed = 1;
nodes = (
(240,0,l),
(278,195,l),
(395,0,l),
(587,0,l),
(422,231,l),
(653,441,l),
(467,441,l),
(292,266,l),
(386,750,l),
(236,750,l),
(90,0,l)
);
}
);
width = 557;
},
{
anchors = (
{
name = bottom;
pos = (309,2);
}
);
hints = (
{
horizontal = 1;
origin = (0,10);
target = up;
type = BottomGhost;
},
{
horizontal = 1;
origin = (0,6);
target = down;
type = TopGhost;
}
);
layerId = "20FD933E-5CCA-4ADC-839D-1BAE82A4B007";
shapes = (
{
closed = 1;
nodes = (
(263,0,l),
(300,190,l),
(412,0,l),
(637,0,l),
(467,232,l),
(701,441,l),
(484,441,l),
(316,274,l),
(409,750,l),
(233,750,l),
(87,0,l)
);
}
);
width = 604;
}
);
note = k;
unicode = 107;
},
{
glyphname = l;
lastChange = "2023-12-15 17:48:45 +0000";
layers = (
{
anchors = (
{
name = bottom;
pos = (136,0);
},
{
name = top;
pos = (284,750);
}
);
hints = (
{
horizontal = 1;
origin = (0,3);
target = up;
type = BottomGhost;
}
);
layerId = m01;
shapes = (
{
closed = 1;
nodes = (
(175,0,l),
(321,750,l),
(251,750,l),
(105,0,l)
);
}
);
width = 220;
},
{
anchors = (
{
name = bottom;
pos = (169,0);
},
{
name = top;
pos = (310,752);
}
);
hints = (
{
horizontal = 1;
origin = (0,3);
target = up;
type = BottomGhost;
},
{
origin = (0,3);
target = (0,1);
type = Stem;
}
);
layerId = "B86D9C3C-D3FC-40C7-BC9B-EF4509240B31";
shapes = (
{
closed = 1;
nodes = (
(240,0,l),
(386,750,l),
(236,750,l),
(90,0,l)
);
}
);
width = 270;
},
{
anchors = (
{
name = bottom;
pos = (180,0);
},
{
name = top;
pos = (319,753);
}
);
hints = (
{
horizontal = 1;
origin = (0,3);
target = up;
type = BottomGhost;
},
{
origin = (0,3);
target = (0,1);
type = Stem;
}
);
layerId = "20FD933E-5CCA-4ADC-839D-1BAE82A4B007";
shapes = (
{
closed = 1;
nodes = (
(262,0,l),
(408,750,l),
(231,750,l),
(85,0,l)
);
}
);
width = 287;
}
);
note = l;
unicode = 108;
},
{
glyphname = m;
kernRight = hmn;
lastChange = "2023-12-15 17:48:45 +0000";
layers = (
{
hints = (
{
horizontal = 1;
origin = (0,28);
target = (0,4);
type = Stem;
},
{
horizontal = 1;
origin = (0,33);
target = down;
type = TopGhost;
},
{
place = (715, 72);
place = (715, 72);
type = Stem;
}
);
layerId = m01;
shapes = (
{
closed = 1;
nodes = (
(170,2,l),
(214,227,l),
(238,308,o),
(297,382,o),
(372,382,cs),
(436,382,o),
(453,339,o),
(441,277,cs),
(387,2,l),
(457,2,l),
(511,277,ls),
(522,334,o),
(589,382,o),
(643,382,cs),
(707,382,o),
(724,339,o),
(712,277,cs),
(658,2,l),
(728,2,l),
(782,277,ls),
(803,386,o),
(760,452,o),
(659,452,cs),
(597,452,o),
(547,416,o),
(511,368,c),
(496,425,o),
(455,452,o),
(388,452,cs),
(327,452,o),
(278,417,o),
(242,372,c),
(256,442,l),
(186,442,l),
(100,2,l)
);
}
);
width = 758;
},
{
hints = (
{
horizontal = 1;
origin = (0,34);
target = up;
type = BottomGhost;
},
{
horizontal = 1;
origin = (0,33);
target = (0,4);
type = Stem;
},
{
horizontal = 1;
origin = (0,28);
target = (0,4);
type = Stem;
},
{
place = (730, 153);
place = (730, 153);
type = Stem;
}
);
layerId = "B86D9C3C-D3FC-40C7-BC9B-EF4509240B31";
shapes = (
{
closed = 1;
nodes = (
(240,0,l),
(283,220,ls),
(291,264,o),
(334,330,o),
(385,330,cs),
(435,330,o),
(441,287,o),
(432,244,cs),
(385,0,l),
(535,0,l),
(579,224,ls),
(588,274,o),
(622,330,o),
(680,330,cs),
(730,330,o),
(736,287,o),
(727,244,cs),
(680,0,l),
(830,0,l),
(877,244,ls),
(900,358,o),
(863,451,o),
(748,451,cs),
(679,451,o),
(626,431,o),
(572,376,c),
(551,426,o),
(506,451,o),
(450,451,cs),
(401,451,o),
(353,425,o),
(315,387,c),
(326,441,l),
(176,441,l),
(90,0,l)
);
}
);
width = 850;
},
{
hints = (
{
horizontal = 1;
origin = (0,34);
target = up;
type = BottomGhost;
},
{
horizontal = 1;
origin = (0,33);
target = (0,4);
type = Stem;
},
{
horizontal = 1;
origin = (0,28);
target = (0,4);
type = Stem;
},
{
place = (735, 180);
place = (735, 180);
type = Stem;
}
);
layerId = "20FD933E-5CCA-4ADC-839D-1BAE82A4B007";
shapes = (
{
closed = 1;
nodes = (
(263,-1,l),
(305,218,l),
(309,249,o),
(347,313,o),
(390,313,cs),
(435,313,o),
(436,270,o),
(429,233,cs),
(384,-1,l),
(561,-1,l),
(601,206,ls),
(610,254,o),
(633,313,o),
(693,313,cs),
(738,313,o),
(739,270,o),
(732,233,cs),
(687,-1,l),
(864,-1,l),
(909,233,ls),
(932,349,o),
(897,451,o),
(778,451,cs),
(706,451,o),
(652,436,o),
(593,379,c),
(569,426,o),
(523,451,o),
(471,451,cs),
(426,451,o),
(377,428,o),
(339,392,c),
(349,441,l),
(173,441,l),
(87,-1,l)
);
}
);
width = 881;
}
);
note = m;
unicode = 109;
},
{
glyphname = n;
kernRight = hmn;
lastChange = "2023-12-15 17:48:45 +0000";
layers = (
{
anchors = (
{
name = bottom;
pos = (296,5);
},
{
name = top;
pos = (384,448);
}
);
hints = (
{
horizontal = 1;
origin = (0,19);
target = up;
type = BottomGhost;
},
{
horizontal = 1;
origin = (0,13);
target = (0,4);
type = Stem;
},
{
horizontal = 1;
origin = (0,18);
target = down;
type = TopGhost;
},
{
place = (461, 71);
place = (461, 71);
type = Stem;
}
);
layerId = m01;
shapes = (
{
closed = 1;
nodes = (
(170,0,l),
(206,184,ls),
(227,292,o),
(286,379,o),
(394,379,cs),
(458,379,o),
(468,327,o),
(457,275,cs),
(404,0,l),
(474,0,l),
(527,275,ls),
(549,386,o),
(502,449,o),
(399,449,cs),
(334,449,o),
(278,412,o),
(241,364,c),
(256,440,l),
(186,440,l),
(100,0,l)
);
}
);
width = 504;
},
{
anchors = (
{
name = bottom;
pos = (318,5);
},
{
name = top;
pos = (427,452);
}
);
hints = (
{
horizontal = 1;
origin = (0,19);
target = up;
type = BottomGhost;
},
{
horizontal = 1;
origin = (0,18);
target = (0,4);
type = Stem;
},
{
horizontal = 1;
origin = (0,13);
target = (0,4);
type = Stem;
},
{
place = (443, 153);
place = (443, 153);
type = Stem;
}
);
layerId = "B86D9C3C-D3FC-40C7-BC9B-EF4509240B31";
shapes = (
{
closed = 1;
nodes = (
(240,0,l),
(283,220,ls),
(294,280,o),
(341,330,o),
(388,330,cs),
(435,330,o),
(450,302,o),
(440,250,cs),
(391,0,l),
(541,0,l),
(590,250,ls),
(613,370,o),
(581,451,o),
(463,451,cs),
(405,451,o),
(353,425,o),
(315,387,c),
(326,441,l),
(176,441,l),
(90,0,l)
);
}
);
width = 561;
},
{
anchors = (
{
name = bottom;
pos = (325,5);
},
{
name = top;
pos = (441,453);
}
);
hints = (
{
horizontal = 1;
origin = (0,19);
target = up;
type = BottomGhost;
},
{
horizontal = 1;
origin = (0,13);
target = down;
type = TopGhost;
},
{
horizontal = 1;
origin = (0,18);
target = (0,4);
type = Stem;
},
{
place = (437, 181);
place = (437, 181);
type = Stem;
}
);
layerId = "20FD933E-5CCA-4ADC-839D-1BAE82A4B007";
shapes = (
{
closed = 1;
nodes = (
(263,0,l),
(308,232,ls),
(317,276,o),
(360,314,o),
(386,314,cs),
(428,314,o),
(444,294,o),
(434,242,cs),
(387,0,l),
(563,0,l),
(610,242,ls),
(634,365,o),
(607,452,o),
(484,452,cs),
(428,452,o),
(377,429,o),
(340,395,c),
(349,441,l),
(173,441,l),
(87,0,l)
);
}
);
width = 580;
}
);
note = n;
unicode = 110;
},
{
glyphname = eng;
lastChange = "2023-12-15 17:48:45 +0000";
layers = (
{
hints = (
{
horizontal = 1;
origin = (1,3);
target = (1,12);
type = Stem;
}
);
layerId = m01;
shapes = (
{
alignment = -1;
ref = n;
},
{
closed = 1;
nodes = (
(229,-233,l),
(247,-240,o),
(267,-243,o),
(287,-243,cs),
(369,-243,o),
(441,-169,o),
(458,-84,cs),
(512,193,l),
(442,193,l),
(387,-85,ls),
(377,-139,o),
(339,-175,o),
(288,-175,cs),
(280,-175,o),
(271,-173,o),
(263,-170,c)
);
}
);
width = 504;
},
{
hints = (
{
horizontal = 1;
origin = (1,3);
target = (1,12);
type = Stem;
},
{
origin = (1,0);
target = (1,7);
type = Stem;
}
);
layerId = "B86D9C3C-D3FC-40C7-BC9B-EF4509240B31";
shapes = (
{
alignment = -1;
ref = n;
},
{
closed = 1;
nodes = (
(216,-232,l),
(243,-245,o),
(273,-250,o),
(300,-250,cs),
(443,-250,o),
(511,-152,o),
(533,-43,cs),
(576,182,l),
(426,182,l),
(383,-39,ls),
(376,-76,o),
(356,-110,o),
(311,-110,cs),
(301,-110,o),
(293,-108,o),
(286,-104,c)
);
}
);
width = 571;
},
{
hints = (
{
horizontal = 1;
origin = (1,3);
target = (1,12);
type = Stem;
},
{
origin = (1,0);
target = (1,7);
type = Stem;
}
);
layerId = "20FD933E-5CCA-4ADC-839D-1BAE82A4B007";
shapes = (
{
alignment = -1;
ref = n;
},
{
closed = 1;
nodes = (
(212,-232,l),
(242,-247,o),
(276,-252,o),
(305,-252,cs),
(468,-252,o),
(535,-146,o),
(557,-29,cs),
(598,178,l),
(422,178,l),
(382,-24,ls),
(376,-55,o),
(361,-88,o),
(318,-88,cs),
(308,-88,o),
(300,-86,o),
(293,-82,c)
);
}
);
width = 593;
}
);
unicode = 331;
},
{
glyphname = o;
kernLeft = cod;
kernRight = bop;
lastChange = "2023-12-15 17:48:45 +0000";
layers = (
{
anchors = (
{
name = top;
pos = (388,453);
}
);
hints = (
{
horizontal = 1;
origin = (0,11);
target = (1,11);
type = Stem;
},
{
horizontal = 1;
origin = (0,5);
target = (1,5);
type = Stem;
},
{
place = (109, 71);
place = (109, 71);
type = Stem;
},
{
place = (506, 71);
place = (506, 71);
type = Stem;
}
);
layerId = m01;
shapes = (
{
closed = 1;
nodes = (
(425,-7,o),
(548,93,o),
(573,222,cs),
(598,350,o),
(516,452,o),
(388,452,cs),
(260,452,o),
(138,350,o),
(113,222,cs),
(88,93,o),
(173,-7,o),
(299,-7,cs)
);
},
{
closed = 1;
nodes = (
(224,63,o),
(166,134,o),
(183,222,cs),
(200,311,o),
(285,382,o),
(374,382,cs),
(463,382,o),
(520,311,o),
(503,222,cs),
(486,134,o),
(400,63,o),
(312,63,cs)
);
}
);
width = 540;
},
{
anchors = (
{
name = top;
pos = (419,450);
}
);
hints = (
{
horizontal = 1;
origin = (0,11);
target = (1,11);
type = Stem;
},
{
horizontal = 1;
origin = (0,5);
target = (1,5);
type = Stem;
},
{
place = (103, 161);
place = (103, 161);
type = Stem;
},
{
place = (475, 160);
place = (475, 160);
type = Stem;
}
);
layerId = "B86D9C3C-D3FC-40C7-BC9B-EF4509240B31";
shapes = (
{
closed = 1;
nodes = (
(475,-9,o),
(603,79,o),
(631,220,cs),
(658,358,o),
(561,450,o),
(414,450,cs),
(266,450,o),
(135,358,o),
(108,220,cs),
(80,79,o),
(174,-9,o),
(325,-9,cs)
);
},
{
closed = 1;
nodes = (
(267,106,o),
(256,165,o),
(267,221,cs),
(278,276,o),
(313,335,o),
(392,335,cs),
(470,335,o),
(483,276,o),
(472,221,cs),
(461,165,o),
(428,106,o),
(348,106,cs)
);
}
);
width = 593;
},
{
anchors = (
{
name = top;
pos = (430,449);
}
);
hints = (
{
horizontal = 1;
origin = (0,11);
target = (1,11);
type = Stem;
},
{
horizontal = 1;
origin = (0,5);
target = (1,5);
type = Stem;
},
{
place = (101, 189);
place = (101, 189);
type = Stem;
},
{
place = (466, 188);
place = (466, 188);
type = Stem;
}
);
layerId = "20FD933E-5CCA-4ADC-839D-1BAE82A4B007";
shapes = (
{
closed = 1;
nodes = (
(492,-10,o),
(621,74,o),
(650,219,cs),
(677,361,o),
(576,449,o),
(423,449,cs),
(268,449,o),
(133,361,o),
(106,219,cs),
(77,74,o),
(175,-10,o),
(334,-10,cs)
);
},
{
closed = 1;
nodes = (
(280,120,o),
(286,175,o),
(295,221,cs),
(303,264,o),
(322,319,o),
(398,319,cs),
(472,319,o),
(470,264,o),
(462,221,cs),
(453,175,o),
(436,120,o),
(359,120,cs)
);
}
);
width = 611;
}
);
note = o;
unicode = 111;
},
{
glyphname = odieresis;
lastChange = "2023-12-06 19:01:18 +0000";
layers = (
{
background = {
shapes = (
{
closed = 1;
nodes = (
(193,517,o),
(203,521,o),
(212,530,cs),
(221,539,o),
(225,549,o),
(225,562,cs),
(225,574,o),
(221,584,o),
(212,593,cs),
(203,602,o),
(193,606,o),
(180,606,cs),
(167,606,o),
(157,602,o),
(149,593,cs),
(140,584,o),
(136,574,o),
(136,562,cs),
(136,549,o),
(140,539,o),
(149,530,cs),
(157,521,o),
(167,517,o),
(180,517,cs)
);
},
{
closed = 1;
nodes = (
(375,517,o),
(385,521,o),
(394,530,cs),
(403,539,o),
(407,549,o),
(407,562,cs),
(407,574,o),
(403,584,o),
(394,593,cs),
(385,602,o),
(375,606,o),
(362,606,cs),
(349,606,o),
(339,602,o),
(331,593,cs),
(322,584,o),
(318,574,o),
(318,562,cs),
(318,549,o),
(322,539,o),
(331,530,cs),
(339,521,o),
(349,517,o),
(362,517,cs)
);
}
);
};
layerId = m01;
shapes = (
{
ref = o;
},
{
pos = (-12,-244);
ref = dieresiscomb;
}
);
width = 540;
},
{
layerId = "B86D9C3C-D3FC-40C7-BC9B-EF4509240B31";
shapes = (
{
ref = o;
},
{
pos = (-30,-265);
ref = dieresiscomb;
}
);
width = 593;
},
{
layerId = "20FD933E-5CCA-4ADC-839D-1BAE82A4B007";
shapes = (
{
alignment = -1;
ref = o;
},
{
alignment = -1;
pos = (-31,-272);
ref = dieresiscomb;
}
);
width = 611;
}
);
note = odieresis;
unicode = 246;
},
{
glyphname = oslash;
lastChange = "2023-12-15 17:48:45 +0000";
layers = (
{
hints = (
{
horizontal = 1;
origin = (0,3);
target = (1,9);
type = Stem;
},
{
horizontal = 1;
origin = (0,15);
target = (2,5);
type = Stem;
},
{
place = (114, 71);
place = (114, 71);
type = Stem;
},
{
place = (511, 72);
place = (511, 72);
type = Stem;
}
);
layerId = m01;
shapes = (
{
closed = 1;
nodes = (
(172,40,l),
(205,11,o),
(251,-7,o),
(304,-7,cs),
(430,-7,o),
(553,93,o),
(578,222,cs),
(589,276,o),
(580,325,o),
(558,364,c),
(616,413,l),
(585,452,l),
(526,403,l),
(493,434,o),
(447,452,o),
(393,452,cs),
(265,452,o),
(143,350,o),
(118,222,cs),
(107,167,o),
(117,118,o),
(140,79,c),
(78,27,l),
(110,-12,l)
);
},
{
closed = 1;
nodes = (
(284,63,o),
(254,73,o),
(233,91,c),
(498,313,l),
(511,288,o),
(515,256,o),
(508,222,cs),
(491,134,o),
(405,63,o),
(317,63,cs)
);
},
{
closed = 1;
nodes = (
(186,155,o),
(181,187,o),
(188,222,cs),
(205,311,o),
(290,382,o),
(379,382,cs),
(414,382,o),
(444,371,o),
(467,353,c),
(200,129,l)
);
}
);
width = 550;
},
{
hints = (
{
horizontal = 1;
origin = (0,3);
target = (1,9);
type = Stem;
},
{
horizontal = 1;
origin = (0,15);
target = (2,5);
type = Stem;
},
{
place = (103, 150);
place = (103, 150);
type = Stem;
},
{
place = (462, 153);
place = (462, 153);
type = Stem;
},
{
place = (103, 154);
place = (103, 154);
type = Stem;
}
);
layerId = "B86D9C3C-D3FC-40C7-BC9B-EF4509240B31";
shapes = (
{
closed = 1;
nodes = (
(173,32,l),
(209,5,o),
(258,-9,o),
(315,-9,cs),
(455,-9,o),
(583,79,o),
(611,220,cs),
(623,281,o),
(610,333,o),
(581,372,c),
(657,435,l),
(628,470,l),
(549,405,l),
(512,434,o),
(462,450,o),
(404,450,cs),
(266,450,o),
(135,358,o),
(108,220,cs),
(95,155,o),
(108,102,o),
(139,63,c),
(68,3,l),
(96,-32,l)
);
},
{
closed = 1;
nodes = (
(311,104,o),
(292,110,o),
(279,120,c),
(463,273,l),
(466,256,o),
(465,238,o),
(462,219,cs),
(451,163,o),
(417,104,o),
(337,104,cs)
);
},
{
closed = 1;
nodes = (
(251,178,o),
(253,199,o),
(257,219,cs),
(267,274,o),
(303,333,o),
(382,333,cs),
(409,333,o),
(428,326,o),
(441,314,c),
(256,160,l)
);
}
);
width = 573;
},
{
hints = (
{
horizontal = 1;
origin = (0,3);
target = (1,9);
type = Stem;
},
{
horizontal = 1;
origin = (0,15);
target = (2,5);
type = Stem;
},
{
horizontal = 1;
origin = (0,10);
target = down;
type = TopGhost;
},
{
horizontal = 1;
origin = (0,22);
target = up;
type = BottomGhost;
},
{
place = (100, 174);
place = (100, 174);
type = Stem;
},
{
place = (452, 174);
place = (452, 174);
type = Stem;
}
);
layerId = "20FD933E-5CCA-4ADC-839D-1BAE82A4B007";
shapes = (
{
closed = 1;
nodes = (
(173,29,l),
(211,3,o),
(261,-10,o),
(319,-10,cs),
(464,-10,o),
(593,74,o),
(622,219,cs),
(634,283,o),
(620,336,o),
(589,375,c),
(670,442,l),
(643,476,l),
(557,405,l),
(518,434,o),
(467,449,o),
(408,449,cs),
(267,449,o),
(132,361,o),
(105,219,cs),
(91,151,o),
(105,96,o),
(139,58,c),
(64,-5,l),
(91,-39,l)
);
},
{
closed = 1;
nodes = (
(320,118,o),
(305,123,o),
(294,130,c),
(452,260,l),
(451,246,o),
(449,231,o),
(446,218,cs),
(438,173,o),
(421,118,o),
(344,118,cs)
);
},
{
closed = 1;
nodes = (
(273,186,o),
(276,203,o),
(279,218,cs),
(288,262,o),
(307,317,o),
(383,317,cs),
(407,317,o),
(422,311,o),
(433,301,c),
(274,170,l)
);
}
);
width = 581;
}
);
note = oslash;
unicode = 248;
},
{
glyphname = otilde;
lastChange = "2023-12-15 17:48:45 +0000";
layers = (
{
background = {
shapes = (
{
closed = 1;
nodes = (
(366,506,o),
(386,513,o),
(400,526,cs),
(427,551,o),
(438,587,o),
(433,631,c),
(384,631,l),
(384,606,o),
(382,589,o),
(379,582,cs),
(376,575,o),
(372,570,o),
(366,567,cs),
(360,564,o),
(351,562,o),
(339,562,cs),
(327,562,o),
(317,566,o),
(310,575,cs),
(302,583,o),
(294,592,o),
(286,602,cs),
(277,612,o),
(267,621,o),
(255,630,cs),
(243,638,o),
(225,642,o),
(200,642,cs),
(175,642,o),
(156,636,o),
(143,623,cs),
(116,598,o),
(104,563,o),
(105,518,c),
(154,518,l),
(153,531,o),
(153,542,o),
(156,552,cs),
(161,575,o),
(175,587,o),
(197,587,cs),
(210,587,o),
(221,583,o),
(229,575,cs),
(237,566,o),
(245,557,o),
(254,547,cs),
(262,536,o),
(272,527,o),
(284,519,cs),
(296,510,o),
(315,506,o),
(341,506,cs)
);
}
);
};
layerId = m01;
shapes = (
{
ref = o;
},
{
pos = (-8,-226);
ref = tildecomb;
}
);
width = 540;
},
{
layerId = "B86D9C3C-D3FC-40C7-BC9B-EF4509240B31";
shapes = (
{
ref = o;
},
{
pos = (59,-125);
ref = tildecomb;
}
);
width = 593;
},
{
layerId = "20FD933E-5CCA-4ADC-839D-1BAE82A4B007";
shapes = (
{
alignment = -1;
ref = o;
},
{
alignment = -1;
pos = (100,-91);
ref = tildecomb;
}
);
width = 611;
}
);
note = otilde;
unicode = 245;
},
{
glyphname = oe;
kernLeft = cod;
kernRight = bop;
lastChange = "2023-12-15 17:48:45 +0000";
layers = (
{
hints = (
{
horizontal = 1;
origin = (0,32);
target = (1,11);
type = Stem;
},
{
horizontal = 1;
origin = (0,15);
target = (2,6);
type = Stem;
},
{
horizontal = 1;
origin = (0,26);
target = (1,5);
type = Stem;
},
{
place = (109, 71);
place = (109, 71);
type = Stem;
},
{
place = (506, 64);
place = (506, 64);
type = Stem;
},
{
place = (896, 72);
place = (896, 72);
type = Stem;
}
);
layerId = m01;
shapes = (
{
closed = 1;
nodes = (
(377,-7,o),
(458,33,o),
(514,100,c),
(545,30,o),
(610,-7,o),
(693,-7,cs),
(775,-7,o),
(869,41,o),
(925,129,c),
(845,129,l),
(807,88,o),
(753,63,o),
(702,63,cs),
(627,63,o),
(568,115,o),
(570,193,c),
(957,193,l),
(964,230,ls),
(989,362,o),
(895,452,o),
(771,452,cs),
(706,452,o),
(622,418,o),
(562,345,c),
(532,412,o),
(468,452,o),
(388,452,cs),
(260,452,o),
(138,350,o),
(113,222,cs),
(87,86,o),
(177,-7,o),
(305,-7,cs)
);
},
{
closed = 1;
nodes = (
(224,63,o),
(166,134,o),
(183,222,cs),
(200,311,o),
(285,382,o),
(374,382,cs),
(463,382,o),
(520,311,o),
(503,222,cs),
(486,134,o),
(400,63,o),
(312,63,cs)
);
},
{
closed = 1;
nodes = (
(615,332,o),
(689,382,o),
(764,382,cs),
(841,382,o),
(891,331,o),
(896,258,c),
(584,258,l)
);
}
);
width = 929;
},
{
hints = (
{
horizontal = 1;
origin = (0,32);
target = (1,11);
type = Stem;
},
{
horizontal = 1;
origin = (0,15);
target = (2,6);
type = Stem;
},
{
horizontal = 1;
origin = (0,26);
target = (2,2);
type = Stem;
},
{
horizontal = 1;
origin = (0,5);
target = (0,12);
type = Stem;
},
{
horizontal = 1;
origin = (0,26);
target = (1,5);
type = Stem;
},
{
place = (103, 150);
place = (103, 150);
type = Stem;
},
{
place = (830, 141);
place = (830, 141);
type = Stem;
},
{
place = (465, 168);
place = (465, 168);
type = Stem;
}
);
layerId = "B86D9C3C-D3FC-40C7-BC9B-EF4509240B31";
shapes = (
{
closed = 1;
nodes = (
(384,-9,o),
(449,12,o),
(502,50,c),
(539,11,o),
(599,-11,o),
(674,-11,cs),
(791,-11,o),
(896,47,o),
(945,163,c),
(792,163,l),
(784,131,o),
(745,96,o),
(692,96,cs),
(633,96,o),
(607,150,o),
(617,201,c),
(959,201,l),
(966,229,l),
(993,370,o),
(897,450,o),
(763,450,cs),
(690,450,o),
(622,427,o),
(569,387,c),
(531,427,o),
(473,450,o),
(404,450,cs),
(266,450,o),
(135,358,o),
(108,220,cs),
(80,79,o),
(174,-9,o),
(315,-9,cs)
);
},
{
closed = 1;
nodes = (
(256,104,o),
(246,163,o),
(257,219,cs),
(267,274,o),
(303,333,o),
(382,333,cs),
(460,333,o),
(472,274,o),
(462,219,cs),
(451,163,o),
(417,104,o),
(337,104,cs)
);
},
{
closed = 1;
nodes = (
(636,290,o),
(654,354,o),
(748,354,cs),
(830,354,o),
(832,283,o),
(830,272,c),
(633,272,l)
);
}
);
width = 923;
},
{
hints = (
{
horizontal = 1;
origin = (0,32);
target = (1,11);
type = Stem;
},
{
horizontal = 1;
origin = (0,15);
target = (2,6);
type = Stem;
},
{
horizontal = 1;
origin = (0,26);
target = (2,2);
type = Stem;
},
{
horizontal = 1;
origin = (0,5);
target = (0,12);
type = Stem;
},
{
horizontal = 1;
origin = (0,26);
target = (1,5);
type = Stem;
},
{
place = (101, 176);
place = (101, 176);
type = Stem;
},
{
place = (452, 177);
place = (452, 177);
type = Stem;
},
{
place = (808, 167);
place = (808, 167);
type = Stem;
},
{
place = (452, 197);
place = (452, 197);
type = Stem;
}
);
layerId = "20FD933E-5CCA-4ADC-839D-1BAE82A4B007";
shapes = (
{
closed = 1;
nodes = (
(386,-10,o),
(446,5,o),
(497,33,c),
(538,5,o),
(596,-12,o),
(668,-12,cs),
(797,-12,o),
(906,49,o),
(951,174,c),
(774,174,l),
(777,145,o),
(742,107,o),
(688,107,cs),
(635,107,o),
(620,162,o),
(633,204,c),
(960,204,l),
(967,229,ls),
(1007,373,o),
(898,449,o),
(761,449,cs),
(685,449,o),
(622,430,o),
(571,401,c),
(530,432,o),
(474,449,o),
(410,449,cs),
(268,449,o),
(133,361,o),
(106,219,cs),
(78,77,o),
(173,-10,o),
(319,-10,cs)
);
},
{
closed = 1;
nodes = (
(267,118,o),
(273,173,o),
(281,218,cs),
(290,262,o),
(309,317,o),
(385,317,cs),
(459,317,o),
(456,262,o),
(447,218,cs),
(439,173,o),
(423,118,o),
(346,118,cs)
);
},
{
closed = 1;
nodes = (
(651,295,o),
(672,345,o),
(742,345,cs),
(808,345,o),
(811,291,o),
(808,277,c),
(649,277,l)
);
}
);
width = 921;
}
);
note = oe;
unicode = 339;
},
{
glyphname = p;
kernRight = bop;
lastChange = "2023-12-15 17:48:45 +0000";
layers = (
{
hints = (
{
horizontal = 1;
origin = (0,4);
target = (1,11);
type = Stem;
},
{
horizontal = 1;
origin = (0,10);
target = (1,5);
type = Stem;
},
{
horizontal = 1;
origin = (0,15);
target = down;
type = TopGhost;
},
{
place = (526, 71);
place = (526, 71);
type = Stem;
}
);
layerId = m01;
shapes = (
{
closed = 1;
nodes = (
(121,-250,l),
(185,75,l),
(214,24,o),
(262,-10,o),
(334,-10,cs),
(458,-10,o),
(569,99,o),
(593,220,cs),
(616,341,o),
(547,450,o),
(423,450,cs),
(351,450,o),
(290,416,o),
(241,365,c),
(256,440,l),
(186,440,l),
(51,-250,l)
);
},
{
closed = 1;
nodes = (
(247,60,o),
(196,135,o),
(213,220,cs),
(229,305,o),
(309,380,o),
(399,380,cs),
(489,380,o),
(539,305,o),
(523,220,cs),
(506,135,o),
(427,60,o),
(337,60,cs)
);
}
);
width = 560;
},
{
hints = (
{
horizontal = 1;
origin = (0,4);
target = (1,11);
type = Stem;
},
{
horizontal = 1;
origin = (0,15);
target = (1,5);
type = Stem;
},
{
horizontal = 1;
origin = (0,10);
target = (1,5);
type = Stem;
}
);
layerId = "B86D9C3C-D3FC-40C7-BC9B-EF4509240B31";
shapes = (
{
closed = 1;
nodes = (
(191,-250,l),
(250,53,l),
(272,8,o),
(332,-10,o),
(389,-10,cs),
(514,-10,o),
(629,98,o),
(653,220,cs),
(676,342,o),
(604,451,o),
(479,451,cs),
(422,451,o),
(364,435,o),
(315,387,c),
(326,441,l),
(176,441,l),
(41,-250,l)
);
},
{
closed = 1;
nodes = (
(306,110,o),
(271,162,o),
(283,220,cs),
(294,278,o),
(349,330,o),
(409,330,cs),
(469,330,o),
(504,278,o),
(493,220,cs),
(481,162,o),
(426,110,o),
(366,110,cs)
);
}
);
width = 615;
},
{
hints = (
{
horizontal = 1;
origin = (0,4);
target = (1,11);
type = Stem;
},
{
horizontal = 1;
origin = (0,15);
target = (1,5);
type = Stem;
},
{
horizontal = 1;
origin = (0,10);
target = (1,5);
type = Stem;
}
);
layerId = "20FD933E-5CCA-4ADC-839D-1BAE82A4B007";
shapes = (
{
closed = 1;
nodes = (
(214,-250,l),
(272,46,l),
(291,3,o),
(355,-10,o),
(407,-10,cs),
(533,-10,o),
(649,98,o),
(673,220,cs),
(696,342,o),
(623,451,o),
(497,451,cs),
(445,451,o),
(388,441,o),
(340,394,c),
(349,441,l),
(173,441,l),
(38,-250,l)
);
},
{
closed = 1;
nodes = (
(327,127,o),
(296,171,o),
(306,220,cs),
(315,269,o),
(363,313,o),
(413,313,cs),
(463,313,o),
(492,269,o),
(483,220,cs),
(473,171,o),
(427,127,o),
(377,127,cs)
);
}
);
width = 633;
}
);
note = p;
unicode = 112;
},
{
glyphname = thorn;
lastChange = "2023-12-15 17:48:45 +0000";
layers = (
{
hints = (
{
horizontal = 1;
origin = (0,4);
target = (1,11);
type = Stem;
},
{
horizontal = 1;
origin = (0,10);
target = (1,5);
type = Stem;
},
{
place = (526, 72);
place = (526, 72);
type = Stem;
}
);
layerId = m01;
shapes = (
{
closed = 1;
nodes = (
(121,-250,l),
(185,75,l),
(205,37,o),
(251,-10,o),
(334,-10,cs),
(457,-10,o),
(569,97,o),
(593,220,cs),
(617,343,o),
(546,450,o),
(423,450,cs),
(341,450,o),
(279,405,o),
(241,365,c),
(316,750,l),
(246,750,l),
(51,-250,l)
);
},
{
closed = 1;
nodes = (
(248,60,o),
(196,135,o),
(213,220,cs),
(229,305,o),
(309,380,o),
(399,380,cs),
(489,380,o),
(539,305,o),
(523,220,cs),
(506,135,o),
(427,60,o),
(337,60,cs)
);
}
);
width = 560;
},
{
hints = (
{
horizontal = 1;
origin = (0,4);
target = (1,11);
type = Stem;
},
{
horizontal = 1;
origin = (0,10);
target = (1,5);
type = Stem;
}
);
layerId = "B86D9C3C-D3FC-40C7-BC9B-EF4509240B31";
shapes = (
{
closed = 1;
nodes = (
(191,-250,l),
(250,53,l),
(272,8,o),
(332,-10,o),
(389,-10,cs),
(514,-10,o),
(629,98,o),
(653,220,cs),
(676,342,o),
(604,451,o),
(479,451,cs),
(422,451,o),
(364,435,o),
(315,387,c),
(386,750,l),
(236,750,l),
(41,-250,l)
);
},
{
closed = 1;
nodes = (
(306,110,o),
(271,162,o),
(283,220,cs),
(294,278,o),
(349,330,o),
(409,330,cs),
(469,330,o),
(504,278,o),
(493,220,cs),
(481,162,o),
(426,110,o),
(366,110,cs)
);
}
);
width = 615;
},
{
hints = (
{
horizontal = 1;
origin = (0,4);
target = (1,11);
type = Stem;
},
{
horizontal = 1;
origin = (0,10);
target = (1,5);
type = Stem;
}
);
layerId = "20FD933E-5CCA-4ADC-839D-1BAE82A4B007";
shapes = (
{
closed = 1;
nodes = (
(214,-250,l),
(272,46,l),
(294,-2,o),
(359,-10,o),
(407,-10,cs),
(533,-10,o),
(649,98,o),
(673,220,cs),
(696,342,o),
(623,451,o),
(497,451,cs),
(449,451,o),
(391,445,o),
(340,394,c),
(409,750,l),
(233,750,l),
(38,-250,l)
);
},
{
closed = 1;
nodes = (
(326,127,o),
(296,171,o),
(306,220,cs),
(315,269,o),
(363,313,o),
(413,313,cs),
(463,313,o),
(492,269,o),
(483,220,cs),
(473,171,o),
(427,127,o),
(377,127,cs)
);
}
);
width = 633;
}
);
note = thorn;
unicode = 254;
},
{
glyphname = q;
kernLeft = cod;
lastChange = "2023-12-15 17:48:45 +0000";
layers = (
{
hints = (
{
horizontal = 1;
origin = (1,15);
target = (1,6);
type = Stem;
},
{
horizontal = 1;
origin = (0,12);
target = (2,11);
type = Stem;
},
{
horizontal = 1;
origin = (0,6);
target = (2,5);
type = Stem;
},
{
horizontal = 1;
origin = (0,2);
target = down;
type = TopGhost;
},
{
place = (108, 72);
place = (108, 72);
type = Stem;
}
);
layerId = m01;
shapes = (
{
closed = 1;
nodes = (
(506,-70,l),
(606,440,l),
(536,440,l),
(521,365,l),
(492,416,o),
(443,450,o),
(371,450,cs),
(247,450,o),
(136,341,o),
(113,220,cs),
(89,99,o),
(158,-10,o),
(282,-10,cs),
(354,-10,o),
(416,24,o),
(465,75,c),
(436,-70,l)
);
},
{
closed = 1;
nodes = (
(543,-253,o),
(590,-232,o),
(625,-178,c),
(583,-144,l),
(569,-160,o),
(548,-184,o),
(526,-184,cs),
(491,-184,o),
(488,-166,o),
(495,-127,cs),
(508,-64,l),
(438,-64,l),
(422,-143,ls),
(410,-208,o),
(447,-253,o),
(513,-253,cs)
);
},
{
closed = 1;
nodes = (
(217,60,o),
(166,135,o),
(183,220,cs),
(199,305,o),
(279,380,o),
(369,380,cs),
(459,380,o),
(509,305,o),
(493,220,cs),
(476,135,o),
(397,60,o),
(307,60,cs)
);
}
);
width = 555;
},
{
hints = (
{
horizontal = 1;
origin = (1,15);
target = (1,6);
type = Stem;
},
{
horizontal = 1;
origin = (0,12);
target = (2,11);
type = Stem;
},
{
horizontal = 1;
origin = (0,6);
target = (2,5);
type = Stem;
},
{
horizontal = 1;
origin = (0,2);
target = down;
type = TopGhost;
},
{
place = (418, 158);
place = (418, 158);
type = Stem;
}
);
layerId = "B86D9C3C-D3FC-40C7-BC9B-EF4509240B31";
shapes = (
{
closed = 1;
nodes = (
(574,-55,l),
(671,441,l),
(521,441,l),
(510,387,l),
(481,435,o),
(428,451,o),
(372,451,cs),
(247,451,o),
(131,342,o),
(108,220,cs),
(84,98,o),
(157,-10,o),
(282,-10,cs),
(338,-10,o),
(407,8,o),
(445,53,c),
(425,-52,l)
);
},
{
closed = 1;
nodes = (
(640,-250,o),
(701,-228,o),
(757,-176,c),
(706,-77,l),
(686,-96,o),
(651,-122,o),
(620,-122,cs),
(575,-122,o),
(569,-80,o),
(577,-39,cs),
(579,-31,l),
(430,-28,l),
(421,-73,ls),
(405,-154,o),
(457,-250,o),
(593,-250,cs)
);
},
{
closed = 1;
nodes = (
(291,110,o),
(256,162,o),
(268,220,cs),
(279,278,o),
(334,330,o),
(394,330,cs),
(454,330,o),
(489,278,o),
(478,220,cs),
(466,162,o),
(411,110,o),
(351,110,cs)
);
}
);
width = 615;
},
{
hints = (
{
horizontal = 1;
origin = (1,15);
target = (1,6);
type = Stem;
},
{
horizontal = 1;
origin = (0,12);
target = (2,11);
type = Stem;
},
{
horizontal = 1;
origin = (0,6);
target = (2,5);
type = Stem;
},
{
horizontal = 1;
origin = (0,2);
target = (2,5);
type = Stem;
},
{
place = (417, 185);
place = (417, 185);
type = Stem;
}
);
layerId = "20FD933E-5CCA-4ADC-839D-1BAE82A4B007";
shapes = (
{
closed = 1;
nodes = (
(597,-50,l),
(693,441,l),
(516,441,l),
(507,394,l),
(477,441,o),
(423,451,o),
(372,451,cs),
(247,451,o),
(129,342,o),
(106,220,cs),
(82,98,o),
(157,-10,o),
(282,-10,cs),
(333,-10,o),
(404,3,o),
(439,46,c),
(421,-46,l)
);
},
{
closed = 1;
nodes = (
(673,-249,o),
(738,-227,o),
(801,-175,c),
(747,-55,l),
(725,-75,o),
(685,-101,o),
(651,-101,cs),
(603,-101,o),
(597,-51,o),
(605,-10,cs),
(603,-20,l),
(427,-16,l),
(420,-50,ls),
(404,-136,o),
(461,-249,o),
(621,-249,cs)
);
},
{
closed = 1;
nodes = (
(317,127,o),
(286,171,o),
(296,220,cs),
(305,269,o),
(353,313,o),
(403,313,cs),
(453,313,o),
(482,269,o),
(473,220,cs),
(463,171,o),
(417,127,o),
(367,127,cs)
);
}
);
width = 635;
}
);
note = q;
unicode = 113;
},
{
glyphname = r;
lastChange = "2023-12-15 17:48:45 +0000";
layers = (
{
anchors = (
{
name = bottom;
pos = (148,0);
},
{
name = top;
pos = (309,447);
}
);
hints = (
{
horizontal = 1;
origin = (0,17);
target = up;
type = BottomGhost;
},
{
horizontal = 1;
origin = (0,11);
target = (0,4);
type = Stem;
},
{
horizontal = 1;
origin = (0,16);
target = (0,4);
type = Stem;
}
);
layerId = m01;
shapes = (
{
closed = 1;
nodes = (
(170,0,l),
(213,220,ls),
(227,293,o),
(281,371,o),
(346,371,cs),
(365,371,o),
(381,364,o),
(394,349,c),
(412,440,l),
(399,446,o),
(384,449,o),
(369,449,cs),
(320,449,o),
(279,427,o),
(239,354,c),
(256,440,l),
(186,440,l),
(100,0,l)
);
}
);
width = 326;
},
{
anchors = (
{
name = bottom;
pos = (199,0);
},
{
name = top;
pos = (362,446);
}
);
hints = (
{
horizontal = 1;
origin = (0,17);
target = up;
type = BottomGhost;
},
{
horizontal = 1;
origin = (0,11);
target = down;
type = TopGhost;
},
{
horizontal = 1;
origin = (0,16);
target = (0,4);
type = Stem;
},
{
origin = (0,17);
target = (0,8);
type = Stem;
}
);
layerId = "B86D9C3C-D3FC-40C7-BC9B-EF4509240B31";
shapes = (
{
closed = 1;
nodes = (
(240,0,l),
(283,220,ls),
(293,273,o),
(357,330,o),
(413,330,cs),
(436,330,o),
(459,323,o),
(470,305,c),
(497,441,l),
(486,447,o),
(467,451,o),
(454,451,cs),
(399,451,o),
(345,420,o),
(315,387,c),
(326,441,l),
(176,441,l),
(90,0,l)
);
}
);
width = 406;
},
{
anchors = (
{
name = bottom;
pos = (216,0);
},
{
name = top;
pos = (380,446);
}
);
hints = (
{
horizontal = 1;
origin = (0,17);
target = up;
type = BottomGhost;
},
{
horizontal = 1;
origin = (0,11);
target = down;
type = TopGhost;
},
{
horizontal = 1;
origin = (0,16);
target = (0,4);
type = Stem;
},
{
origin = (0,17);
target = (0,8);
type = Stem;
}
);
layerId = "20FD933E-5CCA-4ADC-839D-1BAE82A4B007";
shapes = (
{
closed = 1;
nodes = (
(263,0,l),
(306,220,ls),
(315,266,o),
(389,316,o),
(442,316,cs),
(466,316,o),
(491,309,o),
(502,290,c),
(532,441,l),
(522,447,o),
(501,452,o),
(489,452,cs),
(432,452,o),
(366,418,o),
(340,398,c),
(349,441,l),
(173,441,l),
(87,0,l)
);
}
);
width = 439;
}
);
note = r;
unicode = 114;
},
{
glyphname = s;
lastChange = "2023-12-18 16:06:02 +0000";
layers = (
{
anchors = (
{
name = bottom;
pos = (232,-7);
},
{
name = top;
pos = (312,445);
}
);
hints = (
{
horizontal = 1;
origin = (0,43);
target = (0,36);
type = Stem;
},
{
horizontal = 1;
origin = (0,21);
target = (0,14);
type = Stem;
},
{
place = (356, 78);
place = (356, 78);
type = Stem;
}
);
layerId = m01;
shapes = (
{
closed = 1;
nodes = (
(325,-13,o),
(412,28,o),
(431,126,cs),
(441,173,o),
(424,208,o),
(384,229,cs),
(349,247,o),
(287,261,o),
(265,267,cs),
(235,277,o),
(202,291,o),
(210,334,cs),
(218,376,o),
(261,392,o),
(301,392,cs),
(348,392,o),
(374,377,o),
(379,331,c),
(454,331,l),
(452,422,o),
(397,450,o),
(314,450,cs),
(232,450,o),
(150,407,o),
(132,317,cs),
(124,271,o),
(144,240,o),
(182,220,cs),
(215,203,o),
(271,191,o),
(299,181,cs),
(342,166,o),
(361,145,o),
(356,117,cs),
(346,69,o),
(310,45,o),
(245,45,cs),
(194,45,o),
(158,64,o),
(155,123,c),
(81,123,l),
(78,32,o),
(128,-13,o),
(230,-13,cs)
);
}
);
width = 402;
},
{
anchors = (
{
name = bottom;
pos = (286,-5);
},
{
name = top;
pos = (370,444);
}
);
hints = (
{
horizontal = 1;
origin = (0,43);
target = (0,36);
type = Stem;
},
{
horizontal = 1;
origin = (0,21);
target = (0,17);
type = Stem;
},
{
horizontal = 1;
origin = (0,21);
target = (0,14);
type = Stem;
},
{
place = (379, 155);
place = (379, 155);
type = Stem;
}
);
layerId = "B86D9C3C-D3FC-40C7-BC9B-EF4509240B31";
shapes = (
{
closed = 1;
nodes = (
(414,-10,o),
(510,28,o),
(531,132,cs),
(543,196,o),
(516,231,o),
(475,251,cs),
(437,270,o),
(390,276,o),
(350,283,cs),
(308,289,o),
(278,296,o),
(282,317,cs),
(285,336,o),
(319,351,o),
(348,351,cs),
(377,351,o),
(412,342,o),
(411,307,c),
(558,307,l),
(564,408,o),
(488,451,o),
(372,451,cs),
(226,451,o),
(147,401,o),
(129,311,cs),
(122,272,o),
(134,247,o),
(157,230,cs),
(197,199,o),
(271,194,o),
(322,182,cs),
(360,173,o),
(385,160,o),
(379,131,cs),
(375,107,o),
(343,94,o),
(309,94,cs),
(276,94,o),
(218,98,o),
(231,164,c),
(82,164,l),
(66,39,o),
(155,-10,o),
(286,-10,cs)
);
}
);
width = 505;
},
{
anchors = (
{
name = bottom;
pos = (304,-4);
},
{
name = top;
pos = (389,444);
}
);
hints = (
{
horizontal = 1;
origin = (0,43);
target = (0,36);
type = Stem;
},
{
horizontal = 1;
origin = (0,21);
target = (0,17);
type = Stem;
},
{
horizontal = 1;
origin = (0,21);
target = (0,14);
type = Stem;
},
{
place = (80, 174);
place = (80, 174);
type = Stem;
},
{
place = (387, 180);
place = (387, 180);
type = Stem;
}
);
layerId = "20FD933E-5CCA-4ADC-839D-1BAE82A4B007";
shapes = (
{
closed = 1;
nodes = (
(443,-9,o),
(543,28,o),
(564,134,cs),
(578,204,o),
(546,239,o),
(505,258,cs),
(467,278,o),
(424,281,o),
(378,288,cs),
(333,293,o),
(302,298,o),
(305,311,cs),
(309,327,o),
(340,342,o),
(365,342,cs),
(388,342,o),
(425,330,o),
(421,299,c),
(592,299,l),
(601,403,o),
(518,451,o),
(391,451,cs),
(224,451,o),
(146,399,o),
(128,309,cs),
(121,272,o),
(130,249,o),
(148,233,cs),
(190,198,o),
(271,195,o),
(330,182,cs),
(365,175,o),
(394,165,o),
(387,136,cs),
(383,118,o),
(353,105,o),
(329,105,cs),
(302,105,o),
(238,109,o),
(257,178,c),
(83,178,l),
(61,41,o),
(164,-9,o),
(304,-9,cs)
);
}
);
width = 539;
}
);
note = s;
unicode = 115;
},
{
glyphname = germandbls;
lastChange = "2023-12-15 17:48:45 +0000";
layers = (
{
hints = (
{
horizontal = 1;
origin = (0,38);
target = (0,20);
type = Stem;
},
{
horizontal = 1;
origin = (0,12);
target = (0,11);
type = Stem;
},
{
horizontal = 1;
origin = (0,4);
target = (0,34);
type = Stem;
},
{
place = (514, 70);
place = (514, 70);
type = Stem;
}
);
layerId = m01;
shapes = (
{
closed = 1;
nodes = (
(172,0,l),
(253,416,ls),
(277,541,o),
(307,617,o),
(421,617,cs),
(486,617,o),
(526,571,o),
(515,512,cs),
(503,451,o),
(444,406,o),
(380,406,cs),
(370,406,l),
(358,344,l),
(392,344,ls),
(468,344,o),
(527,291,o),
(511,212,cs),
(495,131,o),
(414,67,o),
(338,67,cs),
(269,67,l),
(259,0,l),
(325,0,ls),
(441,0,o),
(558,89,o),
(581,205,cs),
(599,298,o),
(545,357,o),
(474,386,c),
(528,411,o),
(578,456,o),
(590,521,cs),
(610,625,o),
(532,685,o),
(434,685,cs),
(280,685,o),
(216,595,o),
(186,441,cs),
(100,0,l)
);
}
);
width = 551;
},
{
hints = (
{
horizontal = 1;
origin = (0,38);
target = (0,20);
type = Stem;
},
{
horizontal = 1;
origin = (0,12);
target = (0,11);
type = Stem;
},
{
horizontal = 1;
origin = (0,4);
target = (0,34);
type = Stem;
},
{
place = (465, 151);
place = (465, 151);
type = Stem;
},
{
origin = (0,16);
target = (0,31);
type = Stem;
}
);
layerId = "B86D9C3C-D3FC-40C7-BC9B-EF4509240B31";
shapes = (
{
closed = 1;
nodes = (
(240,0,l),
(337,500,ls),
(341,522,o),
(366,562,o),
(409,562,cs),
(452,562,o),
(473,527,o),
(465,483,cs),
(457,440,o),
(405,404,o),
(371,404,cs),
(355,404,l),
(331,281,l),
(390,281,ls),
(435,281,o),
(465,243,o),
(457,199,cs),
(448,154,o),
(392,117,o),
(358,117,cs),
(298,117,l),
(275,0,l),
(365,0,ls),
(487,0,o),
(586,78,o),
(609,195,cs),
(627,287,o),
(577,348,o),
(504,366,c),
(560,389,o),
(600,441,o),
(613,510,cs),
(631,603,o),
(562,680,o),
(446,680,cs),
(282,680,o),
(207,603,o),
(180,464,cs),
(90,0,l)
);
}
);
width = 551;
},
{
hints = (
{
horizontal = 1;
origin = (0,38);
target = (0,20);
type = Stem;
},
{
horizontal = 1;
origin = (0,12);
target = (0,11);
type = Stem;
},
{
horizontal = 1;
origin = (0,4);
target = (0,34);
type = Stem;
},
{
place = (448, 175);
place = (448, 175);
type = Stem;
},
{
place = (439, 183);
place = (439, 183);
type = Stem;
}
);
layerId = "20FD933E-5CCA-4ADC-839D-1BAE82A4B007";
shapes = (
{
closed = 1;
nodes = (
(263,0,l),
(366,528,ls),
(363,516,o),
(385,544,o),
(406,544,cs),
(441,544,o),
(456,512,o),
(448,473,cs),
(441,436,o),
(391,403,o),
(367,403,cs),
(349,403,l),
(322,260,l),
(389,260,ls),
(424,260,o),
(445,227,o),
(439,195,cs),
(432,162,o),
(384,134,o),
(364,134,cs),
(307,134,l),
(280,0,l),
(378,0,ls),
(502,0,o),
(595,74,o),
(618,192,cs),
(636,283,o),
(587,345,o),
(514,359,c),
(570,382,o),
(607,436,o),
(620,506,cs),
(638,596,o),
(572,678,o),
(450,678,cs),
(283,678,o),
(205,606,o),
(179,472,cs),
(87,0,l)
);
}
);
width = 551;
}
);
note = germandbls;
unicode = 223;
},
{
glyphname = t;
lastChange = "2023-12-15 17:48:45 +0000";
layers = (
{
hints = (
{
horizontal = 1;
origin = (0,11);
target = up;
type = BottomGhost;
},
{
horizontal = 1;
origin = (0,8);
target = (0,9);
type = Stem;
}
);
layerId = m01;
shapes = (
{
closed = 1;
nodes = (
(235,0,l),
(308,375,l),
(417,375,l),
(430,440,l),
(321,440,l),
(354,611,l),
(284,611,l),
(251,440,l),
(141,440,l),
(128,375,l),
(238,375,l),
(165,0,l)
);
}
);
width = 339;
},
{
hints = (
{
horizontal = 1;
origin = (0,11);
target = up;
type = BottomGhost;
},
{
horizontal = 1;
origin = (0,8);
target = (0,9);
type = Stem;
},
{
origin = (0,9);
target = (0,3);
type = Stem;
}
);
layerId = "B86D9C3C-D3FC-40C7-BC9B-EF4509240B31";
shapes = (
{
closed = 1;
nodes = (
(304,0,l),
(367,325,l),
(467,325,l),
(490,441,l),
(390,441,l),
(422,609,l),
(273,609,l),
(241,441,l),
(141,441,l),
(118,325,l),
(218,325,l),
(155,0,l)
);
}
);
width = 399;
},
{
hints = (
{
horizontal = 1;
origin = (0,11);
target = up;
type = BottomGhost;
},
{
horizontal = 1;
origin = (0,8);
target = (0,9);
type = Stem;
},
{
origin = (0,9);
target = (0,3);
type = Stem;
}
);
layerId = "20FD933E-5CCA-4ADC-839D-1BAE82A4B007";
shapes = (
{
closed = 1;
nodes = (
(327,0,l),
(387,308,l),
(484,308,l),
(510,441,l),
(413,441,l),
(445,608,l),
(270,608,l),
(238,441,l),
(141,441,l),
(115,308,l),
(212,308,l),
(152,0,l)
);
}
);
width = 419;
}
);
note = t;
unicode = 116;
},
{
glyphname = u;
lastChange = "2023-12-15 17:48:45 +0000";
layers = (
{
anchors = (
{
name = ogonek;
pos = (455,2);
},
{
name = top;
pos = (371,435);
}
);
hints = (
{
horizontal = 1;
origin = (0,19);
target = (0,10);
type = Stem;
},
{
horizontal = 1;
origin = (0,15);
target = down;
type = TopGhost;
},
{
horizontal = 1;
origin = (0,3);
target = up;
type = BottomGhost;
},
{
place = (128, 71);
place = (128, 71);
type = Stem;
}
);
layerId = m01;
shapes = (
{
closed = 1;
nodes = (
(320,-9,o),
(375,19,o),
(419,75,c),
(404,0,l),
(474,0,l),
(560,440,l),
(490,440,l),
(454,256,ls),
(433,147,o),
(383,61,o),
(266,61,cs),
(202,61,o),
(192,113,o),
(202,165,cs),
(256,440,l),
(186,440,l),
(132,165,ls),
(113,68,o),
(151,-9,o),
(255,-9,cs)
);
}
);
width = 504;
},
{
anchors = (
{
name = ogonek;
pos = (487,2);
},
{
name = top;
pos = (401,441);
}
);
hints = (
{
horizontal = 1;
origin = (0,19);
target = (0,10);
type = Stem;
},
{
horizontal = 1;
origin = (0,15);
target = down;
type = TopGhost;
},
{
horizontal = 1;
origin = (0,3);
target = (0,10);
type = Stem;
},
{
place = (121, 153);
place = (121, 153);
type = Stem;
}
);
layerId = "B86D9C3C-D3FC-40C7-BC9B-EF4509240B31";
shapes = (
{
closed = 1;
nodes = (
(312,-10,o),
(364,16,o),
(401,54,c),
(391,0,l),
(541,0,l),
(627,441,l),
(477,441,l),
(434,220,ls),
(422,161,o),
(375,110,o),
(328,110,cs),
(281,110,o),
(267,139,o),
(277,190,cs),
(326,441,l),
(176,441,l),
(127,190,ls),
(104,71,o),
(136,-10,o),
(254,-10,cs)
);
}
);
width = 561;
},
{
anchors = (
{
name = ogonek;
pos = (498,2);
},
{
name = top;
pos = (411,443);
}
);
hints = (
{
horizontal = 1;
origin = (0,19);
target = up;
type = BottomGhost;
},
{
horizontal = 1;
origin = (0,15);
target = down;
type = TopGhost;
},
{
horizontal = 1;
origin = (0,3);
target = (0,10);
type = Stem;
},
{
place = (118, 531);
place = (118, 531);
type = Stem;
}
);
layerId = "20FD933E-5CCA-4ADC-839D-1BAE82A4B007";
shapes = (
{
closed = 1;
nodes = (
(309,-10,o),
(361,15,o),
(396,47,c),
(387,0,l),
(563,0,l),
(649,441,l),
(473,441,l),
(427,208,ls),
(419,166,o),
(372,126,o),
(349,126,cs),
(307,126,o),
(292,148,o),
(301,198,cs),
(349,441,l),
(173,441,l),
(125,198,ls),
(101,72,o),
(131,-10,o),
(254,-10,cs)
);
}
);
width = 580;
}
);
note = u;
unicode = 117;
},
{
glyphname = v;
kernLeft = vw;
kernRight = vw;
lastChange = "2023-12-15 17:48:45 +0000";
layers = (
{
hints = (
{
horizontal = 1;
origin = (0,6);
target = up;
type = BottomGhost;
},
{
horizontal = 1;
origin = (0,5);
target = down;
type = TopGhost;
}
);
layerId = m01;
shapes = (
{
closed = 1;
nodes = (
(260,-1,l),
(531,440,l),
(455,440,l),
(265,113,l),
(202,440,l),
(126,440,l),
(226,-1,l)
);
}
);
width = 425;
},
{
hints = (
{
horizontal = 1;
origin = (0,6);
target = up;
type = BottomGhost;
},
{
horizontal = 1;
origin = (0,5);
target = down;
type = TopGhost;
},
{
horizontal = 1;
origin = (0,6);
target = (0,3);
type = Stem;
}
);
layerId = "B86D9C3C-D3FC-40C7-BC9B-EF4509240B31";
shapes = (
{
closed = 1;
nodes = (
(385,0,l),
(639,441,l),
(487,441,l),
(320,126,l),
(277,441,l),
(126,441,l),
(208,0,l)
);
}
);
width = 533;
},
{
hints = (
{
horizontal = 1;
origin = (0,6);
target = up;
type = BottomGhost;
},
{
horizontal = 1;
origin = (0,5);
target = down;
type = TopGhost;
},
{
horizontal = 1;
origin = (0,6);
target = (0,3);
type = Stem;
}
);
layerId = "20FD933E-5CCA-4ADC-839D-1BAE82A4B007";
shapes = (
{
closed = 1;
nodes = (
(427,0,l),
(675,441,l),
(498,441,l),
(339,130,l),
(302,441,l),
(126,441,l),
(202,0,l)
);
}
);
width = 569;
}
);
note = v;
unicode = 118;
},
{
glyphname = w;
kernLeft = vw;
kernRight = vw;
lastChange = "2023-12-15 17:48:45 +0000";
layers = (
{
anchors = (
{
name = bottom;
pos = (395,8);
},
{
name = top;
pos = (476,438);
}
);
hints = (
{
horizontal = 1;
origin = (0,12);
target = up;
type = BottomGhost;
},
{
horizontal = 1;
origin = (0,11);
target = down;
type = TopGhost;
},
{
horizontal = 1;
origin = (0,12);
target = (0,9);
type = Stem;
}
);
layerId = m01;
shapes = (
{
closed = 1;
nodes = (
(274,1,l),
(450,299,l),
(512,1,l),
(559,1,l),
(830,440,l),
(752,440,l),
(554,101,l),
(491,418,l),
(455,418,l),
(270,101,l),
(204,440,l),
(126,440,l),
(227,1,l)
);
}
);
width = 724;
},
{
anchors = (
{
name = bottom;
pos = (449,6);
},
{
name = top;
pos = (534,440);
}
);
hints = (
{
horizontal = 1;
origin = (0,12);
target = up;
type = BottomGhost;
},
{
horizontal = 1;
origin = (0,11);
target = down;
type = TopGhost;
},
{
horizontal = 1;
origin = (0,12);
target = (0,9);
type = Stem;
}
);
layerId = "B86D9C3C-D3FC-40C7-BC9B-EF4509240B31";
shapes = (
{
closed = 1;
nodes = (
(364,0,l),
(502,275,l),
(535,0,l),
(706,0,l),
(947,441,l),
(782,441,l),
(635,153,l),
(593,441,l),
(477,441,l),
(324,153,l),
(290,441,l),
(126,441,l),
(192,0,l)
);
}
);
width = 841;
},
{
anchors = (
{
name = bottom;
pos = (467,5);
},
{
name = top;
pos = (553,441);
}
);
hints = (
{
horizontal = 1;
origin = (0,12);
target = up;
type = BottomGhost;
},
{
horizontal = 1;
origin = (0,8);
target = down;
type = TopGhost;
},
{
horizontal = 1;
origin = (0,12);
target = (0,9);
type = Stem;
},
{
horizontal = 1;
origin = (0,11);
target = down;
type = TopGhost;
}
);
layerId = "20FD933E-5CCA-4ADC-839D-1BAE82A4B007";
shapes = (
{
closed = 1;
nodes = (
(394,0,l),
(520,267,l),
(543,0,l),
(755,0,l),
(986,441,l),
(792,441,l),
(662,170,l),
(626,449,l),
(484,449,l),
(342,170,l),
(319,441,l),
(126,441,l),
(180,0,l)
);
}
);
width = 880;
}
);
note = w;
unicode = 119;
},
{
glyphname = x;
lastChange = "2023-12-15 17:48:45 +0000";
layers = (
{
hints = (
{
horizontal = 1;
origin = (0,11);
target = up;
type = BottomGhost;
},
{
horizontal = 1;
origin = (0,9);
target = down;
type = TopGhost;
}
);
layerId = m01;
shapes = (
{
closed = 1;
nodes = (
(144,0,l),
(287,171,l),
(364,0,l),
(453,0,l),
(342,220,l),
(539,440,l),
(450,440,l),
(307,271,l),
(230,440,l),
(141,440,l),
(252,221,l),
(55,0,l)
);
}
);
width = 448;
},
{
hints = (
{
horizontal = 1;
origin = (0,11);
target = up;
type = BottomGhost;
},
{
horizontal = 1;
origin = (0,9);
target = down;
type = TopGhost;
}
);
layerId = "B86D9C3C-D3FC-40C7-BC9B-EF4509240B31";
shapes = (
{
closed = 1;
nodes = (
(213,0,l),
(331,136,l),
(397,0,l),
(580,0,l),
(444,222,l),
(652,440,l),
(478,440,l),
(364,305,l),
(304,440,l),
(130,440,l),
(252,222,l),
(30,0,l)
);
}
);
width = 550;
},
{
hints = (
{
horizontal = 1;
origin = (0,11);
target = up;
type = BottomGhost;
},
{
horizontal = 1;
origin = (0,9);
target = down;
type = TopGhost;
}
);
layerId = "20FD933E-5CCA-4ADC-839D-1BAE82A4B007";
shapes = (
{
closed = 1;
nodes = (
(236,0,l),
(346,124,l),
(408,0,l),
(622,0,l),
(478,223,l),
(690,440,l),
(487,440,l),
(383,316,l),
(329,440,l),
(126,440,l),
(252,222,l),
(22,0,l)
);
}
);
width = 584;
}
);
note = x;
unicode = 120;
},
{
glyphname = y;
kernLeft = vw;
kernRight = vw;
lastChange = "2023-12-15 17:48:45 +0000";
layers = (
{
anchors = (
{
name = top;
pos = (341,439);
}
);
hints = (
{
horizontal = 1;
origin = (0,5);
target = down;
type = TopGhost;
}
);
layerId = m01;
shapes = (
{
closed = 1;
nodes = (
(112,-250,l),
(551,440,l),
(473,440,l),
(289,145,l),
(206,440,l),
(126,440,l),
(238,72,l),
(27,-250,l)
);
}
);
width = 445;
},
{
anchors = (
{
name = top;
pos = (380,441);
}
);
hints = (
{
horizontal = 1;
origin = (0,5);
target = down;
type = TopGhost;
}
);
layerId = "B86D9C3C-D3FC-40C7-BC9B-EF4509240B31";
shapes = (
{
closed = 1;
nodes = (
(255,-250,l),
(654,441,l),
(502,441,l),
(339,146,l),
(282,441,l),
(131,441,l),
(229,-32,l),
(99,-250,l)
);
}
);
width = 553;
},
{
anchors = (
{
name = top;
pos = (393,442);
}
);
hints = (
{
horizontal = 1;
origin = (0,5);
target = down;
type = TopGhost;
}
);
layerId = "20FD933E-5CCA-4ADC-839D-1BAE82A4B007";
shapes = (
{
closed = 1;
nodes = (
(303,-250,l),
(688,441,l),
(512,441,l),
(356,146,l),
(307,441,l),
(133,441,l),
(226,-67,l),
(123,-250,l)
);
}
);
width = 589;
}
);
note = y;
unicode = 121;
},
{
glyphname = ydieresis;
lastChange = "2023-12-15 17:48:45 +0000";
layers = (
{
background = {
shapes = (
{
closed = 1;
nodes = (
(135.67,517,o),
(146.33,521.33,o),
(155,530,cs),
(163.67,538.67,o),
(168,549.17,o),
(168,561.5,cs),
(168,573.83,o),
(163.67,584.33,o),
(155,593,cs),
(146.33,601.67,o),
(135.67,606,o),
(123,606,cs),
(110.33,606,o),
(99.83,601.67,o),
(91.5,593,cs),
(83.17,584.33,o),
(79,573.83,o),
(79,561.5,cs),
(79,549.17,o),
(83.17,538.67,o),
(91.5,530,cs),
(99.83,521.33,o),
(110.33,517,o),
(123,517,cs)
);
},
{
closed = 1;
nodes = (
(317.67,517,o),
(328.33,521.33,o),
(337,530,cs),
(345.67,538.67,o),
(350,549.17,o),
(350,561.5,cs),
(350,573.83,o),
(345.67,584.33,o),
(337,593,cs),
(328.33,601.67,o),
(317.67,606,o),
(305,606,cs),
(292.33,606,o),
(281.83,601.67,o),
(273.5,593,cs),
(265.17,584.33,o),
(261,573.83,o),
(261,561.5,cs),
(261,549.17,o),
(265.17,538.67,o),
(273.5,530,cs),
(281.83,521.33,o),
(292.33,517,o),
(305,517,cs)
);
}
);
};
layerId = m01;
shapes = (
{
ref = y;
},
{
pos = (-59,-258);
ref = dieresiscomb;
}
);
width = 445;
},
{
layerId = "B86D9C3C-D3FC-40C7-BC9B-EF4509240B31";
shapes = (
{
ref = y;
},
{
pos = (-69,-274);
ref = dieresiscomb;
}
);
width = 553;
},
{
layerId = "20FD933E-5CCA-4ADC-839D-1BAE82A4B007";
shapes = (
{
alignment = -1;
ref = y;
},
{
alignment = -1;
pos = (-18,-279);
ref = dieresiscomb;
}
);
width = 589;
}
);
note = ydieresis;
unicode = 255;
},
{
glyphname = z;
lastChange = "2023-12-15 17:48:45 +0000";
layers = (
{
anchors = (
{
name = top;
pos = (331,440);
}
);
hints = (
{
horizontal = 1;
origin = (0,7);
target = (0,2);
type = Stem;
},
{
horizontal = 1;
origin = (0,4);
target = (0,5);
type = Stem;
}
);
layerId = m01;
shapes = (
{
closed = 1;
nodes = (
(460,0,l),
(473,65,l),
(192,65,l),
(533,440,l),
(148,440,l),
(135,375,l),
(386,375,l),
(45,0,l)
);
}
);
width = 455;
},
{
anchors = (
{
name = top;
pos = (363,440);
}
);
hints = (
{
horizontal = 1;
origin = (0,7);
target = (0,2);
type = Stem;
},
{
horizontal = 1;
origin = (0,4);
target = (0,5);
type = Stem;
}
);
layerId = "B86D9C3C-D3FC-40C7-BC9B-EF4509240B31";
shapes = (
{
closed = 1;
nodes = (
(504,0,l),
(527,119,l),
(323,119,l),
(588,441,l),
(156,441,l),
(134,327,l),
(336,327,l),
(50,0,l)
);
}
);
width = 504;
},
{
anchors = (
{
name = top;
pos = (374,440);
}
);
hints = (
{
horizontal = 1;
origin = (0,7);
target = (0,2);
type = Stem;
},
{
horizontal = 1;
origin = (0,4);
target = (0,5);
type = Stem;
}
);
layerId = "20FD933E-5CCA-4ADC-839D-1BAE82A4B007";
shapes = (
{
closed = 1;
nodes = (
(519,0,l),
(546,137,l),
(367,137,l),
(606,441,l),
(159,441,l),
(133,311,l),
(318,311,l),
(52,0,l)
);
}
);
width = 520;
}
);
note = z;
unicode = 122;
},
{
glyphname = zero;
lastChange = "2023-12-15 17:48:45 +0000";
layers = (
{
hints = (
{
horizontal = 1;
origin = (0,11);
target = (1,11);
type = Stem;
},
{
horizontal = 1;
origin = (0,5);
target = (1,5);
type = Stem;
},
{
place = (134, 71);
place = (134, 71);
type = Stem;
},
{
place = (546, 72);
place = (546, 72);
type = Stem;
}
);
layerId = m01;
shapes = (
{
closed = 1;
nodes = (
(480,-9,o),
(574,177,o),
(606,341,cs),
(638,505,o),
(616,691,o),
(444,691,cs),
(272,691,o),
(178,505,o),
(146,341,cs),
(114,177,o),
(136,-9,o),
(308,-9,cs)
);
},
{
closed = 1;
nodes = (
(181,62,o),
(199,251,o),
(219,355,cs),
(242,474,o),
(317,621,o),
(429,621,cs),
(542,621,o),
(561,468,o),
(536,338,cs),
(513,222,o),
(431,62,o),
(319,62,cs)
);
}
);
width = 560;
},
{
hints = (
{
horizontal = 1;
origin = (0,11);
target = (1,11);
type = Stem;
},
{
horizontal = 1;
origin = (0,5);
target = (1,5);
type = Stem;
},
{
place = (122, 150);
place = (122, 150);
type = Stem;
},
{
place = (535, 151);
place = (535, 151);
type = Stem;
}
);
layerId = "B86D9C3C-D3FC-40C7-BC9B-EF4509240B31";
shapes = (
{
closed = 1;
nodes = (
(532,-12,o),
(647,186,o),
(677,338,cs),
(703,471,o),
(680,690,o),
(472,690,cs),
(264,690,o),
(157,471,o),
(131,338,cs),
(101,186,o),
(140,-12,o),
(336,-12,cs)
);
},
{
closed = 1;
nodes = (
(265,124,o),
(263,245,o),
(281,339,cs),
(298,425,o),
(349,554,o),
(446,554,cs),
(545,554,o),
(544,425,o),
(527,337,cs),
(509,247,o),
(457,124,o),
(362,124,cs)
);
}
);
width = 616;
},
{
hints = (
{
horizontal = 1;
origin = (0,11);
target = (1,11);
type = Stem;
},
{
horizontal = 1;
origin = (1,5);
target = (0,5);
type = Stem;
},
{
place = (118, 176);
place = (118, 176);
type = Stem;
},
{
place = (532, 176);
place = (532, 176);
type = Stem;
}
);
layerId = "20FD933E-5CCA-4ADC-839D-1BAE82A4B007";
shapes = (
{
closed = 1;
nodes = (
(548,-13,o),
(672,189,o),
(701,337,cs),
(724,460,o),
(701,690,o),
(481,690,cs),
(261,690,o),
(149,460,o),
(126,337,cs),
(97,189,o),
(140,-13,o),
(344,-13,cs)
);
},
{
closed = 1;
nodes = (
(293,145,o),
(284,243,o),
(302,334,cs),
(317,409,o),
(359,532,o),
(451,532,cs),
(545,532,o),
(538,411,o),
(524,337,cs),
(508,255,o),
(466,145,o),
(376,145,cs)
);
}
);
width = 635;
}
);
note = zero;
unicode = 48;
},
{
glyphname = one;
lastChange = "2023-12-15 17:48:45 +0000";
layers = (
{
hints = (
{
horizontal = 1;
origin = (0,5);
target = up;
type = BottomGhost;
},
{
horizontal = 1;
origin = (0,1);
target = down;
type = TopGhost;
},
{
origin = (0,5);
target = (0,1);
type = Stem;
}
);
layerId = m01;
shapes = (
{
closed = 1;
nodes = (
(248,0,l),
(382,688,l),
(210,670,l),
(198,609,l),
(296,609,l),
(178,0,l)
);
}
);
width = 287;
},
{
hints = (
{
horizontal = 1;
origin = (0,5);
target = up;
type = BottomGhost;
},
{
horizontal = 1;
origin = (0,1);
target = down;
type = TopGhost;
},
{
origin = (0,5);
target = (0,1);
type = Stem;
}
);
layerId = "B86D9C3C-D3FC-40C7-BC9B-EF4509240B31";
shapes = (
{
closed = 1;
nodes = (
(309,0,l),
(441,680,l),
(198,605,l),
(178,502,l),
(257,502,l),
(159,0,l)
);
}
);
width = 339;
},
{
hints = (
{
horizontal = 1;
origin = (0,5);
target = up;
type = BottomGhost;
},
{
origin = (0,5);
target = (0,1);
type = Stem;
}
);
layerId = "20FD933E-5CCA-4ADC-839D-1BAE82A4B007";
shapes = (
{
closed = 1;
nodes = (
(329,0,l),
(461,677,l),
(193,583,l),
(171,466,l),
(244,466,l),
(153,0,l)
);
}
);
width = 356;
}
);
note = one;
unicode = 49;
},
{
glyphname = two;
lastChange = "2023-12-15 17:48:45 +0000";
layers = (
{
hints = (
{
horizontal = 1;
origin = (0,23);
target = (0,2);
type = Stem;
},
{
horizontal = 1;
origin = (0,9);
target = (0,16);
type = Stem;
},
{
place = (583, 76);
place = (583, 76);
type = Stem;
}
);
layerId = m01;
shapes = (
{
closed = 1;
nodes = (
(572,0,l),
(586,70,l),
(276,70,l),
(558,305,ls),
(611,349,o),
(643,402,o),
(655,464,cs),
(681,595,o),
(591,691,o),
(469,691,cs),
(342,691,o),
(214,590,o),
(193,454,c),
(264,454,l),
(272,537,o),
(360,619,o),
(452,619,cs),
(540,619,o),
(597,550,o),
(580,465,cs),
(572,422,o),
(550,385,o),
(514,355,cs),
(93,0,l)
);
}
);
width = 615;
},
{
hints = (
{
horizontal = 1;
origin = (0,23);
target = (0,2);
type = Stem;
},
{
horizontal = 1;
origin = (0,9);
target = (0,16);
type = Stem;
}
);
layerId = "B86D9C3C-D3FC-40C7-BC9B-EF4509240B31";
shapes = (
{
closed = 1;
nodes = (
(552,0,l),
(578,136,l),
(372,136,l),
(462,226,ls),
(535,300,o),
(612,366,o),
(632,469,cs),
(658,601,o),
(586,690,o),
(454,690,cs),
(308,690,o),
(210,578,o),
(182,447,c),
(323,447,l),
(340,518,o),
(379,548,o),
(428,548,cs),
(473,548,o),
(499,518,o),
(489,469,cs),
(480,423,o),
(429,378,o),
(396,344,cs),
(60,0,l)
);
}
);
width = 572;
},
{
hints = (
{
horizontal = 1;
origin = (0,23);
target = (0,2);
type = Stem;
},
{
horizontal = 1;
origin = (0,16);
target = (0,9);
type = Stem;
}
);
layerId = "20FD933E-5CCA-4ADC-839D-1BAE82A4B007";
shapes = (
{
closed = 1;
nodes = (
(545,0,l),
(576,158,l),
(405,158,l),
(430,200,ls),
(510,284,o),
(602,354,o),
(625,471,cs),
(650,603,o),
(584,690,o),
(449,690,cs),
(297,690,o),
(210,574,o),
(178,445,c),
(342,445,l),
(363,512,o),
(385,524,o),
(419,524,cs),
(450,524,o),
(466,507,o),
(458,470,cs),
(449,423,o),
(389,376,o),
(356,340,cs),
(49,0,l)
);
}
);
width = 558;
}
);
note = two;
unicode = 50;
},
{
glyphname = three;
lastChange = "2023-12-15 17:48:45 +0000";
layers = (
{
hints = (
{
horizontal = 1;
origin = (0,40);
target = (0,33);
type = Stem;
},
{
horizontal = 1;
origin = (0,26);
target = (0,25);
type = Stem;
},
{
horizontal = 1;
origin = (0,11);
target = (0,18);
type = Stem;
},
{
place = (478, 77);
place = (478, 77);
type = Stem;
}
);
layerId = m01;
shapes = (
{
closed = 1;
nodes = (
(401,-10,o),
(525,67,o),
(550,198,cs),
(566,277,o),
(541,334,o),
(487,367,c),
(543,397,o),
(582,446,o),
(594,510,cs),
(616,625,o),
(529,692,o),
(422,692,cs),
(341,692,o),
(253,658,o),
(200,569,c),
(270,551,l),
(305,601,o),
(359,625,o),
(405,625,cs),
(485,625,o),
(539,584,o),
(524,509,cs),
(510,437,o),
(446,399,o),
(365,399,cs),
(317,399,l),
(303,326,l),
(350,326,ls),
(438,326,o),
(491,282,o),
(475,199,cs),
(458,113,o),
(383,60,o),
(296,60,cs),
(246,60,o),
(198,94,o),
(182,151,c),
(105,131,l),
(125,29,o),
(198,-10,o),
(285,-10,cs)
);
}
);
width = 532;
},
{
hints = (
{
horizontal = 1;
origin = (0,40);
target = (0,33);
type = Stem;
},
{
horizontal = 1;
origin = (0,26);
target = (0,25);
type = Stem;
},
{
horizontal = 1;
origin = (0,11);
target = (0,18);
type = Stem;
},
{
place = (101, 154);
place = (101, 154);
type = Stem;
},
{
place = (472, 153);
place = (472, 153);
type = Stem;
}
);
layerId = "B86D9C3C-D3FC-40C7-BC9B-EF4509240B31";
shapes = (
{
closed = 1;
nodes = (
(445,-10,o),
(568,72,o),
(596,214,cs),
(608,278,o),
(594,340,o),
(534,371,c),
(577,398,o),
(612,452,o),
(620,494,cs),
(647,631,o),
(557,690,o),
(435,690,cs),
(318,690,o),
(205,618,o),
(171,486,c),
(322,486,l),
(336,533,o),
(364,558,o),
(413,558,cs),
(453,558,o),
(480,534,o),
(472,494,cs),
(464,451,o),
(438,418,o),
(392,418,cs),
(330,418,l),
(308,302,l),
(370,302,ls),
(426,302,o),
(458,274,o),
(447,214,cs),
(437,165,o),
(391,125,o),
(341,125,cs),
(287,125,o),
(255,144,o),
(255,200,c),
(104,200,l),
(81,44,o),
(185,-10,o),
(313,-10,cs)
);
}
);
width = 559;
},
{
hints = (
{
horizontal = 1;
origin = (0,40);
target = (0,33);
type = Stem;
},
{
horizontal = 1;
origin = (0,26);
target = (0,25);
type = Stem;
},
{
horizontal = 1;
origin = (0,11);
target = (0,18);
type = Stem;
},
{
place = (96, 7);
place = (96, 7);
type = Stem;
},
{
place = (455, 179);
place = (455, 179);
type = Stem;
}
);
layerId = "20FD933E-5CCA-4ADC-839D-1BAE82A4B007";
shapes = (
{
closed = 1;
nodes = (
(460,-10,o),
(582,74,o),
(611,219,cs),
(622,278,o),
(611,342,o),
(549,372,c),
(588,398,o),
(622,454,o),
(629,489,cs),
(657,633,o),
(567,689,o),
(440,689,cs),
(311,689,o),
(190,605,o),
(162,458,c),
(340,464,l),
(346,510,o),
(366,536,o),
(416,536,cs),
(443,536,o),
(460,517,o),
(455,489,cs),
(449,456,o),
(435,424,o),
(401,424,cs),
(334,424,l),
(309,294,l),
(376,294,ls),
(421,294,o),
(448,271,o),
(438,219,cs),
(430,182,o),
(395,147,o),
(357,147,cs),
(302,147,o),
(274,161,o),
(279,216,c),
(103,223,l),
(66,49,o),
(181,-10,o),
(322,-10,cs)
);
}
);
width = 568;
}
);
note = three;
unicode = 51;
},
{
glyphname = four;
lastChange = "2023-12-15 17:48:45 +0000";
layers = (
{
hints = (
{
horizontal = 1;
origin = (1,3);
target = up;
type = BottomGhost;
},
{
horizontal = 1;
origin = (0,6);
target = (0,2);
type = Stem;
},
{
horizontal = 1;
origin = (0,5);
target = down;
type = TopGhost;
}
);
layerId = m01;
shapes = (
{
closed = 1;
nodes = (
(596,262,l),
(610,332,l),
(195,332,l),
(220,301,l),
(292,680,l),
(222,680,l),
(141,262,l)
);
},
{
closed = 1;
nodes = (
(444,0,l),
(575,680,l),
(505,680,l),
(373,0,l)
);
}
);
width = 565;
},
{
hints = (
{
horizontal = 1;
origin = (1,3);
target = up;
type = BottomGhost;
},
{
horizontal = 1;
origin = (0,6);
target = (0,2);
type = Stem;
},
{
horizontal = 1;
origin = (0,5);
target = down;
type = TopGhost;
}
);
layerId = "B86D9C3C-D3FC-40C7-BC9B-EF4509240B31";
shapes = (
{
closed = 1;
nodes = (
(644,213,l),
(671,351,l),
(220,351,l),
(274,284,l),
(351,680,l),
(212,680,l),
(121,213,l)
);
},
{
closed = 1;
nodes = (
(497,0,l),
(629,680,l),
(480,680,l),
(348,0,l)
);
}
);
width = 613;
},
{
hints = (
{
horizontal = 1;
origin = (1,3);
target = up;
type = BottomGhost;
},
{
horizontal = 1;
origin = (0,6);
target = (0,2);
type = Stem;
},
{
horizontal = 1;
origin = (0,5);
target = down;
type = TopGhost;
}
);
layerId = "20FD933E-5CCA-4ADC-839D-1BAE82A4B007";
shapes = (
{
closed = 1;
nodes = (
(660,197,l),
(691,357,l),
(228,357,l),
(292,278,l),
(371,680,l),
(209,680,l),
(115,197,l)
);
},
{
closed = 1;
nodes = (
(515,0,l),
(647,680,l),
(472,680,l),
(340,0,l)
);
}
);
width = 629;
}
);
note = four;
unicode = 52;
},
{
glyphname = five;
lastChange = "2023-12-15 17:48:45 +0000";
layers = (
{
hints = (
{
horizontal = 1;
origin = (0,30);
target = (0,23);
type = Stem;
},
{
horizontal = 1;
origin = (0,5);
target = (0,17);
type = Stem;
},
{
horizontal = 1;
origin = (0,12);
target = (0,9);
type = Stem;
},
{
place = (500, 74);
place = (500, 74);
type = Stem;
}
);
layerId = m01;
shapes = (
{
closed = 1;
nodes = (
(424,-12,o),
(545,92,o),
(570,220,cs),
(597,359,o),
(497,444,o),
(390,444,cs),
(361,444,o),
(328,439,o),
(292,428,c),
(374,610,l),
(620,610,l),
(633,680,l),
(334,680,l),
(197,375,l),
(266,341,l),
(299,362,o),
(336,373,o),
(376,373,cs),
(460,373,o),
(513,298,o),
(497,215,cs),
(482,138,o),
(408,59,o),
(299,59,cs),
(253,59,o),
(204,88,o),
(185,137,c),
(117,101,l),
(144,31,o),
(212,-12,o),
(294,-12,cs)
);
}
);
width = 550;
},
{
hints = (
{
horizontal = 1;
origin = (0,30);
target = (0,23);
type = Stem;
},
{
horizontal = 1;
origin = (0,17);
target = (0,5);
type = Stem;
},
{
horizontal = 1;
origin = (0,12);
target = (0,9);
type = Stem;
}
);
layerId = "B86D9C3C-D3FC-40C7-BC9B-EF4509240B31";
shapes = (
{
closed = 1;
nodes = (
(418,-10,o),
(561,78,o),
(591,229,cs),
(616,358,o),
(562,455,o),
(411,456,cs),
(397,456,o),
(383,455,o),
(368,454,c),
(410,546,l),
(625,546,l),
(651,680,l),
(331,680,l),
(188,377,l),
(253,320,l),
(305,333,o),
(324,336,o),
(340,336,cs),
(404,336,o),
(456,305,o),
(442,230,cs),
(428,158,o),
(362,129,o),
(300,129,cs),
(270,129,o),
(233,144,o),
(213,174,c),
(92,85,l),
(131,28,o),
(199,-10,o),
(271,-10,cs)
);
}
);
width = 556;
},
{
hints = (
{
horizontal = 1;
origin = (0,30);
target = (0,23);
type = Stem;
},
{
horizontal = 1;
origin = (0,17);
target = (0,5);
type = Stem;
},
{
horizontal = 1;
origin = (0,12);
target = (0,9);
type = Stem;
}
);
layerId = "20FD933E-5CCA-4ADC-839D-1BAE82A4B007";
shapes = (
{
closed = 1;
nodes = (
(416,-9,o),
(566,73,o),
(597,232,cs),
(622,358,o),
(584,459,o),
(417,460,cs),
(408,460,o),
(401,460,o),
(394,463,c),
(422,525,l),
(627,525,l),
(657,680,l),
(330,680,l),
(185,378,l),
(249,313,l),
(307,323,o),
(321,324,o),
(328,324,cs),
(386,324,o),
(438,307,o),
(424,235,cs),
(410,165,o),
(347,152,o),
(301,152,cs),
(276,152,o),
(243,163,o),
(222,186,c),
(84,80,l),
(127,27,o),
(195,-9,o),
(263,-9,cs)
);
}
);
width = 558;
}
);
note = five;
unicode = 53;
},
{
glyphname = six;
lastChange = "2023-12-15 17:48:45 +0000";
layers = (
{
hints = (
{
horizontal = 1;
origin = (0,15);
target = (1,11);
type = Stem;
},
{
horizontal = 1;
origin = (0,5);
target = (1,5);
type = Stem;
},
{
horizontal = 1;
origin = (0,8);
target = down;
type = TopGhost;
},
{
place = (103, 72);
place = (103, 72);
type = Stem;
},
{
place = (496, 74);
place = (496, 74);
type = Stem;
}
);
layerId = m01;
shapes = (
{
closed = 1;
nodes = (
(420,-11,o),
(540,88,o),
(565,218,cs),
(590,347,o),
(511,437,o),
(372,443,c),
(350,430,l),
(606,680,l),
(514,680,l),
(186,359,ls),
(144,318,o),
(118,271,o),
(107,216,cs),
(82,88,o),
(166,-11,o),
(292,-11,cs)
);
},
{
closed = 1;
nodes = (
(221,59,o),
(161,128,o),
(178,216,cs),
(196,308,o),
(287,371,o),
(368,371,cs),
(455,371,o),
(510,300,o),
(493,213,cs),
(477,129,o),
(396,59,o),
(306,59,cs)
);
}
);
width = 528;
},
{
hints = (
{
horizontal = 1;
origin = (0,15);
target = (1,11);
type = Stem;
},
{
horizontal = 1;
origin = (0,8);
target = down;
type = TopGhost;
}
);
layerId = "B86D9C3C-D3FC-40C7-BC9B-EF4509240B31";
shapes = (
{
closed = 1;
nodes = (
(445,-10,o),
(580,92,o),
(606,228,cs),
(629,347,o),
(560,450,o),
(442,464,c),
(436,457,l),
(641,680,l),
(466,680,l),
(200,387,ls),
(160,343,o),
(121,288,o),
(109,228,cs),
(83,92,o),
(175,-10,o),
(312,-10,cs)
);
},
{
closed = 1;
nodes = (
(282,130,o),
(247,174,o),
(257,228,cs),
(268,282,o),
(320,326,o),
(377,326,cs),
(433,326,o),
(470,282,o),
(459,228,cs),
(449,174,o),
(395,130,o),
(339,130,cs)
);
}
);
width = 567;
},
{
hints = (
{
horizontal = 1;
origin = (0,15);
target = (1,11);
type = Stem;
},
{
horizontal = 1;
origin = (0,8);
target = down;
type = TopGhost;
},
{
place = (105, 179);
place = (105, 179);
type = Stem;
},
{
place = (448, 176);
place = (448, 176);
type = Stem;
}
);
layerId = "20FD933E-5CCA-4ADC-839D-1BAE82A4B007";
shapes = (
{
closed = 1;
nodes = (
(453,-10,o),
(593,93,o),
(620,231,cs),
(642,347,o),
(577,454,o),
(466,471,c),
(465,466,l),
(653,680,l),
(450,680,l),
(205,396,ls),
(165,351,o),
(122,294,o),
(110,232,cs),
(83,93,o),
(178,-10,o),
(319,-10,cs)
);
},
{
closed = 1;
nodes = (
(303,154,o),
(276,189,o),
(284,232,cs),
(292,273,o),
(331,311,o),
(380,311,cs),
(426,311,o),
(457,276,o),
(448,233,cs),
(440,189,o),
(395,154,o),
(350,154,cs)
);
}
);
width = 580;
}
);
note = six;
unicode = 54;
},
{
glyphname = seven;
lastChange = "2023-12-15 17:48:45 +0000";
layers = (
{
hints = (
{
horizontal = 1;
origin = (0,6);
target = up;
type = BottomGhost;
},
{
horizontal = 1;
origin = (0,3);
target = (0,2);
type = Stem;
}
);
layerId = m01;
shapes = (
{
closed = 1;
nodes = (
(188,0,l),
(619,677,l),
(192,677,l),
(178,607,l),
(529,607,l),
(517,636,l),
(112,0,l)
);
}
);
width = 487;
},
{
hints = (
{
horizontal = 1;
origin = (0,6);
target = up;
type = BottomGhost;
},
{
horizontal = 1;
origin = (0,2);
target = (0,3);
type = Stem;
}
);
layerId = "B86D9C3C-D3FC-40C7-BC9B-EF4509240B31";
shapes = (
{
closed = 1;
nodes = (
(276,0,l),
(696,680,l),
(197,680,l),
(170,542,l),
(514,542,l),
(485,604,l),
(113,0,l)
);
}
);
width = 554;
},
{
hints = (
{
horizontal = 1;
origin = (0,6);
target = up;
type = BottomGhost;
},
{
horizontal = 1;
origin = (0,2);
target = (0,3);
type = Stem;
}
);
layerId = "20FD933E-5CCA-4ADC-839D-1BAE82A4B007";
shapes = (
{
closed = 1;
nodes = (
(305,0,l),
(722,681,l),
(199,681,l),
(168,520,l),
(509,520,l),
(475,593,l),
(113,0,l)
);
}
);
width = 576;
}
);
note = seven;
unicode = 55;
},
{
glyphname = eight;
lastChange = "2023-12-15 17:48:45 +0000";
layers = (
{
hints = (
{
horizontal = 1;
origin = (0,23);
target = (1,11);
type = Stem;
},
{
horizontal = 1;
origin = (1,5);
target = (2,11);
type = Stem;
},
{
horizontal = 1;
origin = (0,11);
target = (2,5);
type = Stem;
},
{
place = (104, 74);
place = (104, 74);
type = Stem;
},
{
place = (486, 71);
place = (486, 71);
type = Stem;
}
);
layerId = m01;
shapes = (
{
closed = 1;
nodes = (
(417,-10,o),
(530,70,o),
(554,196,cs),
(567,264,o),
(536,331,o),
(474,369,c),
(536,414,o),
(573,462,o),
(583,514,cs),
(604,621,o),
(535,691,o),
(427,691,cs),
(320,691,o),
(224,621,o),
(203,515,cs),
(193,462,o),
(210,414,o),
(256,369,c),
(178,331,o),
(121,264,o),
(108,194,cs),
(83,69,o),
(168,-10,o),
(291,-10,cs)
);
},
{
closed = 1;
nodes = (
(218,57,o),
(166,126,o),
(181,202,cs),
(197,282,o),
(279,341,o),
(359,341,cs),
(439,341,o),
(499,282,o),
(483,202,cs),
(468,126,o),
(390,57,o),
(304,57,cs)
);
},
{
closed = 1;
nodes = (
(302,398,o),
(262,450,o),
(274,511,cs),
(287,576,o),
(349,623,o),
(414,623,cs),
(479,623,o),
(523,576,o),
(510,511,cs),
(498,450,o),
(438,398,o),
(370,398,cs)
);
}
);
width = 526;
},
{
hints = (
{
horizontal = 1;
origin = (0,23);
target = (1,11);
type = Stem;
},
{
horizontal = 1;
origin = (1,5);
target = (2,11);
type = Stem;
},
{
horizontal = 1;
origin = (0,11);
target = (2,5);
type = Stem;
},
{
place = (188, 145);
place = (188, 145);
type = Stem;
},
{
place = (472, 147);
place = (472, 147);
type = Stem;
}
);
layerId = "B86D9C3C-D3FC-40C7-BC9B-EF4509240B31";
shapes = (
{
closed = 1;
nodes = (
(433,-10,o),
(568,87,o),
(594,223,cs),
(606,284,o),
(590,343,o),
(548,376,c),
(582,408,o),
(607,450,o),
(616,495,cs),
(639,611,o),
(547,690,o),
(442,690,cs),
(337,690,o),
(214,611,o),
(191,494,cs),
(182,450,o),
(191,408,o),
(213,375,c),
(158,338,o),
(119,277,o),
(107,214,cs),
(81,80,o),
(184,-10,o),
(306,-10,cs)
);
},
{
closed = 1;
nodes = (
(280,129,o),
(247,170,o),
(257,223,cs),
(268,276,o),
(316,314,o),
(369,314,cs),
(421,314,o),
(456,276,o),
(445,223,cs),
(435,170,o),
(385,129,o),
(333,129,cs)
);
},
{
closed = 1;
nodes = (
(351,420,o),
(326,451,o),
(333,489,cs),
(340,527,o),
(379,559,o),
(417,559,cs),
(454,559,o),
(479,527,o),
(472,489,cs),
(465,451,o),
(428,420,o),
(390,420,cs)
);
}
);
width = 556;
},
{
hints = (
{
horizontal = 1;
origin = (0,23);
target = (1,11);
type = Stem;
},
{
horizontal = 1;
origin = (2,5);
target = (0,11);
type = Stem;
},
{
place = (102, 181);
place = (102, 181);
type = Stem;
},
{
place = (460, 170);
place = (460, 170);
type = Stem;
},
{
place = (460, 152);
place = (460, 152);
type = Stem;
},
{
place = (184, 169);
place = (184, 169);
type = Stem;
}
);
layerId = "20FD933E-5CCA-4ADC-839D-1BAE82A4B007";
shapes = (
{
closed = 1;
nodes = (
(438,-10,o),
(581,93,o),
(608,232,cs),
(620,291,o),
(607,347,o),
(572,378,c),
(598,406,o),
(619,446,o),
(627,489,cs),
(650,608,o),
(551,690,o),
(447,690,cs),
(343,690,o),
(210,608,o),
(187,487,cs),
(179,446,o),
(185,406,o),
(198,377,c),
(151,340,o),
(118,281,o),
(106,221,cs),
(79,84,o),
(189,-10,o),
(311,-10,cs)
);
},
{
closed = 1;
nodes = (
(301,153,o),
(274,185,o),
(283,230,cs),
(291,274,o),
(328,305,o),
(372,305,cs),
(415,305,o),
(441,274,o),
(433,230,cs),
(424,185,o),
(384,153,o),
(343,153,cs)
);
},
{
closed = 1;
nodes = (
(367,427,o),
(347,451,o),
(353,482,cs),
(358,511,o),
(389,538,o),
(418,538,cs),
(446,538,o),
(465,511,o),
(460,482,cs),
(454,451,o),
(424,427,o),
(396,427,cs)
);
}
);
width = 566;
}
);
note = eight;
unicode = 56;
},
{
glyphname = nine;
lastChange = "2023-12-15 17:48:45 +0000";
layers = (
{
hints = (
{
horizontal = 1;
origin = (0,15);
target = up;
type = BottomGhost;
},
{
horizontal = 1;
origin = (0,13);
target = (1,11);
type = Stem;
},
{
horizontal = 1;
origin = (0,7);
target = (1,5);
type = Stem;
},
{
horizontal = 1;
origin = (0,14);
target = (1,11);
type = Stem;
},
{
place = (150, 74);
place = (150, 74);
type = Stem;
},
{
place = (545, 72);
place = (545, 72);
type = Stem;
}
);
layerId = m01;
shapes = (
{
closed = 1;
nodes = (
(206,0,l),
(534,321,ls),
(576,362,o),
(603,409,o),
(613,464,cs),
(638,592,o),
(554,691,o),
(428,691,cs),
(300,691,o),
(180,592,o),
(155,462,cs),
(130,333,o),
(209,243,o),
(348,237,c),
(371,250,l),
(114,0,l)
);
},
{
closed = 1;
nodes = (
(265,309,o),
(210,380,o),
(227,467,cs),
(243,551,o),
(324,621,o),
(414,621,cs),
(499,621,o),
(559,552,o),
(542,464,cs),
(525,378,o),
(437,309,o),
(353,309,cs)
);
}
);
width = 528;
},
{
hints = (
{
horizontal = 1;
origin = (0,15);
target = up;
type = BottomGhost;
},
{
horizontal = 1;
origin = (0,7);
target = (1,5);
type = Stem;
}
);
layerId = "B86D9C3C-D3FC-40C7-BC9B-EF4509240B31";
shapes = (
{
closed = 1;
nodes = (
(294,0,l),
(560,293,ls),
(600,337,o),
(638,392,o),
(650,452,cs),
(676,588,o),
(584,690,o),
(448,690,cs),
(314,690,o),
(179,588,o),
(153,452,cs),
(130,333,o),
(200,230,o),
(317,216,c),
(320,219,l),
(118,0,l)
);
},
{
closed = 1;
nodes = (
(326,354,o),
(290,398,o),
(301,452,cs),
(311,506,o),
(364,550,o),
(421,550,cs),
(477,550,o),
(513,506,o),
(503,452,cs),
(492,398,o),
(439,354,o),
(383,354,cs)
);
}
);
width = 567;
},
{
hints = (
{
horizontal = 1;
origin = (0,15);
target = up;
type = BottomGhost;
},
{
horizontal = 1;
origin = (1,5);
target = (0,7);
type = Stem;
},
{
place = (148, 178);
place = (148, 178);
type = Stem;
},
{
place = (490, 177);
place = (490, 177);
type = Stem;
}
);
layerId = "20FD933E-5CCA-4ADC-839D-1BAE82A4B007";
shapes = (
{
closed = 1;
nodes = (
(323,0,l),
(568,284,ls),
(607,329,o),
(650,386,o),
(662,448,cs),
(689,587,o),
(594,690,o),
(455,690,cs),
(319,690,o),
(179,587,o),
(152,449,cs),
(130,333,o),
(197,226,o),
(307,209,c),
(303,209,l),
(119,0,l)
);
},
{
closed = 1;
nodes = (
(346,369,o),
(318,404,o),
(326,447,cs),
(334,491,o),
(377,526,o),
(423,526,cs),
(469,526,o),
(498,491,o),
(490,448,cs),
(482,405,o),
(440,369,o),
(393,369,cs)
);
}
);
width = 580;
}
);
note = nine;
unicode = 57;
},
{
glyphname = fraction;
lastChange = "2023-12-15 17:48:45 +0000";
layers = (
{
hints = (
{
horizontal = 1;
origin = (0,3);
target = up;
type = BottomGhost;
},
{
horizontal = 1;
origin = (0,2);
target = down;
type = TopGhost;
}
);
layerId = m01;
shapes = (
{
closed = 1;
nodes = (
(142,0,l),
(561,679,l),
(493,679,l),
(75,0,l)
);
}
);
width = 444;
},
{
hints = (
{
horizontal = 1;
origin = (0,3);
target = up;
type = BottomGhost;
},
{
horizontal = 1;
origin = (0,2);
target = down;
type = TopGhost;
}
);
layerId = "B86D9C3C-D3FC-40C7-BC9B-EF4509240B31";
shapes = (
{
closed = 1;
nodes = (
(188,0,l),
(592,680,l),
(454,680,l),
(50,0,l)
);
}
);
width = 450;
},
{
hints = (
{
horizontal = 1;
origin = (0,3);
target = up;
type = BottomGhost;
},
{
horizontal = 1;
origin = (0,2);
target = down;
type = TopGhost;
}
);
layerId = "20FD933E-5CCA-4ADC-839D-1BAE82A4B007";
shapes = (
{
closed = 1;
nodes = (
(203,0,l),
(602,680,l),
(441,680,l),
(42,0,l)
);
}
);
width = 452;
}
);
note = fraction;
unicode = 8260;
},
{
glyphname = .notdef;
lastChange = "2023-12-15 17:48:45 +0000";
layers = (
{
hints = (
{
horizontal = 1;
origin = (0,3);
target = (1,3);
type = Stem;
},
{
horizontal = 1;
origin = (1,0);
target = (0,2);
type = Stem;
}
);
layerId = m01;
shapes = (
{
closed = 1;
nodes = (
(468,0,l),
(614,750,l),
(239,750,l),
(93,0,l)
);
},
{
closed = 1;
nodes = (
(289,688,l),
(539,688,l),
(417,63,l),
(167,63,l)
);
}
);
width = 501;
},
{
hints = (
{
horizontal = 1;
origin = (0,3);
target = (1,3);
type = Stem;
},
{
horizontal = 1;
origin = (1,0);
target = (0,2);
type = Stem;
}
);
layerId = "B86D9C3C-D3FC-40C7-BC9B-EF4509240B31";
shapes = (
{
closed = 1;
nodes = (
(468,0,l),
(614,750,l),
(239,750,l),
(93,0,l)
);
},
{
closed = 1;
nodes = (
(289,688,l),
(539,688,l),
(417,63,l),
(167,63,l)
);
}
);
width = 500;
},
{
hints = (
{
horizontal = 1;
origin = (0,3);
target = (1,3);
type = Stem;
},
{
horizontal = 1;
origin = (1,0);
target = (0,2);
type = Stem;
},
{
origin = (0,3);
target = (0,1);
type = Stem;
}
);
layerId = "20FD933E-5CCA-4ADC-839D-1BAE82A4B007";
shapes = (
{
closed = 1;
nodes = (
(468,0,l),
(614,750,l),
(239,750,l),
(93,0,l)
);
},
{
closed = 1;
nodes = (
(289,688,l),
(539,688,l),
(417,63,l),
(167,63,l)
);
}
);
width = 500;
}
);
note = ".notdef";
},
{
glyphname = period;
kernLeft = per;
kernRight = per;
lastChange = "2023-12-15 17:48:45 +0000";
layers = (
{
hints = (
{
horizontal = 1;
origin = (0,11);
target = (0,5);
type = Stem;
},
{
origin = (0,8);
target = (0,2);
type = Stem;
}
);
layerId = m01;
shapes = (
{
closed = 1;
nodes = (
(191,-10,o),
(225,15,o),
(231,47,cs),
(237,79,o),
(216,103,o),
(183,103,cs),
(151,103,o),
(120,78,o),
(114,46,cs),
(108,16,o),
(131,-10,o),
(161,-10,cs)
);
}
);
width = 267;
},
{
hints = (
{
horizontal = 1;
origin = (0,11);
target = up;
type = BottomGhost;
},
{
horizontal = 1;
origin = (0,11);
target = (0,5);
type = Stem;
},
{
place = (105, 161);
place = (105, 161);
type = Stem;
}
);
layerId = "B86D9C3C-D3FC-40C7-BC9B-EF4509240B31";
shapes = (
{
closed = 1;
nodes = (
(213,-1,o),
(256,34,o),
(264,77,cs),
(273,121,o),
(243,156,o),
(200,156,cs),
(157,156,o),
(115,121,o),
(106,77,cs),
(98,34,o),
(126,-1,o),
(170,-1,cs)
);
}
);
width = 280;
},
{
hints = (
{
horizontal = 1;
origin = (0,11);
target = (0,5);
type = Stem;
},
{
place = (101, 176);
place = (101, 176);
type = Stem;
}
);
layerId = "20FD933E-5CCA-4ADC-839D-1BAE82A4B007";
shapes = (
{
closed = 1;
nodes = (
(220,2,o),
(266,40,o),
(275,87,cs),
(284,135,o),
(253,174,o),
(206,174,cs),
(160,174,o),
(112,135,o),
(103,87,cs),
(94,40,o),
(124,2,o),
(172,2,cs)
);
}
);
width = 284;
}
);
note = period;
unicode = 46;
},
{
glyphname = comma;
kernLeft = per;
kernRight = per;
lastChange = "2023-12-15 17:48:45 +0000";
layers = (
{
hints = (
{
horizontal = 1;
origin = (0,11);
target = up;
type = BottomGhost;
},
{
horizontal = 1;
origin = (0,11);
target = (0,5);
type = Stem;
},
{
place = (80, 119);
place = (80, 119);
type = Stem;
}
);
layerId = m01;
shapes = (
{
closed = 1;
nodes = (
(130,-89,o),
(185,-24,o),
(196,32,cs),
(206,82,o),
(190,112,o),
(149,112,cs),
(117,112,o),
(86,87,o),
(80,55,cs),
(73,22,o),
(96,-1,o),
(127,-1,cs),
(129,-1,l),
(116,-29,o),
(73,-70,o),
(54,-86,c),
(76,-124,l)
);
}
);
width = 232;
},
{
hints = (
{
horizontal = 1;
origin = (0,16);
target = (0,5);
type = Stem;
},
{
horizontal = 1;
origin = (0,11);
target = (0,5);
type = Stem;
},
{
place = (50, 197);
place = (50, 197);
type = Stem;
}
);
layerId = "B86D9C3C-D3FC-40C7-BC9B-EF4509240B31";
shapes = (
{
closed = 1;
nodes = (
(142,-102,o),
(230,-15,o),
(245,60,cs),
(255,113,o),
(226,150,o),
(180,150,cs),
(145,150,o),
(94,120,o),
(86,78,cs),
(79,41,o),
(100,7,o),
(127,7,cs),
(132,7,l),
(116,-14,o),
(71,-48,o),
(50,-61,c),
(66,-129,l)
);
}
);
width = 246;
},
{
hints = (
{
horizontal = 1;
origin = (0,16);
target = (0,5);
type = Stem;
},
{
horizontal = 1;
origin = (0,11);
target = (0,5);
type = Stem;
},
{
place = (49, 213);
place = (49, 213);
type = Stem;
}
);
layerId = "20FD933E-5CCA-4ADC-839D-1BAE82A4B007";
shapes = (
{
closed = 1;
nodes = (
(146,-106,o),
(245,-12,o),
(260,69,cs),
(271,123,o),
(239,163,o),
(191,163,cs),
(155,163,o),
(97,131,o),
(89,86,cs),
(81,47,o),
(102,10,o),
(128,10,cs),
(134,10,l),
(116,-9,o),
(70,-41,o),
(49,-53,c),
(63,-131,l)
);
}
);
width = 251;
}
);
note = comma;
unicode = 44;
},
{
glyphname = colon;
lastChange = "2023-12-15 17:48:45 +0000";
layers = (
{
background = {
shapes = (
{
closed = 1;
nodes = (
(148.33,377,o),
(162,382.5,o),
(174,393.5,cs),
(186,404.5,o),
(192,417.83,o),
(192,433.5,cs),
(192,449.17,o),
(186.17,462.5,o),
(174.5,473.5,cs),
(162.83,484.5,o),
(149,490,o),
(133,490,cs),
(117,490,o),
(103.33,484.33,o),
(92,473,cs),
(80.67,461.67,o),
(75,448.33,o),
(75,433,cs),
(75,417.67,o),
(80.83,404.5,o),
(92.5,393.5,cs),
(104.17,382.5,o),
(117.67,377,o),
(133,377,cs)
);
},
{
closed = 1;
nodes = (
(148.33,-10,o),
(162,-4.5,o),
(174,6.5,cs),
(186,17.5,o),
(192,30.83,o),
(192,46.5,cs),
(192,62.17,o),
(186.17,75.5,o),
(174.5,86.5,cs),
(162.83,97.5,o),
(149,103,o),
(133,103,cs),
(117,103,o),
(103.33,97.33,o),
(92,86,cs),
(80.67,74.67,o),
(75,61.33,o),
(75,46,cs),
(75,30.67,o),
(80.83,17.5,o),
(92.5,6.5,cs),
(104.17,-4.5,o),
(117.67,-10,o),
(133,-10,cs)
);
}
);
};
hints = (
{
horizontal = 1;
origin = (1,11);
target = (1,5);
type = Stem;
},
{
horizontal = 1;
origin = (0,5);
target = (0,11);
type = Stem;
},
{
place = (113, 187);
place = (113, 187);
type = Stem;
}
);
layerId = m01;
shapes = (
{
closed = 1;
nodes = (
(259,337,o),
(292,362,o),
(299,394,cs),
(305,426,o),
(283,450,o),
(250,450,cs),
(218,450,o),
(188,425,o),
(181,393,cs),
(176,363,o),
(199,337,o),
(229,337,cs)
);
},
{
closed = 1;
nodes = (
(191,-10,o),
(225,15,o),
(231,47,cs),
(237,79,o),
(216,103,o),
(183,103,cs),
(151,103,o),
(120,78,o),
(114,46,cs),
(108,16,o),
(131,-10,o),
(161,-10,cs)
);
}
);
width = 267;
},
{
hints = (
{
horizontal = 1;
origin = (1,11);
target = up;
type = BottomGhost;
},
{
horizontal = 1;
origin = (0,5);
target = (0,11);
type = Stem;
},
{
horizontal = 1;
origin = (1,11);
target = (1,5);
type = Stem;
},
{
horizontal = 1;
origin = (0,5);
target = down;
type = TopGhost;
},
{
place = (117, 219);
place = (117, 219);
type = Stem;
}
);
layerId = "B86D9C3C-D3FC-40C7-BC9B-EF4509240B31";
shapes = (
{
closed = 1;
nodes = (
(283,293,o),
(326,328,o),
(334,371,cs),
(343,415,o),
(313,450,o),
(270,450,cs),
(226,450,o),
(185,415,o),
(176,371,cs),
(168,328,o),
(196,293,o),
(240,293,cs)
);
},
{
closed = 1;
nodes = (
(225,-6,o),
(268,29,o),
(276,72,cs),
(285,116,o),
(255,151,o),
(212,151,cs),
(168,151,o),
(127,116,o),
(118,72,cs),
(110,29,o),
(138,-6,o),
(182,-6,cs)
);
}
);
width = 306;
},
{
hints = (
{
horizontal = 1;
origin = (1,11);
target = up;
type = BottomGhost;
},
{
horizontal = 1;
origin = (0,5);
target = (0,11);
type = Stem;
},
{
horizontal = 1;
origin = (1,11);
target = (1,5);
type = Stem;
},
{
horizontal = 1;
origin = (0,5);
target = down;
type = TopGhost;
},
{
place = (118, 230);
place = (118, 230);
type = Stem;
}
);
layerId = "20FD933E-5CCA-4ADC-839D-1BAE82A4B007";
shapes = (
{
closed = 1;
nodes = (
(291,278,o),
(337,317,o),
(346,363,cs),
(355,411,o),
(323,450,o),
(277,450,cs),
(229,450,o),
(184,412,o),
(175,364,cs),
(165,316,o),
(195,278,o),
(244,278,cs)
);
},
{
closed = 1;
nodes = (
(236,-5,o),
(282,34,o),
(291,80,cs),
(300,128,o),
(268,167,o),
(222,167,cs),
(174,167,o),
(129,129,o),
(120,81,cs),
(110,33,o),
(140,-5,o),
(189,-5,cs)
);
}
);
width = 319;
}
);
note = colon;
unicode = 58;
},
{
glyphname = semicolon;
lastChange = "2023-12-15 17:48:45 +0000";
layers = (
{
background = {
shapes = (
{
closed = 1;
nodes = (
(153,-87,o),
(196,-22,o),
(196,34,cs),
(196,84,o),
(174,114,o),
(133,114,cs),
(101,114,o),
(75,89,o),
(75,57,cs),
(75,24,o),
(102,1,o),
(133,1,cs),
(135,1,l),
(128,-27,o),
(93,-68,o),
(77,-84,c),
(106,-122,l)
);
},
{
closed = 1;
nodes = (
(148.33,377,o),
(162,382.5,o),
(174,393.5,cs),
(186,404.5,o),
(192,417.83,o),
(192,433.5,cs),
(192,449.17,o),
(186.17,462.5,o),
(174.5,473.5,cs),
(162.83,484.5,o),
(149,490,o),
(133,490,cs),
(117,490,o),
(103.33,484.33,o),
(92,473,cs),
(80.67,461.67,o),
(75,448.33,o),
(75,433,cs),
(75,417.67,o),
(80.83,404.5,o),
(92.5,393.5,cs),
(104.17,382.5,o),
(117.67,377,o),
(133,377,cs)
);
}
);
};
hints = (
{
horizontal = 1;
origin = (0,11);
target = up;
type = BottomGhost;
},
{
horizontal = 1;
origin = (1,5);
target = down;
type = TopGhost;
},
{
horizontal = 1;
origin = (0,11);
target = (0,5);
type = Stem;
},
{
horizontal = 1;
origin = (1,5);
target = (1,11);
type = Stem;
},
{
place = (91, 209);
place = (91, 209);
type = Stem;
}
);
layerId = m01;
shapes = (
{
closed = 1;
nodes = (
(166,-87,o),
(222,-22,o),
(233,34,cs),
(242,84,o),
(226,114,o),
(185,114,cs),
(153,114,o),
(122,89,o),
(116,57,cs),
(110,24,o),
(132,1,o),
(163,1,cs),
(165,1,l),
(153,-27,o),
(110,-68,o),
(91,-84,c),
(112,-122,l)
);
},
{
closed = 1;
nodes = (
(259,337,o),
(292,362,o),
(299,394,cs),
(305,426,o),
(283,450,o),
(250,450,cs),
(218,450,o),
(188,425,o),
(181,393,cs),
(176,363,o),
(199,337,o),
(229,337,cs)
);
}
);
width = 267;
},
{
hints = (
{
horizontal = 1;
origin = (0,11);
target = up;
type = BottomGhost;
},
{
horizontal = 1;
origin = (1,5);
target = down;
type = TopGhost;
},
{
horizontal = 1;
origin = (1,5);
target = (1,11);
type = Stem;
},
{
place = (79, 257);
place = (79, 257);
type = Stem;
}
);
layerId = "B86D9C3C-D3FC-40C7-BC9B-EF4509240B31";
shapes = (
{
closed = 1;
nodes = (
(171,-116,o),
(259,-29,o),
(274,46,cs),
(284,99,o),
(255,136,o),
(209,136,cs),
(174,136,o),
(123,105,o),
(116,65,cs),
(110,36,o),
(117,-7,o),
(157,-7,cs),
(162,-7,l),
(146,-28,o),
(100,-62,o),
(79,-75,c),
(95,-143,l)
);
},
{
closed = 1;
nodes = (
(283,293,o),
(326,328,o),
(334,371,cs),
(343,415,o),
(313,450,o),
(270,450,cs),
(226,450,o),
(185,415,o),
(176,371,cs),
(168,328,o),
(196,293,o),
(240,293,cs)
);
}
);
width = 306;
},
{
hints = (
{
horizontal = 1;
origin = (0,11);
target = up;
type = BottomGhost;
},
{
horizontal = 1;
origin = (1,5);
target = down;
type = TopGhost;
},
{
horizontal = 1;
origin = (1,5);
target = (1,11);
type = Stem;
},
{
place = (76, 272);
place = (76, 272);
type = Stem;
}
);
layerId = "20FD933E-5CCA-4ADC-839D-1BAE82A4B007";
shapes = (
{
closed = 1;
nodes = (
(174,-126,o),
(272,-31,o),
(288,50,cs),
(298,104,o),
(265,143,o),
(218,143,cs),
(182,143,o),
(123,110,o),
(115,68,cs),
(110,40,o),
(111,-10,o),
(154,-10,cs),
(160,-10,l),
(144,-28,o),
(96,-60,o),
(76,-72,c),
(90,-150,l)
);
},
{
closed = 1;
nodes = (
(291,278,o),
(337,317,o),
(346,363,cs),
(355,411,o),
(323,450,o),
(277,450,cs),
(229,450,o),
(184,412,o),
(175,364,cs),
(165,316,o),
(195,278,o),
(244,278,cs)
);
}
);
width = 319;
}
);
note = semicolon;
unicode = 59;
},
{
glyphname = ellipsis;
lastChange = "2023-12-15 17:48:45 +0000";
layers = (
{
background = {
shapes = (
{
closed = 1;
nodes = (
(548.33,-10,o),
(562,-4.5,o),
(574,6.5,cs),
(586,17.5,o),
(592,30.83,o),
(592,46.5,cs),
(592,62.17,o),
(586.17,75.5,o),
(574.5,86.5,cs),
(562.83,97.5,o),
(549,103,o),
(533,103,cs),
(517,103,o),
(503.33,97.33,o),
(492,86,cs),
(480.67,74.67,o),
(475,61.33,o),
(475,46,cs),
(475,30.67,o),
(480.83,17.5,o),
(492.5,6.5,cs),
(504.17,-4.5,o),
(517.67,-10,o),
(533,-10,cs)
);
},
{
closed = 1;
nodes = (
(148.33,-10,o),
(162,-4.5,o),
(174,6.5,cs),
(186,17.5,o),
(192,30.83,o),
(192,46.5,cs),
(192,62.17,o),
(186.17,75.5,o),
(174.5,86.5,cs),
(162.83,97.5,o),
(149,103,o),
(133,103,cs),
(117,103,o),
(103.33,97.33,o),
(92,86,cs),
(80.67,74.67,o),
(75,61.33,o),
(75,46,cs),
(75,30.67,o),
(80.83,17.5,o),
(92.5,6.5,cs),
(104.17,-4.5,o),
(117.67,-10,o),
(133,-10,cs)
);
},
{
closed = 1;
nodes = (
(348.33,-10,o),
(362,-4.5,o),
(374,6.5,cs),
(386,17.5,o),
(392,30.83,o),
(392,46.5,cs),
(392,62.17,o),
(386.17,75.5,o),
(374.5,86.5,cs),
(362.83,97.5,o),
(349,103,o),
(333,103,cs),
(317,103,o),
(303.33,97.33,o),
(292,86,cs),
(280.67,74.67,o),
(275,61.33,o),
(275,46,cs),
(275,30.67,o),
(280.83,17.5,o),
(292.5,6.5,cs),
(304.17,-4.5,o),
(317.67,-10,o),
(333,-10,cs)
);
}
);
};
hints = (
{
horizontal = 1;
origin = (1,11);
target = (1,5);
type = Stem;
},
{
origin = (0,8);
target = (0,2);
type = Stem;
}
);
layerId = m01;
shapes = (
{
closed = 1;
nodes = (
(591,-10,o),
(625,15,o),
(631,47,cs),
(637,79,o),
(616,103,o),
(583,103,cs),
(551,103,o),
(520,78,o),
(514,46,cs),
(508,16,o),
(531,-10,o),
(561,-10,cs)
);
},
{
closed = 1;
nodes = (
(191,-10,o),
(225,15,o),
(231,47,cs),
(237,79,o),
(216,103,o),
(183,103,cs),
(151,103,o),
(120,78,o),
(114,46,cs),
(108,16,o),
(131,-10,o),
(161,-10,cs)
);
},
{
closed = 1;
nodes = (
(391,-10,o),
(425,15,o),
(431,47,cs),
(437,79,o),
(416,103,o),
(383,103,cs),
(351,103,o),
(320,78,o),
(314,46,cs),
(308,16,o),
(331,-10,o),
(361,-10,cs)
);
}
);
width = 667;
},
{
hints = (
{
horizontal = 1;
origin = (1,11);
target = (1,5);
type = Stem;
}
);
layerId = "B86D9C3C-D3FC-40C7-BC9B-EF4509240B31";
shapes = (
{
closed = 1;
nodes = (
(712,-6,o),
(755,29,o),
(763,72,cs),
(772,116,o),
(742,151,o),
(699,151,cs),
(655,151,o),
(614,116,o),
(605,72,cs),
(597,29,o),
(625,-6,o),
(669,-6,cs)
);
},
{
closed = 1;
nodes = (
(212,-6,o),
(255,29,o),
(263,72,cs),
(272,116,o),
(242,151,o),
(199,151,cs),
(155,151,o),
(114,116,o),
(105,72,cs),
(97,29,o),
(125,-6,o),
(169,-6,cs)
);
},
{
closed = 1;
nodes = (
(462,-6,o),
(505,29,o),
(513,72,cs),
(522,116,o),
(492,151,o),
(449,151,cs),
(405,151,o),
(364,116,o),
(355,72,cs),
(347,29,o),
(375,-6,o),
(419,-6,cs)
);
}
);
width = 780;
},
{
hints = (
{
horizontal = 1;
origin = (1,11);
target = (1,5);
type = Stem;
}
);
layerId = "20FD933E-5CCA-4ADC-839D-1BAE82A4B007";
shapes = (
{
closed = 1;
nodes = (
(752,-5,o),
(798,34,o),
(807,80,cs),
(816,128,o),
(784,167,o),
(738,167,cs),
(690,167,o),
(645,129,o),
(636,81,cs),
(626,33,o),
(656,-5,o),
(705,-5,cs)
);
},
{
closed = 1;
nodes = (
(219,-5,o),
(265,34,o),
(274,80,cs),
(283,128,o),
(251,167,o),
(204,167,cs),
(156,167,o),
(111,129,o),
(102,81,cs),
(92,33,o),
(123,-5,o),
(171,-5,cs)
);
},
{
closed = 1;
nodes = (
(485,-5,o),
(532,34,o),
(541,80,cs),
(550,128,o),
(517,167,o),
(471,167,cs),
(423,167,o),
(378,129,o),
(369,81,cs),
(359,33,o),
(389,-5,o),
(438,-5,cs)
);
}
);
width = 818;
}
);
note = ellipsis;
unicode = 8230;
},
{
glyphname = exclam;
lastChange = "2023-12-15 17:48:45 +0000";
layers = (
{
hints = (
{
horizontal = 1;
origin = (1,11);
target = (1,5);
type = Stem;
},
{
horizontal = 1;
origin = (0,2);
target = down;
type = TopGhost;
}
);
layerId = m01;
shapes = (
{
closed = 1;
nodes = (
(222,203,l),
(334,680,l),
(246,680,l),
(172,203,l)
);
},
{
closed = 1;
nodes = (
(188,-10,o),
(220,15,o),
(226,47,cs),
(232,78,o),
(210,103,o),
(179,103,cs),
(147,103,o),
(115,77,o),
(109,46,cs),
(103,15,o),
(125,-10,o),
(157,-10,cs)
);
}
);
width = 257;
},
{
hints = (
{
horizontal = 1;
origin = (1,11);
target = up;
type = BottomGhost;
},
{
horizontal = 1;
origin = (0,2);
target = down;
type = TopGhost;
},
{
horizontal = 1;
origin = (1,11);
target = (1,5);
type = Stem;
},
{
place = (104, 273);
place = (104, 273);
type = Stem;
}
);
layerId = "B86D9C3C-D3FC-40C7-BC9B-EF4509240B31";
shapes = (
{
closed = 1;
nodes = (
(270,229,l),
(377,680,l),
(227,680,l),
(160,229,l)
);
},
{
closed = 1;
nodes = (
(212,-6,o),
(255,29,o),
(263,73,cs),
(272,116,o),
(243,152,o),
(200,152,cs),
(156,152,o),
(114,116,o),
(105,73,cs),
(97,29,o),
(125,-6,o),
(169,-6,cs)
);
}
);
width = 280;
},
{
hints = (
{
horizontal = 1;
origin = (1,11);
target = up;
type = BottomGhost;
},
{
horizontal = 1;
origin = (0,2);
target = down;
type = TopGhost;
},
{
horizontal = 1;
origin = (1,11);
target = (1,5);
type = Stem;
},
{
place = (102, 289);
place = (102, 289);
type = Stem;
}
);
layerId = "20FD933E-5CCA-4ADC-839D-1BAE82A4B007";
shapes = (
{
closed = 1;
nodes = (
(285,238,l),
(391,680,l),
(221,680,l),
(155,238,l)
);
},
{
closed = 1;
nodes = (
(220,-5,o),
(267,34,o),
(276,82,cs),
(285,129,o),
(254,168,o),
(207,168,cs),
(159,168,o),
(113,129,o),
(104,82,cs),
(95,34,o),
(125,-5,o),
(173,-5,cs)
);
}
);
width = 288;
}
);
note = exclam;
unicode = 33;
},
